<svg class="main-svg" xmlns="http://www.w3.org/2000/svg" xmlns:xlink="http://www.w3.org/1999/xlink" width="1100" height="450" style="" viewBox="0 0 1100 450"><rect x="0" y="0" width="1100" height="450" style="fill: rgb(255, 255, 255); fill-opacity: 1;"/><defs id="defs-04da5e"><g class="clips"><clipPath id="clip04da5exyplot" class="plotclip"><rect width="876" height="350"/></clipPath><clipPath class="axesclip" id="clip04da5ex"><rect x="60" y="0" width="876" height="450"/></clipPath><clipPath class="axesclip" id="clip04da5ey"><rect x="0" y="40" width="1100" height="350"/></clipPath><clipPath class="axesclip" id="clip04da5exy"><rect x="60" y="40" width="876" height="350"/></clipPath></g><g class="gradients"/><g class="patterns"/></defs><g class="bglayer"/><g class="layer-below"><g class="imagelayer"/><g class="shapelayer"/></g><g class="cartesianlayer"><g class="subplot xy"><g class="layer-subplot"><g class="shapelayer"/><g class="imagelayer"/></g><g class="gridlayer"><g class="x"><path class="xgrid crisp" transform="translate(181.67000000000002,0)" d="M0,40v350" style="stroke: rgb(238, 238, 238); stroke-opacity: 1; stroke-width: 1px;"/><path class="xgrid crisp" transform="translate(303.33000000000004,0)" d="M0,40v350" style="stroke: rgb(238, 238, 238); stroke-opacity: 1; stroke-width: 1px;"/><path class="xgrid crisp" transform="translate(425,0)" d="M0,40v350" style="stroke: rgb(238, 238, 238); stroke-opacity: 1; stroke-width: 1px;"/><path class="xgrid crisp" transform="translate(546.6700000000001,0)" d="M0,40v350" style="stroke: rgb(238, 238, 238); stroke-opacity: 1; stroke-width: 1px;"/><path class="xgrid crisp" transform="translate(668.33,0)" d="M0,40v350" style="stroke: rgb(238, 238, 238); stroke-opacity: 1; stroke-width: 1px;"/><path class="xgrid crisp" transform="translate(790,0)" d="M0,40v350" style="stroke: rgb(238, 238, 238); stroke-opacity: 1; stroke-width: 1px;"/><path class="xgrid crisp" transform="translate(911.67,0)" d="M0,40v350" style="stroke: rgb(238, 238, 238); stroke-opacity: 1; stroke-width: 1px;"/></g><g class="y"><path class="ygrid crisp" transform="translate(0,336.15)" d="M60,0h876" style="stroke: rgb(238, 238, 238); stroke-opacity: 1; stroke-width: 1px;"/><path class="ygrid crisp" transform="translate(0,282.31)" d="M60,0h876" style="stroke: rgb(238, 238, 238); stroke-opacity: 1; stroke-width: 1px;"/><path class="ygrid crisp" transform="translate(0,228.46)" d="M60,0h876" style="stroke: rgb(238, 238, 238); stroke-opacity: 1; stroke-width: 1px;"/><path class="ygrid crisp" transform="translate(0,174.62)" d="M60,0h876" style="stroke: rgb(238, 238, 238); stroke-opacity: 1; stroke-width: 1px;"/><path class="ygrid crisp" transform="translate(0,120.77)" d="M60,0h876" style="stroke: rgb(238, 238, 238); stroke-opacity: 1; stroke-width: 1px;"/><path class="ygrid crisp" transform="translate(0,66.92)" d="M60,0h876" style="stroke: rgb(238, 238, 238); stroke-opacity: 1; stroke-width: 1px;"/></g></g><g class="zerolinelayer"><path class="xzl zl crisp" transform="translate(60,0)" d="M0,40v350" style="stroke: rgb(68, 68, 68); stroke-opacity: 1; stroke-width: 1px;"/><path class="yzl zl crisp" transform="translate(0,390)" d="M60,0h876" style="stroke: rgb(68, 68, 68); stroke-opacity: 1; stroke-width: 1px;"/></g><path class="xlines-below"/><path class="ylines-below"/><g class="overlines-below"/><g class="xaxislayer-below"/><g class="yaxislayer-below"/><g class="overaxes-below"/><g class="plot" transform="translate(60,40)" clip-path="url(#clip04da5exyplot)"><g class="scatterlayer mlayer"><g class="trace scatter traceb698fe" style="stroke-miterlimit: 2; opacity: 1;"><g class="fills"/><g class="errorbars"/><g class="lines"><path class="js-line" d="M11.68,219.03L15.33,214.18L19.47,210.63L23.6,215.29L27.25,226.75L32.12,232.76L36.99,246.44L41.85,243.21L46.72,233.1L52.56,209.03L56.45,197.42L65.7,201.51L70.81,202.08L75.43,189.57L80.54,183.33L85.41,171.25L90.28,172.58L95.14,160.8L100.01,152.42L104.63,153.8L109.99,158.34L115.1,163.17L120.21,150.16L141.86,144.74L164.01,128.33L169.12,138.22L173.98,131.31L178.85,121.26L183.23,118.17L187.85,119.92L192.48,123.34L201.24,125.91L206.1,129.81L210.97,122.41L215.11,110.46L219.49,106.15L224.11,112.93L228.49,121.33L233.36,126.7L242.12,112.57L246.5,101.79L255.5,108.3L259.88,114.33L268.64,124.01L273.26,126.9L277.64,127.85L282.27,124.6L290.78,110.94L295.16,110.37L299.79,120.15L304.17,125.16L308.79,130.95L338.96,121.44L343.83,111.82L348.21,109.24L352.59,100.48L357.21,105.02L366.22,119.74L371.08,116.99L375.46,115.03L380.09,109.51L384.47,120.71L389.58,116.16L393.96,113.45L398.34,104.07L403.2,106.92L407.83,106.87L430.46,108.03L435.08,103.15L439.7,102.15L444.33,105.48L453.09,110.71L457.47,102.36L461.85,104.71L466.47,102.51L471.34,107.08L475.96,99.44L484.96,89.6L489.34,91.04L507.35,98.77L511.97,103.55L520.73,95.86L525.11,95.79L529.25,99.26L533.87,101.88L538.5,101.34L542.88,93.98L547.5,97.75L552.12,100.37L565.51,97.73L569.89,105.9L574.51,100.64L578.89,105.36L583.51,105.13L587.89,102.56L592.03,101.27L596.65,109.27L617.82,121.15L622.2,101.73L631.45,114.03L635.83,117.67L640.45,113.26L644.83,113.18L649.46,115.16L653.59,101.73L657.49,96.29L661.62,86.57L665.76,95.94L670.38,99.29L674.76,99.67L678.9,101.45L683.52,98.83L687.9,103.91L692.53,105.2L696.91,112.27L701.53,112.36L706.4,110.83L711.02,103.13L715.4,98.45L724.65,98.34" style="vector-effect: non-scaling-stroke; fill: none; stroke: rgb(38, 131, 198); stroke-opacity: 1; stroke-width: 0.65px; opacity: 1; stroke-dasharray: 4, 4;"/></g><g class="points"><path class="point" transform="translate(11.68,219.03)" d="M2.5,0A2.5,2.5 0 1,1 0,-2.5A2.5,2.5 0 0,1 2.5,0Z" style="opacity: 1; stroke-width: 0px; fill: rgb(38, 131, 198); fill-opacity: 0.9;"/><path class="point" transform="translate(15.33,214.18)" d="M2.5,0A2.5,2.5 0 1,1 0,-2.5A2.5,2.5 0 0,1 2.5,0Z" style="opacity: 1; stroke-width: 0px; fill: rgb(38, 131, 198); fill-opacity: 0.9;"/><path class="point" transform="translate(19.47,210.63)" d="M2.5,0A2.5,2.5 0 1,1 0,-2.5A2.5,2.5 0 0,1 2.5,0Z" style="opacity: 1; stroke-width: 0px; fill: rgb(38, 131, 198); fill-opacity: 0.9;"/><path class="point" transform="translate(23.6,215.29)" d="M2.5,0A2.5,2.5 0 1,1 0,-2.5A2.5,2.5 0 0,1 2.5,0Z" style="opacity: 1; stroke-width: 0px; fill: rgb(38, 131, 198); fill-opacity: 0.9;"/><path class="point" transform="translate(27.25,226.75)" d="M2.5,0A2.5,2.5 0 1,1 0,-2.5A2.5,2.5 0 0,1 2.5,0Z" style="opacity: 1; stroke-width: 0px; fill: rgb(38, 131, 198); fill-opacity: 0.9;"/><path class="point" transform="translate(32.12,232.76)" d="M2.5,0A2.5,2.5 0 1,1 0,-2.5A2.5,2.5 0 0,1 2.5,0Z" style="opacity: 1; stroke-width: 0px; fill: rgb(38, 131, 198); fill-opacity: 0.9;"/><path class="point" transform="translate(36.99,246.44)" d="M2.5,0A2.5,2.5 0 1,1 0,-2.5A2.5,2.5 0 0,1 2.5,0Z" style="opacity: 1; stroke-width: 0px; fill: rgb(38, 131, 198); fill-opacity: 0.9;"/><path class="point" transform="translate(41.85,243.21)" d="M2.5,0A2.5,2.5 0 1,1 0,-2.5A2.5,2.5 0 0,1 2.5,0Z" style="opacity: 1; stroke-width: 0px; fill: rgb(38, 131, 198); fill-opacity: 0.9;"/><path class="point" transform="translate(46.72,233.1)" d="M2.5,0A2.5,2.5 0 1,1 0,-2.5A2.5,2.5 0 0,1 2.5,0Z" style="opacity: 1; stroke-width: 0px; fill: rgb(38, 131, 198); fill-opacity: 0.9;"/><path class="point" transform="translate(52.56,209.03)" d="M2.5,0A2.5,2.5 0 1,1 0,-2.5A2.5,2.5 0 0,1 2.5,0Z" style="opacity: 1; stroke-width: 0px; fill: rgb(38, 131, 198); fill-opacity: 0.9;"/><path class="point" transform="translate(56.45,197.42)" d="M2.5,0A2.5,2.5 0 1,1 0,-2.5A2.5,2.5 0 0,1 2.5,0Z" style="opacity: 1; stroke-width: 0px; fill: rgb(38, 131, 198); fill-opacity: 0.9;"/><path class="point" transform="translate(61.08,199.34)" d="M2.5,0A2.5,2.5 0 1,1 0,-2.5A2.5,2.5 0 0,1 2.5,0Z" style="opacity: 1; stroke-width: 0px; fill: rgb(38, 131, 198); fill-opacity: 0.9;"/><path class="point" transform="translate(65.7,201.51)" d="M2.5,0A2.5,2.5 0 1,1 0,-2.5A2.5,2.5 0 0,1 2.5,0Z" style="opacity: 1; stroke-width: 0px; fill: rgb(38, 131, 198); fill-opacity: 0.9;"/><path class="point" transform="translate(70.81,202.08)" d="M2.5,0A2.5,2.5 0 1,1 0,-2.5A2.5,2.5 0 0,1 2.5,0Z" style="opacity: 1; stroke-width: 0px; fill: rgb(38, 131, 198); fill-opacity: 0.9;"/><path class="point" transform="translate(75.43,189.57)" d="M2.5,0A2.5,2.5 0 1,1 0,-2.5A2.5,2.5 0 0,1 2.5,0Z" style="opacity: 1; stroke-width: 0px; fill: rgb(38, 131, 198); fill-opacity: 0.9;"/><path class="point" transform="translate(80.54,183.33)" d="M2.5,0A2.5,2.5 0 1,1 0,-2.5A2.5,2.5 0 0,1 2.5,0Z" style="opacity: 1; stroke-width: 0px; fill: rgb(38, 131, 198); fill-opacity: 0.9;"/><path class="point" transform="translate(85.41,171.25)" d="M2.5,0A2.5,2.5 0 1,1 0,-2.5A2.5,2.5 0 0,1 2.5,0Z" style="opacity: 1; stroke-width: 0px; fill: rgb(38, 131, 198); fill-opacity: 0.9;"/><path class="point" transform="translate(90.28,172.58)" d="M2.5,0A2.5,2.5 0 1,1 0,-2.5A2.5,2.5 0 0,1 2.5,0Z" style="opacity: 1; stroke-width: 0px; fill: rgb(38, 131, 198); fill-opacity: 0.9;"/><path class="point" transform="translate(95.14,160.8)" d="M2.5,0A2.5,2.5 0 1,1 0,-2.5A2.5,2.5 0 0,1 2.5,0Z" style="opacity: 1; stroke-width: 0px; fill: rgb(38, 131, 198); fill-opacity: 0.9;"/><path class="point" transform="translate(100.01,152.42)" d="M2.5,0A2.5,2.5 0 1,1 0,-2.5A2.5,2.5 0 0,1 2.5,0Z" style="opacity: 1; stroke-width: 0px; fill: rgb(38, 131, 198); fill-opacity: 0.9;"/><path class="point" transform="translate(104.63,153.8)" d="M2.5,0A2.5,2.5 0 1,1 0,-2.5A2.5,2.5 0 0,1 2.5,0Z" style="opacity: 1; stroke-width: 0px; fill: rgb(38, 131, 198); fill-opacity: 0.9;"/><path class="point" transform="translate(109.99,158.34)" d="M2.5,0A2.5,2.5 0 1,1 0,-2.5A2.5,2.5 0 0,1 2.5,0Z" style="opacity: 1; stroke-width: 0px; fill: rgb(38, 131, 198); fill-opacity: 0.9;"/><path class="point" transform="translate(115.1,163.17)" d="M2.5,0A2.5,2.5 0 1,1 0,-2.5A2.5,2.5 0 0,1 2.5,0Z" style="opacity: 1; stroke-width: 0px; fill: rgb(38, 131, 198); fill-opacity: 0.9;"/><path class="point" transform="translate(120.21,150.16)" d="M2.5,0A2.5,2.5 0 1,1 0,-2.5A2.5,2.5 0 0,1 2.5,0Z" style="opacity: 1; stroke-width: 0px; fill: rgb(38, 131, 198); fill-opacity: 0.9;"/><path class="point" transform="translate(141.86,144.74)" d="M2.5,0A2.5,2.5 0 1,1 0,-2.5A2.5,2.5 0 0,1 2.5,0Z" style="opacity: 1; stroke-width: 0px; fill: rgb(38, 131, 198); fill-opacity: 0.9;"/><path class="point" transform="translate(164.01,128.33)" d="M2.5,0A2.5,2.5 0 1,1 0,-2.5A2.5,2.5 0 0,1 2.5,0Z" style="opacity: 1; stroke-width: 0px; fill: rgb(38, 131, 198); fill-opacity: 0.9;"/><path class="point" transform="translate(169.12,138.22)" d="M2.5,0A2.5,2.5 0 1,1 0,-2.5A2.5,2.5 0 0,1 2.5,0Z" style="opacity: 1; stroke-width: 0px; fill: rgb(38, 131, 198); fill-opacity: 0.9;"/><path class="point" transform="translate(173.98,131.31)" d="M2.5,0A2.5,2.5 0 1,1 0,-2.5A2.5,2.5 0 0,1 2.5,0Z" style="opacity: 1; stroke-width: 0px; fill: rgb(38, 131, 198); fill-opacity: 0.9;"/><path class="point" transform="translate(178.85,121.26)" d="M2.5,0A2.5,2.5 0 1,1 0,-2.5A2.5,2.5 0 0,1 2.5,0Z" style="opacity: 1; stroke-width: 0px; fill: rgb(38, 131, 198); fill-opacity: 0.9;"/><path class="point" transform="translate(183.23,118.17)" d="M2.5,0A2.5,2.5 0 1,1 0,-2.5A2.5,2.5 0 0,1 2.5,0Z" style="opacity: 1; stroke-width: 0px; fill: rgb(38, 131, 198); fill-opacity: 0.9;"/><path class="point" transform="translate(187.85,119.92)" d="M2.5,0A2.5,2.5 0 1,1 0,-2.5A2.5,2.5 0 0,1 2.5,0Z" style="opacity: 1; stroke-width: 0px; fill: rgb(38, 131, 198); fill-opacity: 0.9;"/><path class="point" transform="translate(192.48,123.34)" d="M2.5,0A2.5,2.5 0 1,1 0,-2.5A2.5,2.5 0 0,1 2.5,0Z" style="opacity: 1; stroke-width: 0px; fill: rgb(38, 131, 198); fill-opacity: 0.9;"/><path class="point" transform="translate(196.86,124.4)" d="M2.5,0A2.5,2.5 0 1,1 0,-2.5A2.5,2.5 0 0,1 2.5,0Z" style="opacity: 1; stroke-width: 0px; fill: rgb(38, 131, 198); fill-opacity: 0.9;"/><path class="point" transform="translate(201.24,125.91)" d="M2.5,0A2.5,2.5 0 1,1 0,-2.5A2.5,2.5 0 0,1 2.5,0Z" style="opacity: 1; stroke-width: 0px; fill: rgb(38, 131, 198); fill-opacity: 0.9;"/><path class="point" transform="translate(206.1,129.81)" d="M2.5,0A2.5,2.5 0 1,1 0,-2.5A2.5,2.5 0 0,1 2.5,0Z" style="opacity: 1; stroke-width: 0px; fill: rgb(38, 131, 198); fill-opacity: 0.9;"/><path class="point" transform="translate(210.97,122.41)" d="M2.5,0A2.5,2.5 0 1,1 0,-2.5A2.5,2.5 0 0,1 2.5,0Z" style="opacity: 1; stroke-width: 0px; fill: rgb(38, 131, 198); fill-opacity: 0.9;"/><path class="point" transform="translate(215.11,110.46)" d="M2.5,0A2.5,2.5 0 1,1 0,-2.5A2.5,2.5 0 0,1 2.5,0Z" style="opacity: 1; stroke-width: 0px; fill: rgb(38, 131, 198); fill-opacity: 0.9;"/><path class="point" transform="translate(219.49,106.15)" d="M2.5,0A2.5,2.5 0 1,1 0,-2.5A2.5,2.5 0 0,1 2.5,0Z" style="opacity: 1; stroke-width: 0px; fill: rgb(38, 131, 198); fill-opacity: 0.9;"/><path class="point" transform="translate(224.11,112.93)" d="M2.5,0A2.5,2.5 0 1,1 0,-2.5A2.5,2.5 0 0,1 2.5,0Z" style="opacity: 1; stroke-width: 0px; fill: rgb(38, 131, 198); fill-opacity: 0.9;"/><path class="point" transform="translate(228.49,121.33)" d="M2.5,0A2.5,2.5 0 1,1 0,-2.5A2.5,2.5 0 0,1 2.5,0Z" style="opacity: 1; stroke-width: 0px; fill: rgb(38, 131, 198); fill-opacity: 0.9;"/><path class="point" transform="translate(233.36,126.7)" d="M2.5,0A2.5,2.5 0 1,1 0,-2.5A2.5,2.5 0 0,1 2.5,0Z" style="opacity: 1; stroke-width: 0px; fill: rgb(38, 131, 198); fill-opacity: 0.9;"/><path class="point" transform="translate(237.98,119.66)" d="M2.5,0A2.5,2.5 0 1,1 0,-2.5A2.5,2.5 0 0,1 2.5,0Z" style="opacity: 1; stroke-width: 0px; fill: rgb(38, 131, 198); fill-opacity: 0.9;"/><path class="point" transform="translate(242.12,112.57)" d="M2.5,0A2.5,2.5 0 1,1 0,-2.5A2.5,2.5 0 0,1 2.5,0Z" style="opacity: 1; stroke-width: 0px; fill: rgb(38, 131, 198); fill-opacity: 0.9;"/><path class="point" transform="translate(246.5,101.79)" d="M2.5,0A2.5,2.5 0 1,1 0,-2.5A2.5,2.5 0 0,1 2.5,0Z" style="opacity: 1; stroke-width: 0px; fill: rgb(38, 131, 198); fill-opacity: 0.9;"/><path class="point" transform="translate(250.88,104.87)" d="M2.5,0A2.5,2.5 0 1,1 0,-2.5A2.5,2.5 0 0,1 2.5,0Z" style="opacity: 1; stroke-width: 0px; fill: rgb(38, 131, 198); fill-opacity: 0.9;"/><path class="point" transform="translate(255.5,108.3)" d="M2.5,0A2.5,2.5 0 1,1 0,-2.5A2.5,2.5 0 0,1 2.5,0Z" style="opacity: 1; stroke-width: 0px; fill: rgb(38, 131, 198); fill-opacity: 0.9;"/><path class="point" transform="translate(259.88,114.33)" d="M2.5,0A2.5,2.5 0 1,1 0,-2.5A2.5,2.5 0 0,1 2.5,0Z" style="opacity: 1; stroke-width: 0px; fill: rgb(38, 131, 198); fill-opacity: 0.9;"/><path class="point" transform="translate(264.26,119.22)" d="M2.5,0A2.5,2.5 0 1,1 0,-2.5A2.5,2.5 0 0,1 2.5,0Z" style="opacity: 1; stroke-width: 0px; fill: rgb(38, 131, 198); fill-opacity: 0.9;"/><path class="point" transform="translate(268.64,124.01)" d="M2.5,0A2.5,2.5 0 1,1 0,-2.5A2.5,2.5 0 0,1 2.5,0Z" style="opacity: 1; stroke-width: 0px; fill: rgb(38, 131, 198); fill-opacity: 0.9;"/><path class="point" transform="translate(273.26,126.9)" d="M2.5,0A2.5,2.5 0 1,1 0,-2.5A2.5,2.5 0 0,1 2.5,0Z" style="opacity: 1; stroke-width: 0px; fill: rgb(38, 131, 198); fill-opacity: 0.9;"/><path class="point" transform="translate(277.64,127.85)" d="M2.5,0A2.5,2.5 0 1,1 0,-2.5A2.5,2.5 0 0,1 2.5,0Z" style="opacity: 1; stroke-width: 0px; fill: rgb(38, 131, 198); fill-opacity: 0.9;"/><path class="point" transform="translate(282.27,124.6)" d="M2.5,0A2.5,2.5 0 1,1 0,-2.5A2.5,2.5 0 0,1 2.5,0Z" style="opacity: 1; stroke-width: 0px; fill: rgb(38, 131, 198); fill-opacity: 0.9;"/><path class="point" transform="translate(286.65,117.74)" d="M2.5,0A2.5,2.5 0 1,1 0,-2.5A2.5,2.5 0 0,1 2.5,0Z" style="opacity: 1; stroke-width: 0px; fill: rgb(38, 131, 198); fill-opacity: 0.9;"/><path class="point" transform="translate(290.78,110.94)" d="M2.5,0A2.5,2.5 0 1,1 0,-2.5A2.5,2.5 0 0,1 2.5,0Z" style="opacity: 1; stroke-width: 0px; fill: rgb(38, 131, 198); fill-opacity: 0.9;"/><path class="point" transform="translate(295.16,110.37)" d="M2.5,0A2.5,2.5 0 1,1 0,-2.5A2.5,2.5 0 0,1 2.5,0Z" style="opacity: 1; stroke-width: 0px; fill: rgb(38, 131, 198); fill-opacity: 0.9;"/><path class="point" transform="translate(299.79,120.15)" d="M2.5,0A2.5,2.5 0 1,1 0,-2.5A2.5,2.5 0 0,1 2.5,0Z" style="opacity: 1; stroke-width: 0px; fill: rgb(38, 131, 198); fill-opacity: 0.9;"/><path class="point" transform="translate(304.17,125.16)" d="M2.5,0A2.5,2.5 0 1,1 0,-2.5A2.5,2.5 0 0,1 2.5,0Z" style="opacity: 1; stroke-width: 0px; fill: rgb(38, 131, 198); fill-opacity: 0.9;"/><path class="point" transform="translate(308.79,130.95)" d="M2.5,0A2.5,2.5 0 1,1 0,-2.5A2.5,2.5 0 0,1 2.5,0Z" style="opacity: 1; stroke-width: 0px; fill: rgb(38, 131, 198); fill-opacity: 0.9;"/><path class="point" transform="translate(338.96,121.44)" d="M2.5,0A2.5,2.5 0 1,1 0,-2.5A2.5,2.5 0 0,1 2.5,0Z" style="opacity: 1; stroke-width: 0px; fill: rgb(38, 131, 198); fill-opacity: 0.9;"/><path class="point" transform="translate(343.83,111.82)" d="M2.5,0A2.5,2.5 0 1,1 0,-2.5A2.5,2.5 0 0,1 2.5,0Z" style="opacity: 1; stroke-width: 0px; fill: rgb(38, 131, 198); fill-opacity: 0.9;"/><path class="point" transform="translate(348.21,109.24)" d="M2.5,0A2.5,2.5 0 1,1 0,-2.5A2.5,2.5 0 0,1 2.5,0Z" style="opacity: 1; stroke-width: 0px; fill: rgb(38, 131, 198); fill-opacity: 0.9;"/><path class="point" transform="translate(352.59,100.48)" d="M2.5,0A2.5,2.5 0 1,1 0,-2.5A2.5,2.5 0 0,1 2.5,0Z" style="opacity: 1; stroke-width: 0px; fill: rgb(38, 131, 198); fill-opacity: 0.9;"/><path class="point" transform="translate(357.21,105.02)" d="M2.5,0A2.5,2.5 0 1,1 0,-2.5A2.5,2.5 0 0,1 2.5,0Z" style="opacity: 1; stroke-width: 0px; fill: rgb(38, 131, 198); fill-opacity: 0.9;"/><path class="point" transform="translate(361.59,111.91)" d="M2.5,0A2.5,2.5 0 1,1 0,-2.5A2.5,2.5 0 0,1 2.5,0Z" style="opacity: 1; stroke-width: 0px; fill: rgb(38, 131, 198); fill-opacity: 0.9;"/><path class="point" transform="translate(366.22,119.74)" d="M2.5,0A2.5,2.5 0 1,1 0,-2.5A2.5,2.5 0 0,1 2.5,0Z" style="opacity: 1; stroke-width: 0px; fill: rgb(38, 131, 198); fill-opacity: 0.9;"/><path class="point" transform="translate(371.08,116.99)" d="M2.5,0A2.5,2.5 0 1,1 0,-2.5A2.5,2.5 0 0,1 2.5,0Z" style="opacity: 1; stroke-width: 0px; fill: rgb(38, 131, 198); fill-opacity: 0.9;"/><path class="point" transform="translate(375.46,115.03)" d="M2.5,0A2.5,2.5 0 1,1 0,-2.5A2.5,2.5 0 0,1 2.5,0Z" style="opacity: 1; stroke-width: 0px; fill: rgb(38, 131, 198); fill-opacity: 0.9;"/><path class="point" transform="translate(380.09,109.51)" d="M2.5,0A2.5,2.5 0 1,1 0,-2.5A2.5,2.5 0 0,1 2.5,0Z" style="opacity: 1; stroke-width: 0px; fill: rgb(38, 131, 198); fill-opacity: 0.9;"/><path class="point" transform="translate(384.47,120.71)" d="M2.5,0A2.5,2.5 0 1,1 0,-2.5A2.5,2.5 0 0,1 2.5,0Z" style="opacity: 1; stroke-width: 0px; fill: rgb(38, 131, 198); fill-opacity: 0.9;"/><path class="point" transform="translate(389.58,116.16)" d="M2.5,0A2.5,2.5 0 1,1 0,-2.5A2.5,2.5 0 0,1 2.5,0Z" style="opacity: 1; stroke-width: 0px; fill: rgb(38, 131, 198); fill-opacity: 0.9;"/><path class="point" transform="translate(393.96,113.45)" d="M2.5,0A2.5,2.5 0 1,1 0,-2.5A2.5,2.5 0 0,1 2.5,0Z" style="opacity: 1; stroke-width: 0px; fill: rgb(38, 131, 198); fill-opacity: 0.9;"/><path class="point" transform="translate(398.34,104.07)" d="M2.5,0A2.5,2.5 0 1,1 0,-2.5A2.5,2.5 0 0,1 2.5,0Z" style="opacity: 1; stroke-width: 0px; fill: rgb(38, 131, 198); fill-opacity: 0.9;"/><path class="point" transform="translate(403.2,106.92)" d="M2.5,0A2.5,2.5 0 1,1 0,-2.5A2.5,2.5 0 0,1 2.5,0Z" style="opacity: 1; stroke-width: 0px; fill: rgb(38, 131, 198); fill-opacity: 0.9;"/><path class="point" transform="translate(407.83,106.87)" d="M2.5,0A2.5,2.5 0 1,1 0,-2.5A2.5,2.5 0 0,1 2.5,0Z" style="opacity: 1; stroke-width: 0px; fill: rgb(38, 131, 198); fill-opacity: 0.9;"/><path class="point" transform="translate(430.46,108.03)" d="M2.5,0A2.5,2.5 0 1,1 0,-2.5A2.5,2.5 0 0,1 2.5,0Z" style="opacity: 1; stroke-width: 0px; fill: rgb(38, 131, 198); fill-opacity: 0.9;"/><path class="point" transform="translate(435.08,103.15)" d="M2.5,0A2.5,2.5 0 1,1 0,-2.5A2.5,2.5 0 0,1 2.5,0Z" style="opacity: 1; stroke-width: 0px; fill: rgb(38, 131, 198); fill-opacity: 0.9;"/><path class="point" transform="translate(439.7,102.15)" d="M2.5,0A2.5,2.5 0 1,1 0,-2.5A2.5,2.5 0 0,1 2.5,0Z" style="opacity: 1; stroke-width: 0px; fill: rgb(38, 131, 198); fill-opacity: 0.9;"/><path class="point" transform="translate(444.33,105.48)" d="M2.5,0A2.5,2.5 0 1,1 0,-2.5A2.5,2.5 0 0,1 2.5,0Z" style="opacity: 1; stroke-width: 0px; fill: rgb(38, 131, 198); fill-opacity: 0.9;"/><path class="point" transform="translate(448.71,107.96)" d="M2.5,0A2.5,2.5 0 1,1 0,-2.5A2.5,2.5 0 0,1 2.5,0Z" style="opacity: 1; stroke-width: 0px; fill: rgb(38, 131, 198); fill-opacity: 0.9;"/><path class="point" transform="translate(453.09,110.71)" d="M2.5,0A2.5,2.5 0 1,1 0,-2.5A2.5,2.5 0 0,1 2.5,0Z" style="opacity: 1; stroke-width: 0px; fill: rgb(38, 131, 198); fill-opacity: 0.9;"/><path class="point" transform="translate(457.47,102.36)" d="M2.5,0A2.5,2.5 0 1,1 0,-2.5A2.5,2.5 0 0,1 2.5,0Z" style="opacity: 1; stroke-width: 0px; fill: rgb(38, 131, 198); fill-opacity: 0.9;"/><path class="point" transform="translate(461.85,104.71)" d="M2.5,0A2.5,2.5 0 1,1 0,-2.5A2.5,2.5 0 0,1 2.5,0Z" style="opacity: 1; stroke-width: 0px; fill: rgb(38, 131, 198); fill-opacity: 0.9;"/><path class="point" transform="translate(466.47,102.51)" d="M2.5,0A2.5,2.5 0 1,1 0,-2.5A2.5,2.5 0 0,1 2.5,0Z" style="opacity: 1; stroke-width: 0px; fill: rgb(38, 131, 198); fill-opacity: 0.9;"/><path class="point" transform="translate(471.34,107.08)" d="M2.5,0A2.5,2.5 0 1,1 0,-2.5A2.5,2.5 0 0,1 2.5,0Z" style="opacity: 1; stroke-width: 0px; fill: rgb(38, 131, 198); fill-opacity: 0.9;"/><path class="point" transform="translate(475.96,99.44)" d="M2.5,0A2.5,2.5 0 1,1 0,-2.5A2.5,2.5 0 0,1 2.5,0Z" style="opacity: 1; stroke-width: 0px; fill: rgb(38, 131, 198); fill-opacity: 0.9;"/><path class="point" transform="translate(480.34,94.39)" d="M2.5,0A2.5,2.5 0 1,1 0,-2.5A2.5,2.5 0 0,1 2.5,0Z" style="opacity: 1; stroke-width: 0px; fill: rgb(38, 131, 198); fill-opacity: 0.9;"/><path class="point" transform="translate(484.96,89.6)" d="M2.5,0A2.5,2.5 0 1,1 0,-2.5A2.5,2.5 0 0,1 2.5,0Z" style="opacity: 1; stroke-width: 0px; fill: rgb(38, 131, 198); fill-opacity: 0.9;"/><path class="point" transform="translate(489.34,91.04)" d="M2.5,0A2.5,2.5 0 1,1 0,-2.5A2.5,2.5 0 0,1 2.5,0Z" style="opacity: 1; stroke-width: 0px; fill: rgb(38, 131, 198); fill-opacity: 0.9;"/><path class="point" transform="translate(507.35,98.77)" d="M2.5,0A2.5,2.5 0 1,1 0,-2.5A2.5,2.5 0 0,1 2.5,0Z" style="opacity: 1; stroke-width: 0px; fill: rgb(38, 131, 198); fill-opacity: 0.9;"/><path class="point" transform="translate(511.97,103.55)" d="M2.5,0A2.5,2.5 0 1,1 0,-2.5A2.5,2.5 0 0,1 2.5,0Z" style="opacity: 1; stroke-width: 0px; fill: rgb(38, 131, 198); fill-opacity: 0.9;"/><path class="point" transform="translate(516.11,100.3)" d="M2.5,0A2.5,2.5 0 1,1 0,-2.5A2.5,2.5 0 0,1 2.5,0Z" style="opacity: 1; stroke-width: 0px; fill: rgb(38, 131, 198); fill-opacity: 0.9;"/><path class="point" transform="translate(520.73,95.86)" d="M2.5,0A2.5,2.5 0 1,1 0,-2.5A2.5,2.5 0 0,1 2.5,0Z" style="opacity: 1; stroke-width: 0px; fill: rgb(38, 131, 198); fill-opacity: 0.9;"/><path class="point" transform="translate(525.11,95.79)" d="M2.5,0A2.5,2.5 0 1,1 0,-2.5A2.5,2.5 0 0,1 2.5,0Z" style="opacity: 1; stroke-width: 0px; fill: rgb(38, 131, 198); fill-opacity: 0.9;"/><path class="point" transform="translate(529.25,99.26)" d="M2.5,0A2.5,2.5 0 1,1 0,-2.5A2.5,2.5 0 0,1 2.5,0Z" style="opacity: 1; stroke-width: 0px; fill: rgb(38, 131, 198); fill-opacity: 0.9;"/><path class="point" transform="translate(533.87,101.88)" d="M2.5,0A2.5,2.5 0 1,1 0,-2.5A2.5,2.5 0 0,1 2.5,0Z" style="opacity: 1; stroke-width: 0px; fill: rgb(38, 131, 198); fill-opacity: 0.9;"/><path class="point" transform="translate(538.5,101.34)" d="M2.5,0A2.5,2.5 0 1,1 0,-2.5A2.5,2.5 0 0,1 2.5,0Z" style="opacity: 1; stroke-width: 0px; fill: rgb(38, 131, 198); fill-opacity: 0.9;"/><path class="point" transform="translate(542.88,93.98)" d="M2.5,0A2.5,2.5 0 1,1 0,-2.5A2.5,2.5 0 0,1 2.5,0Z" style="opacity: 1; stroke-width: 0px; fill: rgb(38, 131, 198); fill-opacity: 0.9;"/><path class="point" transform="translate(547.5,97.75)" d="M2.5,0A2.5,2.5 0 1,1 0,-2.5A2.5,2.5 0 0,1 2.5,0Z" style="opacity: 1; stroke-width: 0px; fill: rgb(38, 131, 198); fill-opacity: 0.9;"/><path class="point" transform="translate(552.12,100.37)" d="M2.5,0A2.5,2.5 0 1,1 0,-2.5A2.5,2.5 0 0,1 2.5,0Z" style="opacity: 1; stroke-width: 0px; fill: rgb(38, 131, 198); fill-opacity: 0.9;"/><path class="point" transform="translate(556.5,99.72)" d="M2.5,0A2.5,2.5 0 1,1 0,-2.5A2.5,2.5 0 0,1 2.5,0Z" style="opacity: 1; stroke-width: 0px; fill: rgb(38, 131, 198); fill-opacity: 0.9;"/><path class="point" transform="translate(560.88,98.81)" d="M2.5,0A2.5,2.5 0 1,1 0,-2.5A2.5,2.5 0 0,1 2.5,0Z" style="opacity: 1; stroke-width: 0px; fill: rgb(38, 131, 198); fill-opacity: 0.9;"/><path class="point" transform="translate(565.51,97.73)" d="M2.5,0A2.5,2.5 0 1,1 0,-2.5A2.5,2.5 0 0,1 2.5,0Z" style="opacity: 1; stroke-width: 0px; fill: rgb(38, 131, 198); fill-opacity: 0.9;"/><path class="point" transform="translate(569.89,105.9)" d="M2.5,0A2.5,2.5 0 1,1 0,-2.5A2.5,2.5 0 0,1 2.5,0Z" style="opacity: 1; stroke-width: 0px; fill: rgb(38, 131, 198); fill-opacity: 0.9;"/><path class="point" transform="translate(574.51,100.64)" d="M2.5,0A2.5,2.5 0 1,1 0,-2.5A2.5,2.5 0 0,1 2.5,0Z" style="opacity: 1; stroke-width: 0px; fill: rgb(38, 131, 198); fill-opacity: 0.9;"/><path class="point" transform="translate(578.89,105.36)" d="M2.5,0A2.5,2.5 0 1,1 0,-2.5A2.5,2.5 0 0,1 2.5,0Z" style="opacity: 1; stroke-width: 0px; fill: rgb(38, 131, 198); fill-opacity: 0.9;"/><path class="point" transform="translate(583.51,105.13)" d="M2.5,0A2.5,2.5 0 1,1 0,-2.5A2.5,2.5 0 0,1 2.5,0Z" style="opacity: 1; stroke-width: 0px; fill: rgb(38, 131, 198); fill-opacity: 0.9;"/><path class="point" transform="translate(587.89,102.56)" d="M2.5,0A2.5,2.5 0 1,1 0,-2.5A2.5,2.5 0 0,1 2.5,0Z" style="opacity: 1; stroke-width: 0px; fill: rgb(38, 131, 198); fill-opacity: 0.9;"/><path class="point" transform="translate(592.03,101.27)" d="M2.5,0A2.5,2.5 0 1,1 0,-2.5A2.5,2.5 0 0,1 2.5,0Z" style="opacity: 1; stroke-width: 0px; fill: rgb(38, 131, 198); fill-opacity: 0.9;"/><path class="point" transform="translate(596.65,109.27)" d="M2.5,0A2.5,2.5 0 1,1 0,-2.5A2.5,2.5 0 0,1 2.5,0Z" style="opacity: 1; stroke-width: 0px; fill: rgb(38, 131, 198); fill-opacity: 0.9;"/><path class="point" transform="translate(617.82,121.15)" d="M2.5,0A2.5,2.5 0 1,1 0,-2.5A2.5,2.5 0 0,1 2.5,0Z" style="opacity: 1; stroke-width: 0px; fill: rgb(38, 131, 198); fill-opacity: 0.9;"/><path class="point" transform="translate(622.2,101.73)" d="M2.5,0A2.5,2.5 0 1,1 0,-2.5A2.5,2.5 0 0,1 2.5,0Z" style="opacity: 1; stroke-width: 0px; fill: rgb(38, 131, 198); fill-opacity: 0.9;"/><path class="point" transform="translate(626.58,108.02)" d="M2.5,0A2.5,2.5 0 1,1 0,-2.5A2.5,2.5 0 0,1 2.5,0Z" style="opacity: 1; stroke-width: 0px; fill: rgb(38, 131, 198); fill-opacity: 0.9;"/><path class="point" transform="translate(631.45,114.03)" d="M2.5,0A2.5,2.5 0 1,1 0,-2.5A2.5,2.5 0 0,1 2.5,0Z" style="opacity: 1; stroke-width: 0px; fill: rgb(38, 131, 198); fill-opacity: 0.9;"/><path class="point" transform="translate(635.83,117.67)" d="M2.5,0A2.5,2.5 0 1,1 0,-2.5A2.5,2.5 0 0,1 2.5,0Z" style="opacity: 1; stroke-width: 0px; fill: rgb(38, 131, 198); fill-opacity: 0.9;"/><path class="point" transform="translate(640.45,113.26)" d="M2.5,0A2.5,2.5 0 1,1 0,-2.5A2.5,2.5 0 0,1 2.5,0Z" style="opacity: 1; stroke-width: 0px; fill: rgb(38, 131, 198); fill-opacity: 0.9;"/><path class="point" transform="translate(644.83,113.18)" d="M2.5,0A2.5,2.5 0 1,1 0,-2.5A2.5,2.5 0 0,1 2.5,0Z" style="opacity: 1; stroke-width: 0px; fill: rgb(38, 131, 198); fill-opacity: 0.9;"/><path class="point" transform="translate(649.46,115.16)" d="M2.5,0A2.5,2.5 0 1,1 0,-2.5A2.5,2.5 0 0,1 2.5,0Z" style="opacity: 1; stroke-width: 0px; fill: rgb(38, 131, 198); fill-opacity: 0.9;"/><path class="point" transform="translate(653.59,101.73)" d="M2.5,0A2.5,2.5 0 1,1 0,-2.5A2.5,2.5 0 0,1 2.5,0Z" style="opacity: 1; stroke-width: 0px; fill: rgb(38, 131, 198); fill-opacity: 0.9;"/><path class="point" transform="translate(657.49,96.29)" d="M2.5,0A2.5,2.5 0 1,1 0,-2.5A2.5,2.5 0 0,1 2.5,0Z" style="opacity: 1; stroke-width: 0px; fill: rgb(38, 131, 198); fill-opacity: 0.9;"/><path class="point" transform="translate(661.62,86.57)" d="M2.5,0A2.5,2.5 0 1,1 0,-2.5A2.5,2.5 0 0,1 2.5,0Z" style="opacity: 1; stroke-width: 0px; fill: rgb(38, 131, 198); fill-opacity: 0.9;"/><path class="point" transform="translate(665.76,95.94)" d="M2.5,0A2.5,2.5 0 1,1 0,-2.5A2.5,2.5 0 0,1 2.5,0Z" style="opacity: 1; stroke-width: 0px; fill: rgb(38, 131, 198); fill-opacity: 0.9;"/><path class="point" transform="translate(670.38,99.29)" d="M2.5,0A2.5,2.5 0 1,1 0,-2.5A2.5,2.5 0 0,1 2.5,0Z" style="opacity: 1; stroke-width: 0px; fill: rgb(38, 131, 198); fill-opacity: 0.9;"/><path class="point" transform="translate(674.76,99.67)" d="M2.5,0A2.5,2.5 0 1,1 0,-2.5A2.5,2.5 0 0,1 2.5,0Z" style="opacity: 1; stroke-width: 0px; fill: rgb(38, 131, 198); fill-opacity: 0.9;"/><path class="point" transform="translate(678.9,101.45)" d="M2.5,0A2.5,2.5 0 1,1 0,-2.5A2.5,2.5 0 0,1 2.5,0Z" style="opacity: 1; stroke-width: 0px; fill: rgb(38, 131, 198); fill-opacity: 0.9;"/><path class="point" transform="translate(683.52,98.83)" d="M2.5,0A2.5,2.5 0 1,1 0,-2.5A2.5,2.5 0 0,1 2.5,0Z" style="opacity: 1; stroke-width: 0px; fill: rgb(38, 131, 198); fill-opacity: 0.9;"/><path class="point" transform="translate(687.9,103.91)" d="M2.5,0A2.5,2.5 0 1,1 0,-2.5A2.5,2.5 0 0,1 2.5,0Z" style="opacity: 1; stroke-width: 0px; fill: rgb(38, 131, 198); fill-opacity: 0.9;"/><path class="point" transform="translate(692.53,105.2)" d="M2.5,0A2.5,2.5 0 1,1 0,-2.5A2.5,2.5 0 0,1 2.5,0Z" style="opacity: 1; stroke-width: 0px; fill: rgb(38, 131, 198); fill-opacity: 0.9;"/><path class="point" transform="translate(696.91,112.27)" d="M2.5,0A2.5,2.5 0 1,1 0,-2.5A2.5,2.5 0 0,1 2.5,0Z" style="opacity: 1; stroke-width: 0px; fill: rgb(38, 131, 198); fill-opacity: 0.9;"/><path class="point" transform="translate(701.53,112.36)" d="M2.5,0A2.5,2.5 0 1,1 0,-2.5A2.5,2.5 0 0,1 2.5,0Z" style="opacity: 1; stroke-width: 0px; fill: rgb(38, 131, 198); fill-opacity: 0.9;"/><path class="point" transform="translate(706.4,110.83)" d="M2.5,0A2.5,2.5 0 1,1 0,-2.5A2.5,2.5 0 0,1 2.5,0Z" style="opacity: 1; stroke-width: 0px; fill: rgb(38, 131, 198); fill-opacity: 0.9;"/><path class="point" transform="translate(711.02,103.13)" d="M2.5,0A2.5,2.5 0 1,1 0,-2.5A2.5,2.5 0 0,1 2.5,0Z" style="opacity: 1; stroke-width: 0px; fill: rgb(38, 131, 198); fill-opacity: 0.9;"/><path class="point" transform="translate(715.4,98.45)" d="M2.5,0A2.5,2.5 0 1,1 0,-2.5A2.5,2.5 0 0,1 2.5,0Z" style="opacity: 1; stroke-width: 0px; fill: rgb(38, 131, 198); fill-opacity: 0.9;"/><path class="point" transform="translate(720.02,98.77)" d="M2.5,0A2.5,2.5 0 1,1 0,-2.5A2.5,2.5 0 0,1 2.5,0Z" style="opacity: 1; stroke-width: 0px; fill: rgb(38, 131, 198); fill-opacity: 0.9;"/><path class="point" transform="translate(724.65,98.34)" d="M2.5,0A2.5,2.5 0 1,1 0,-2.5A2.5,2.5 0 0,1 2.5,0Z" style="opacity: 1; stroke-width: 0px; fill: rgb(38, 131, 198); fill-opacity: 0.9;"/></g><g class="text"/></g><g class="trace scatter traceeeb4f7" style="stroke-miterlimit: 2; opacity: 1;"><g class="fills"/><g class="errorbars"/><g class="lines"><path class="js-line" d="M41.85,243.22L54.16,221.23L54.84,220.12L65.78,203.7L66.46,202.76L78.08,188.03L78.76,187.24L91.06,174.2L91.75,173.54L104.73,162.15L105.42,161.6L119.77,151.32L120.45,150.88L136.86,141.52L137.54,141.17L153.26,134.09L153.94,133.82L172.4,127.36L173.08,127.15L191.53,122.22L192.22,122.06L213.41,117.82L214.09,117.7L244.85,113.47L245.53,113.39L283.8,110.18L284.49,110.14L316.61,108.52L317.29,108.49L366.5,107.1L367.19,107.08L492.95,105.94L493.63,105.94L724.65,105.72" style="vector-effect: non-scaling-stroke; fill: none; stroke: rgb(239, 111, 106); stroke-opacity: 1; stroke-width: 2px; opacity: 1;"/></g><g class="points"/><g class="text"/></g></g></g><g class="overplot"/><path class="xlines-above crisp" d="M0,0" style="fill: none;"/><path class="ylines-above crisp" d="M0,0" style="fill: none;"/><g class="overlines-above"/><g class="xaxislayer-above"><g class="xtick"><text text-anchor="middle" x="0" y="403" transform="translate(60,0)" style="font-family: 'Open Sans', verdana, arial, sans-serif; font-size: 12px; fill: rgb(68, 68, 68); fill-opacity: 1; white-space: pre; opacity: 1;">0</text></g><g class="xtick"><text text-anchor="middle" x="0" y="403" style="font-family: 'Open Sans', verdana, arial, sans-serif; font-size: 12px; fill: rgb(68, 68, 68); fill-opacity: 1; white-space: pre; opacity: 1;" transform="translate(181.67000000000002,0)">50</text></g><g class="xtick"><text text-anchor="middle" x="0" y="403" style="font-family: 'Open Sans', verdana, arial, sans-serif; font-size: 12px; fill: rgb(68, 68, 68); fill-opacity: 1; white-space: pre; opacity: 1;" transform="translate(303.33000000000004,0)">100</text></g><g class="xtick"><text text-anchor="middle" x="0" y="403" style="font-family: 'Open Sans', verdana, arial, sans-serif; font-size: 12px; fill: rgb(68, 68, 68); fill-opacity: 1; white-space: pre; opacity: 1;" transform="translate(425,0)">150</text></g><g class="xtick"><text text-anchor="middle" x="0" y="403" style="font-family: 'Open Sans', verdana, arial, sans-serif; font-size: 12px; fill: rgb(68, 68, 68); fill-opacity: 1; white-space: pre; opacity: 1;" transform="translate(546.6700000000001,0)">200</text></g><g class="xtick"><text text-anchor="middle" x="0" y="403" style="font-family: 'Open Sans', verdana, arial, sans-serif; font-size: 12px; fill: rgb(68, 68, 68); fill-opacity: 1; white-space: pre; opacity: 1;" transform="translate(668.33,0)">250</text></g><g class="xtick"><text text-anchor="middle" x="0" y="403" style="font-family: 'Open Sans', verdana, arial, sans-serif; font-size: 12px; fill: rgb(68, 68, 68); fill-opacity: 1; white-space: pre; opacity: 1;" transform="translate(790,0)">300</text></g><g class="xtick"><text text-anchor="middle" x="0" y="403" style="font-family: 'Open Sans', verdana, arial, sans-serif; font-size: 12px; fill: rgb(68, 68, 68); fill-opacity: 1; white-space: pre; opacity: 1;" transform="translate(911.67,0)">350</text></g></g><g class="yaxislayer-above"><g class="ytick"><text text-anchor="end" x="59" y="4.199999999999999" transform="translate(0,390)" style="font-family: 'Open Sans', verdana, arial, sans-serif; font-size: 12px; fill: rgb(68, 68, 68); fill-opacity: 1; white-space: pre; opacity: 1;">0</text></g><g class="ytick"><text text-anchor="end" x="59" y="4.199999999999999" style="font-family: 'Open Sans', verdana, arial, sans-serif; font-size: 12px; fill: rgb(68, 68, 68); fill-opacity: 1; white-space: pre; opacity: 1;" transform="translate(0,336.15)">1</text></g><g class="ytick"><text text-anchor="end" x="59" y="4.199999999999999" style="font-family: 'Open Sans', verdana, arial, sans-serif; font-size: 12px; fill: rgb(68, 68, 68); fill-opacity: 1; white-space: pre; opacity: 1;" transform="translate(0,282.31)">2</text></g><g class="ytick"><text text-anchor="end" x="59" y="4.199999999999999" style="font-family: 'Open Sans', verdana, arial, sans-serif; font-size: 12px; fill: rgb(68, 68, 68); fill-opacity: 1; white-space: pre; opacity: 1;" transform="translate(0,228.46)">3</text></g><g class="ytick"><text text-anchor="end" x="59" y="4.199999999999999" style="font-family: 'Open Sans', verdana, arial, sans-serif; font-size: 12px; fill: rgb(68, 68, 68); fill-opacity: 1; white-space: pre; opacity: 1;" transform="translate(0,174.62)">4</text></g><g class="ytick"><text text-anchor="end" x="59" y="4.199999999999999" style="font-family: 'Open Sans', verdana, arial, sans-serif; font-size: 12px; fill: rgb(68, 68, 68); fill-opacity: 1; white-space: pre; opacity: 1;" transform="translate(0,120.77)">5</text></g><g class="ytick"><text text-anchor="end" x="59" y="4.199999999999999" style="font-family: 'Open Sans', verdana, arial, sans-serif; font-size: 12px; fill: rgb(68, 68, 68); fill-opacity: 1; white-space: pre; opacity: 1;" transform="translate(0,66.92)">6</text></g></g><g class="overaxes-above"/></g></g><g class="polarlayer"/><g class="smithlayer"/><g class="ternarylayer"/><g class="geolayer"/><g class="funnelarealayer"/><g class="pielayer"/><g class="iciclelayer"/><g class="treemaplayer"/><g class="sunburstlayer"/><g class="glimages"/><defs id="topdefs-04da5e"><g class="clips"/><clipPath id="legend04da5e"><rect width="134" height="48" x="0" y="0"/></clipPath></defs><g class="layer-above"><g class="imagelayer"/><g class="shapelayer"><path data-index="0" fill-rule="evenodd" d="M101.85,390L101.85,40" clip-path="url(#clip04da5exy)" style="opacity: 1; stroke: rgb(128, 128, 128); stroke-opacity: 1; fill: rgb(0, 0, 0); fill-opacity: 0; stroke-dasharray: 9px, 9px; stroke-width: 1px;"/><path data-index="1" fill-rule="evenodd" d="M172.45999999999998,390L172.45999999999998,40" clip-path="url(#clip04da5exy)" style="opacity: 1; stroke: rgb(128, 128, 128); stroke-opacity: 1; fill: rgb(0, 0, 0); fill-opacity: 0; stroke-dasharray: 9px, 9px; stroke-width: 1px;"/><path data-index="2" fill-rule="evenodd" d="M384.27,390L384.27,40" clip-path="url(#clip04da5exy)" style="opacity: 1; stroke: rgb(128, 128, 128); stroke-opacity: 1; fill: rgb(0, 0, 0); fill-opacity: 0; stroke-dasharray: 9px, 9px; stroke-width: 1px;"/><path data-index="3" fill-rule="evenodd" d="M60,365.88L936,365.88" clip-path="url(#clip04da5exy)" style="opacity: 1; stroke: rgb(128, 128, 128); stroke-opacity: 1; fill: rgb(0, 0, 0); fill-opacity: 0; stroke-dasharray: 9px, 9px; stroke-width: 1px;"/><path data-index="4" fill-rule="evenodd" d="M60,148.23000000000002L936,148.23000000000002" clip-path="url(#clip04da5exy)" style="opacity: 1; stroke: rgb(128, 128, 128); stroke-opacity: 1; fill: rgb(0, 0, 0); fill-opacity: 0; stroke-dasharray: 9px, 9px; stroke-width: 1px;"/></g></g><g class="infolayer"><g class="legend" pointer-events="all" transform="translate(953.52,40)"><rect class="bg" shape-rendering="crispEdges" style="stroke: rgb(68, 68, 68); stroke-opacity: 1; fill: rgb(255, 255, 255); fill-opacity: 1; stroke-width: 0px;" width="134" height="48" x="0" y="0"/><g class="scrollbox" transform="" clip-path="url(#legend04da5e)"><g class="groups"><g class="traces" transform="translate(0,14.5)" style="opacity: 1;"><text class="legendtext" text-anchor="start" x="40" y="4.680000000000001" style="font-family: 'Open Sans', verdana, arial, sans-serif; font-size: 12px; fill: rgb(68, 68, 68); fill-opacity: 1; white-space: pre;">V̇O​<tspan style="font-size:70%" dy="0.3em">2</tspan><tspan dy="-0.21em">​</tspan></text><g class="layers" style="opacity: 1;"><g class="legendfill"/><g class="legendlines"><path class="js-line" d="M5,0h30" style="fill: none; stroke: rgb(38, 131, 198); stroke-opacity: 1; stroke-dasharray: 4, 4; stroke-width: 0.65px;"/></g><g class="legendsymbols"><g class="legendpoints"><path class="scatterpts" transform="translate(20,0)" d="M2.5,0A2.5,2.5 0 1,1 0,-2.5A2.5,2.5 0 0,1 2.5,0Z" style="opacity: 1; stroke-width: 0px; fill: rgb(38, 131, 198); fill-opacity: 0.9;"/></g></g></g><rect class="legendtoggle" x="0" y="-9.5" width="128.015625" height="19" style="fill: rgb(0, 0, 0); fill-opacity: 0;"/></g><g class="traces" transform="translate(0,33.5)" style="opacity: 1;"><text class="legendtext" text-anchor="start" x="40" y="4.680000000000001" style="font-family: 'Open Sans', verdana, arial, sans-serif; font-size: 12px; fill: rgb(68, 68, 68); fill-opacity: 1; white-space: pre;">Modellfunktion</text><g class="layers" style="opacity: 1;"><g class="legendfill"/><g class="legendlines"><path class="js-line" d="M5,0h30" style="fill: none; stroke: rgb(239, 111, 106); stroke-opacity: 1; stroke-width: 2px;"/></g><g class="legendsymbols"><g class="legendpoints"/></g></g><rect class="legendtoggle" x="0" y="-9.5" width="128.015625" height="19" style="fill: rgb(0, 0, 0); fill-opacity: 0;"/></g></g></g><rect class="scrollbar" rx="20" ry="3" width="0" height="0" style="fill: rgb(128, 139, 164); fill-opacity: 1;" x="0" y="0"/></g><g class="g-gtitle"><text class="gtitle" x="550" y="20" text-anchor="middle" dy="0em" style="font-family: 'Open Sans', verdana, arial, sans-serif; font-size: 17px; fill: rgb(68, 68, 68); opacity: 1; font-weight: normal; white-space: pre;">V̇O₂ für Test_10_1_stehen_leicht</text></g><g class="g-xtitle"><text class="xtitle" x="498" y="442" text-anchor="middle" style="font-family: 'Open Sans', verdana, arial, sans-serif; font-size: 14px; fill: rgb(68, 68, 68); opacity: 1; font-weight: normal; white-space: pre;">Zeit [s]</text></g><g class="g-ytitle"><text class="ytitle" transform="rotate(-90,22,215)" x="22" y="215" text-anchor="middle" style="font-family: 'Open Sans', verdana, arial, sans-serif; font-size: 14px; fill: rgb(68, 68, 68); opacity: 1; font-weight: normal; white-space: pre;">V̇O​<tspan style="font-size:70%" dy="0.3em">2</tspan><tspan dy="-0.21em">​</tspan> [l·min​<tspan style="font-size:70%" dy="-0.6em">-1</tspan><tspan dy="0.42em">​</tspan>]</text></g><g class="annotation" data-index="0" style="opacity: 1;"><g class="annotation-text-g" transform="rotate(-90,111.35,65.42)"><g class="cursor-pointer" transform="translate(75,56)"><rect class="bg" x="0.5" y="0.5" width="72" height="18" style="stroke-width: 1px; stroke: rgb(0, 0, 0); stroke-opacity: 0; fill: rgb(0, 0, 0); fill-opacity: 0;"/><text class="annotation-text" text-anchor="middle" x="36.203125" y="13" style="font-family: 'Open Sans', verdana, arial, sans-serif; font-size: 11px; fill: rgb(68, 68, 68); fill-opacity: 1; white-space: pre;">t​<tspan style="font-size:70%" dy="0.3em">delay</tspan><tspan dy="-0.21em">​</tspan>: 17.2 s</text></g></g></g><g class="annotation" data-index="1" style="opacity: 1;"><g class="annotation-text-g" transform="rotate(-90,180.95999999999998,74.92)"><g class="cursor-pointer" transform="translate(154,66)"><rect class="bg" x="0.5" y="0.5" width="53" height="16" style="stroke-width: 1px; stroke: rgb(0, 0, 0); stroke-opacity: 0; fill: rgb(0, 0, 0); fill-opacity: 0;"/><text class="annotation-text" text-anchor="middle" x="27.453125" y="13" style="font-family: 'Open Sans', verdana, arial, sans-serif; font-size: 11px; fill: rgb(68, 68, 68); fill-opacity: 1; white-space: pre;">τ: 29.0 s</text></g></g></g><g class="annotation" data-index="2" style="opacity: 1;"><g class="annotation-text-g" transform="rotate(-90,392.77,68.42)"><g class="cursor-pointer" transform="translate(359,60)"><rect class="bg" x="0.5" y="0.5" width="66" height="16" style="stroke-width: 1px; stroke: rgb(0, 0, 0); stroke-opacity: 0; fill: rgb(0, 0, 0); fill-opacity: 0;"/><text class="annotation-text" text-anchor="middle" x="33.453125" y="13" style="font-family: 'Open Sans', verdana, arial, sans-serif; font-size: 11px; fill: rgb(68, 68, 68); fill-opacity: 1; white-space: pre;">4τ: 116.1 s</text></g></g></g><g class="annotation" data-index="3" style="opacity: 1;"><g class="annotation-text-g" transform="rotate(0,626.98,262.53999999999996)"><g class="cursor-pointer" transform="translate(603,254)"><rect class="bg" x="0.5" y="0.5" width="46" height="17" style="stroke-width: 1px; stroke: rgb(0, 0, 0); stroke-opacity: 0; fill: rgb(0, 0, 0); fill-opacity: 0;"/><text class="annotation-text" text-anchor="middle" x="23.34375" y="13" style="font-family: Arial, sans-serif; font-size: 12px; fill: rgb(0, 0, 0); fill-opacity: 1; white-space: pre;">R²: 0.91</text></g></g></g><g class="annotation" data-index="4" style="opacity: 1;"><g class="annotation-text-g" transform="rotate(0,713.98,245.38)"><g class="cursor-pointer" transform="translate(603,235)"><rect class="bg" x="0.5" y="0.5" width="220" height="19" style="stroke-width: 1px; stroke: rgb(0, 0, 0); stroke-opacity: 0; fill: rgb(0, 0, 0); fill-opacity: 0;"/><text class="annotation-text" text-anchor="middle" x="110.421875" y="15.046875" style="font-family: Arial, sans-serif; font-size: 12px; fill: rgb(0, 0, 0); fill-opacity: 1; white-space: pre;">V̇O₂(t) = 2.55 * (1 - e​<tspan style="font-size:70%" dy="-0.6em">-(t - 17.20) / 29.02</tspan><tspan dy="0.42em">​</tspan>) + 1.98</text></g></g></g><g class="annotation" data-index="5" style="opacity: 1;"><g class="annotation-text-g" transform="rotate(0,647.48,293.85)"><g class="cursor-pointer" transform="translate(603,284)"><rect class="bg" x="0.5" y="0.5" width="87" height="19" style="stroke-width: 1px; stroke: rgb(0, 0, 0); stroke-opacity: 0; fill: rgb(0, 0, 0); fill-opacity: 0;"/><text class="annotation-text" text-anchor="middle" x="43.953125" y="13.125" style="font-family: Arial, sans-serif; font-size: 12px; fill: rgb(0, 0, 0); fill-opacity: 1; white-space: pre;">V̇O​<tspan style="font-size:70%" dy="0.3em">2net,SS</tspan><tspan dy="-0.21em">​</tspan>: 4.042</text></g></g></g><g class="annotation" data-index="6" style="opacity: 1;"><g class="annotation-text-g" transform="rotate(0,244.43,355.8)"><g class="cursor-pointer" transform="translate(205,347)"><rect class="bg" x="0.5" y="0.5" width="78" height="17" style="stroke-width: 1px; stroke: rgb(0, 0, 0); stroke-opacity: 0; fill: rgb(0, 0, 0); fill-opacity: 0;"/><text class="annotation-text" text-anchor="middle" x="40.1875" y="12" style="font-family: Arial, sans-serif; font-size: 11px; fill: rgb(0, 0, 0); fill-opacity: 1; white-space: pre;">V̇O​<tspan style="font-size:70%" dy="0.3em">2,Ruhe</tspan><tspan dy="-0.21em">​</tspan>: 0.448</text></g></g></g><g class="annotation" data-index="7" style="opacity: 1;"><g class="annotation-text-g" transform="rotate(0,246.93,138.15)"><g class="cursor-pointer" transform="translate(205,129)"><rect class="bg" x="0.5" y="0.5" width="83" height="17" style="stroke-width: 1px; stroke: rgb(0, 0, 0); stroke-opacity: 0; fill: rgb(0, 0, 0); fill-opacity: 0;"/><text class="annotation-text" text-anchor="middle" x="42.46875" y="12" style="font-family: Arial, sans-serif; font-size: 11px; fill: rgb(0, 0, 0); fill-opacity: 1; white-space: pre;">V̇O​<tspan style="font-size:70%" dy="0.3em">2gross,SS</tspan><tspan dy="-0.21em">​</tspan>: 4.49</text></g></g></g><g class="annotation" data-index="8" style="opacity: 1;"><g class="annotation-text-g" transform="rotate(0,629.98,277.69)"><g class="cursor-pointer" transform="translate(603,268)"><rect class="bg" x="0.5" y="0.5" width="52" height="19" style="stroke-width: 1px; stroke: rgb(0, 0, 0); stroke-opacity: 0; fill: rgb(0, 0, 0); fill-opacity: 0;"/><text class="annotation-text" text-anchor="middle" x="26.515625" y="13" style="font-family: Arial, sans-serif; font-size: 12px; fill: rgb(0, 0, 0); fill-opacity: 1; white-space: pre;">T​<tspan style="font-size:70%" dy="0.3em">1/2</tspan><tspan dy="-0.21em">​</tspan>: 20.1</text></g></g></g></g></svg>