<svg class="main-svg" xmlns="http://www.w3.org/2000/svg" xmlns:xlink="http://www.w3.org/1999/xlink" width="1100" height="450" style="" viewBox="0 0 1100 450"><rect x="0" y="0" width="1100" height="450" style="fill: rgb(255, 255, 255); fill-opacity: 1;"/><defs id="defs-f94f42"><g class="clips"><clipPath id="clipf94f42xyplot" class="plotclip"><rect width="876" height="350"/></clipPath><clipPath class="axesclip" id="clipf94f42x"><rect x="60" y="0" width="876" height="450"/></clipPath><clipPath class="axesclip" id="clipf94f42y"><rect x="0" y="40" width="1100" height="350"/></clipPath><clipPath class="axesclip" id="clipf94f42xy"><rect x="60" y="40" width="876" height="350"/></clipPath></g><g class="gradients"/><g class="patterns"/></defs><g class="bglayer"/><g class="layer-below"><g class="imagelayer"/><g class="shapelayer"/></g><g class="cartesianlayer"><g class="subplot xy"><g class="layer-subplot"><g class="shapelayer"/><g class="imagelayer"/></g><g class="gridlayer"><g class="x"><path class="xgrid crisp" transform="translate(181.67000000000002,0)" d="M0,40v350" style="stroke: rgb(238, 238, 238); stroke-opacity: 1; stroke-width: 1px;"/><path class="xgrid crisp" transform="translate(303.33000000000004,0)" d="M0,40v350" style="stroke: rgb(238, 238, 238); stroke-opacity: 1; stroke-width: 1px;"/><path class="xgrid crisp" transform="translate(425,0)" d="M0,40v350" style="stroke: rgb(238, 238, 238); stroke-opacity: 1; stroke-width: 1px;"/><path class="xgrid crisp" transform="translate(546.6700000000001,0)" d="M0,40v350" style="stroke: rgb(238, 238, 238); stroke-opacity: 1; stroke-width: 1px;"/><path class="xgrid crisp" transform="translate(668.33,0)" d="M0,40v350" style="stroke: rgb(238, 238, 238); stroke-opacity: 1; stroke-width: 1px;"/><path class="xgrid crisp" transform="translate(790,0)" d="M0,40v350" style="stroke: rgb(238, 238, 238); stroke-opacity: 1; stroke-width: 1px;"/><path class="xgrid crisp" transform="translate(911.67,0)" d="M0,40v350" style="stroke: rgb(238, 238, 238); stroke-opacity: 1; stroke-width: 1px;"/></g><g class="y"><path class="ygrid crisp" transform="translate(0,336.15)" d="M60,0h876" style="stroke: rgb(238, 238, 238); stroke-opacity: 1; stroke-width: 1px;"/><path class="ygrid crisp" transform="translate(0,282.31)" d="M60,0h876" style="stroke: rgb(238, 238, 238); stroke-opacity: 1; stroke-width: 1px;"/><path class="ygrid crisp" transform="translate(0,228.46)" d="M60,0h876" style="stroke: rgb(238, 238, 238); stroke-opacity: 1; stroke-width: 1px;"/><path class="ygrid crisp" transform="translate(0,174.62)" d="M60,0h876" style="stroke: rgb(238, 238, 238); stroke-opacity: 1; stroke-width: 1px;"/><path class="ygrid crisp" transform="translate(0,120.77)" d="M60,0h876" style="stroke: rgb(238, 238, 238); stroke-opacity: 1; stroke-width: 1px;"/><path class="ygrid crisp" transform="translate(0,66.92)" d="M60,0h876" style="stroke: rgb(238, 238, 238); stroke-opacity: 1; stroke-width: 1px;"/></g></g><g class="zerolinelayer"><path class="xzl zl crisp" transform="translate(60,0)" d="M0,40v350" style="stroke: rgb(68, 68, 68); stroke-opacity: 1; stroke-width: 1px;"/><path class="yzl zl crisp" transform="translate(0,390)" d="M60,0h876" style="stroke: rgb(68, 68, 68); stroke-opacity: 1; stroke-width: 1px;"/></g><path class="xlines-below"/><path class="ylines-below"/><g class="overlines-below"/><g class="xaxislayer-below"/><g class="yaxislayer-below"/><g class="overaxes-below"/><g class="plot" transform="translate(60,40)" clip-path="url(#clipf94f42xyplot)"><g class="scatterlayer mlayer"><g class="trace scatter tracec84eb7" style="stroke-miterlimit: 2; opacity: 1;"><g class="fills"/><g class="errorbars"/><g class="lines"><path class="js-line" d="M5.11,273.02L12.17,254.64L21.9,250.73L28.23,247.75L33.58,260.09L40.64,243.6L48.18,215.6L56.45,204.63L65.46,207.85L73.73,217.99L82.49,206.09L90.03,179L97.58,181.93L106.58,178.02L114.85,182.97L123.86,166.26L132.13,162.53L146.73,157.55L153.3,152.67L161.09,160.44L169.6,162.44L178.36,167.32L187.37,144.06L194.18,134.27L199.05,125.73L204.4,135.98L209.51,137.92L215.59,139.1L220.7,138.87L227.27,139.37L233.84,137.9L240.17,140.72L246.74,144.49L259.88,128.93L265.96,126.02L271.8,131.31L277.16,128.69L283.48,128.39L288.11,123.2L292.73,116.49L296.87,107.51L301.49,107.48L305.87,114.76L314.63,119.83L319.01,121.89L323.15,122.82L327.77,128.53L334.1,128.42L339.21,130.7L344.56,127.78L350.16,120.26L355.02,116L359.16,111.17L363.54,122.27L369.87,129.63L380.57,118.16L386.17,107.39L395.17,104.73L400.28,108.75L404.91,108.64L409.29,110.35L413.67,107.91L418.29,113.13L422.67,111.87L428.02,112.18L432.89,113.79L437.76,111.93L442.38,120.22L448.22,125.69L453.82,126.31L459.17,120.85L464.28,114.96L483.02,105.97L487.4,104.66L491.78,107.41L496.16,116.49L500.29,117.55L504.67,122.16L509.05,114.32L514.41,108.21L518.54,101.07L522.68,100.26L527.06,104.17L535.58,109.92L539.96,109.67L544.09,110.8L548.47,108.18L566.72,101.21L571.35,102.22L575.73,105.11L580.11,104.87L585.46,101.98L589.84,104.26L594.22,105.83L598.36,108.18L602.74,103.76L607.36,109.77L612.96,106.81L617.82,101.86L621.96,90.95L626.34,88.63L630.72,88.33L634.86,85.85L639.24,92.51L643.37,100.89L647.51,108.73L651.89,104.37L656.27,104.23L660.41,106.15L664.54,109.76L668.68,110.64L685.71,102.56L689.85,109.15L706.4,97.43L710.78,89.74L715.16,82.44L719.29,90.39L723.67,97.32L727.81,102.06" style="vector-effect: non-scaling-stroke; fill: none; stroke: rgb(38, 131, 198); stroke-opacity: 1; stroke-width: 0.65px; opacity: 1; stroke-dasharray: 4, 4;"/></g><g class="points"><path class="point" transform="translate(5.11,273.02)" d="M2.5,0A2.5,2.5 0 1,1 0,-2.5A2.5,2.5 0 0,1 2.5,0Z" style="opacity: 1; stroke-width: 0px; fill: rgb(38, 131, 198); fill-opacity: 0.9;"/><path class="point" transform="translate(12.17,254.64)" d="M2.5,0A2.5,2.5 0 1,1 0,-2.5A2.5,2.5 0 0,1 2.5,0Z" style="opacity: 1; stroke-width: 0px; fill: rgb(38, 131, 198); fill-opacity: 0.9;"/><path class="point" transform="translate(21.9,250.73)" d="M2.5,0A2.5,2.5 0 1,1 0,-2.5A2.5,2.5 0 0,1 2.5,0Z" style="opacity: 1; stroke-width: 0px; fill: rgb(38, 131, 198); fill-opacity: 0.9;"/><path class="point" transform="translate(28.23,247.75)" d="M2.5,0A2.5,2.5 0 1,1 0,-2.5A2.5,2.5 0 0,1 2.5,0Z" style="opacity: 1; stroke-width: 0px; fill: rgb(38, 131, 198); fill-opacity: 0.9;"/><path class="point" transform="translate(33.58,260.09)" d="M2.5,0A2.5,2.5 0 1,1 0,-2.5A2.5,2.5 0 0,1 2.5,0Z" style="opacity: 1; stroke-width: 0px; fill: rgb(38, 131, 198); fill-opacity: 0.9;"/><path class="point" transform="translate(40.64,243.6)" d="M2.5,0A2.5,2.5 0 1,1 0,-2.5A2.5,2.5 0 0,1 2.5,0Z" style="opacity: 1; stroke-width: 0px; fill: rgb(38, 131, 198); fill-opacity: 0.9;"/><path class="point" transform="translate(48.18,215.6)" d="M2.5,0A2.5,2.5 0 1,1 0,-2.5A2.5,2.5 0 0,1 2.5,0Z" style="opacity: 1; stroke-width: 0px; fill: rgb(38, 131, 198); fill-opacity: 0.9;"/><path class="point" transform="translate(56.45,204.63)" d="M2.5,0A2.5,2.5 0 1,1 0,-2.5A2.5,2.5 0 0,1 2.5,0Z" style="opacity: 1; stroke-width: 0px; fill: rgb(38, 131, 198); fill-opacity: 0.9;"/><path class="point" transform="translate(65.46,207.85)" d="M2.5,0A2.5,2.5 0 1,1 0,-2.5A2.5,2.5 0 0,1 2.5,0Z" style="opacity: 1; stroke-width: 0px; fill: rgb(38, 131, 198); fill-opacity: 0.9;"/><path class="point" transform="translate(73.73,217.99)" d="M2.5,0A2.5,2.5 0 1,1 0,-2.5A2.5,2.5 0 0,1 2.5,0Z" style="opacity: 1; stroke-width: 0px; fill: rgb(38, 131, 198); fill-opacity: 0.9;"/><path class="point" transform="translate(82.49,206.09)" d="M2.5,0A2.5,2.5 0 1,1 0,-2.5A2.5,2.5 0 0,1 2.5,0Z" style="opacity: 1; stroke-width: 0px; fill: rgb(38, 131, 198); fill-opacity: 0.9;"/><path class="point" transform="translate(90.03,179)" d="M2.5,0A2.5,2.5 0 1,1 0,-2.5A2.5,2.5 0 0,1 2.5,0Z" style="opacity: 1; stroke-width: 0px; fill: rgb(38, 131, 198); fill-opacity: 0.9;"/><path class="point" transform="translate(97.58,181.93)" d="M2.5,0A2.5,2.5 0 1,1 0,-2.5A2.5,2.5 0 0,1 2.5,0Z" style="opacity: 1; stroke-width: 0px; fill: rgb(38, 131, 198); fill-opacity: 0.9;"/><path class="point" transform="translate(106.58,178.02)" d="M2.5,0A2.5,2.5 0 1,1 0,-2.5A2.5,2.5 0 0,1 2.5,0Z" style="opacity: 1; stroke-width: 0px; fill: rgb(38, 131, 198); fill-opacity: 0.9;"/><path class="point" transform="translate(114.85,182.97)" d="M2.5,0A2.5,2.5 0 1,1 0,-2.5A2.5,2.5 0 0,1 2.5,0Z" style="opacity: 1; stroke-width: 0px; fill: rgb(38, 131, 198); fill-opacity: 0.9;"/><path class="point" transform="translate(123.86,166.26)" d="M2.5,0A2.5,2.5 0 1,1 0,-2.5A2.5,2.5 0 0,1 2.5,0Z" style="opacity: 1; stroke-width: 0px; fill: rgb(38, 131, 198); fill-opacity: 0.9;"/><path class="point" transform="translate(132.13,162.53)" d="M2.5,0A2.5,2.5 0 1,1 0,-2.5A2.5,2.5 0 0,1 2.5,0Z" style="opacity: 1; stroke-width: 0px; fill: rgb(38, 131, 198); fill-opacity: 0.9;"/><path class="point" transform="translate(139.67,159.91)" d="M2.5,0A2.5,2.5 0 1,1 0,-2.5A2.5,2.5 0 0,1 2.5,0Z" style="opacity: 1; stroke-width: 0px; fill: rgb(38, 131, 198); fill-opacity: 0.9;"/><path class="point" transform="translate(146.73,157.55)" d="M2.5,0A2.5,2.5 0 1,1 0,-2.5A2.5,2.5 0 0,1 2.5,0Z" style="opacity: 1; stroke-width: 0px; fill: rgb(38, 131, 198); fill-opacity: 0.9;"/><path class="point" transform="translate(153.3,152.67)" d="M2.5,0A2.5,2.5 0 1,1 0,-2.5A2.5,2.5 0 0,1 2.5,0Z" style="opacity: 1; stroke-width: 0px; fill: rgb(38, 131, 198); fill-opacity: 0.9;"/><path class="point" transform="translate(161.09,160.44)" d="M2.5,0A2.5,2.5 0 1,1 0,-2.5A2.5,2.5 0 0,1 2.5,0Z" style="opacity: 1; stroke-width: 0px; fill: rgb(38, 131, 198); fill-opacity: 0.9;"/><path class="point" transform="translate(169.6,162.44)" d="M2.5,0A2.5,2.5 0 1,1 0,-2.5A2.5,2.5 0 0,1 2.5,0Z" style="opacity: 1; stroke-width: 0px; fill: rgb(38, 131, 198); fill-opacity: 0.9;"/><path class="point" transform="translate(178.36,167.32)" d="M2.5,0A2.5,2.5 0 1,1 0,-2.5A2.5,2.5 0 0,1 2.5,0Z" style="opacity: 1; stroke-width: 0px; fill: rgb(38, 131, 198); fill-opacity: 0.9;"/><path class="point" transform="translate(187.37,144.06)" d="M2.5,0A2.5,2.5 0 1,1 0,-2.5A2.5,2.5 0 0,1 2.5,0Z" style="opacity: 1; stroke-width: 0px; fill: rgb(38, 131, 198); fill-opacity: 0.9;"/><path class="point" transform="translate(194.18,134.27)" d="M2.5,0A2.5,2.5 0 1,1 0,-2.5A2.5,2.5 0 0,1 2.5,0Z" style="opacity: 1; stroke-width: 0px; fill: rgb(38, 131, 198); fill-opacity: 0.9;"/><path class="point" transform="translate(199.05,125.73)" d="M2.5,0A2.5,2.5 0 1,1 0,-2.5A2.5,2.5 0 0,1 2.5,0Z" style="opacity: 1; stroke-width: 0px; fill: rgb(38, 131, 198); fill-opacity: 0.9;"/><path class="point" transform="translate(204.4,135.98)" d="M2.5,0A2.5,2.5 0 1,1 0,-2.5A2.5,2.5 0 0,1 2.5,0Z" style="opacity: 1; stroke-width: 0px; fill: rgb(38, 131, 198); fill-opacity: 0.9;"/><path class="point" transform="translate(209.51,137.92)" d="M2.5,0A2.5,2.5 0 1,1 0,-2.5A2.5,2.5 0 0,1 2.5,0Z" style="opacity: 1; stroke-width: 0px; fill: rgb(38, 131, 198); fill-opacity: 0.9;"/><path class="point" transform="translate(215.59,139.1)" d="M2.5,0A2.5,2.5 0 1,1 0,-2.5A2.5,2.5 0 0,1 2.5,0Z" style="opacity: 1; stroke-width: 0px; fill: rgb(38, 131, 198); fill-opacity: 0.9;"/><path class="point" transform="translate(220.7,138.87)" d="M2.5,0A2.5,2.5 0 1,1 0,-2.5A2.5,2.5 0 0,1 2.5,0Z" style="opacity: 1; stroke-width: 0px; fill: rgb(38, 131, 198); fill-opacity: 0.9;"/><path class="point" transform="translate(227.27,139.37)" d="M2.5,0A2.5,2.5 0 1,1 0,-2.5A2.5,2.5 0 0,1 2.5,0Z" style="opacity: 1; stroke-width: 0px; fill: rgb(38, 131, 198); fill-opacity: 0.9;"/><path class="point" transform="translate(233.84,137.9)" d="M2.5,0A2.5,2.5 0 1,1 0,-2.5A2.5,2.5 0 0,1 2.5,0Z" style="opacity: 1; stroke-width: 0px; fill: rgb(38, 131, 198); fill-opacity: 0.9;"/><path class="point" transform="translate(240.17,140.72)" d="M2.5,0A2.5,2.5 0 1,1 0,-2.5A2.5,2.5 0 0,1 2.5,0Z" style="opacity: 1; stroke-width: 0px; fill: rgb(38, 131, 198); fill-opacity: 0.9;"/><path class="point" transform="translate(246.74,144.49)" d="M2.5,0A2.5,2.5 0 1,1 0,-2.5A2.5,2.5 0 0,1 2.5,0Z" style="opacity: 1; stroke-width: 0px; fill: rgb(38, 131, 198); fill-opacity: 0.9;"/><path class="point" transform="translate(253.55,136.21)" d="M2.5,0A2.5,2.5 0 1,1 0,-2.5A2.5,2.5 0 0,1 2.5,0Z" style="opacity: 1; stroke-width: 0px; fill: rgb(38, 131, 198); fill-opacity: 0.9;"/><path class="point" transform="translate(259.88,128.93)" d="M2.5,0A2.5,2.5 0 1,1 0,-2.5A2.5,2.5 0 0,1 2.5,0Z" style="opacity: 1; stroke-width: 0px; fill: rgb(38, 131, 198); fill-opacity: 0.9;"/><path class="point" transform="translate(265.96,126.02)" d="M2.5,0A2.5,2.5 0 1,1 0,-2.5A2.5,2.5 0 0,1 2.5,0Z" style="opacity: 1; stroke-width: 0px; fill: rgb(38, 131, 198); fill-opacity: 0.9;"/><path class="point" transform="translate(271.8,131.31)" d="M2.5,0A2.5,2.5 0 1,1 0,-2.5A2.5,2.5 0 0,1 2.5,0Z" style="opacity: 1; stroke-width: 0px; fill: rgb(38, 131, 198); fill-opacity: 0.9;"/><path class="point" transform="translate(277.16,128.69)" d="M2.5,0A2.5,2.5 0 1,1 0,-2.5A2.5,2.5 0 0,1 2.5,0Z" style="opacity: 1; stroke-width: 0px; fill: rgb(38, 131, 198); fill-opacity: 0.9;"/><path class="point" transform="translate(283.48,128.39)" d="M2.5,0A2.5,2.5 0 1,1 0,-2.5A2.5,2.5 0 0,1 2.5,0Z" style="opacity: 1; stroke-width: 0px; fill: rgb(38, 131, 198); fill-opacity: 0.9;"/><path class="point" transform="translate(288.11,123.2)" d="M2.5,0A2.5,2.5 0 1,1 0,-2.5A2.5,2.5 0 0,1 2.5,0Z" style="opacity: 1; stroke-width: 0px; fill: rgb(38, 131, 198); fill-opacity: 0.9;"/><path class="point" transform="translate(292.73,116.49)" d="M2.5,0A2.5,2.5 0 1,1 0,-2.5A2.5,2.5 0 0,1 2.5,0Z" style="opacity: 1; stroke-width: 0px; fill: rgb(38, 131, 198); fill-opacity: 0.9;"/><path class="point" transform="translate(296.87,107.51)" d="M2.5,0A2.5,2.5 0 1,1 0,-2.5A2.5,2.5 0 0,1 2.5,0Z" style="opacity: 1; stroke-width: 0px; fill: rgb(38, 131, 198); fill-opacity: 0.9;"/><path class="point" transform="translate(301.49,107.48)" d="M2.5,0A2.5,2.5 0 1,1 0,-2.5A2.5,2.5 0 0,1 2.5,0Z" style="opacity: 1; stroke-width: 0px; fill: rgb(38, 131, 198); fill-opacity: 0.9;"/><path class="point" transform="translate(305.87,114.76)" d="M2.5,0A2.5,2.5 0 1,1 0,-2.5A2.5,2.5 0 0,1 2.5,0Z" style="opacity: 1; stroke-width: 0px; fill: rgb(38, 131, 198); fill-opacity: 0.9;"/><path class="point" transform="translate(310.25,117.74)" d="M2.5,0A2.5,2.5 0 1,1 0,-2.5A2.5,2.5 0 0,1 2.5,0Z" style="opacity: 1; stroke-width: 0px; fill: rgb(38, 131, 198); fill-opacity: 0.9;"/><path class="point" transform="translate(314.63,119.83)" d="M2.5,0A2.5,2.5 0 1,1 0,-2.5A2.5,2.5 0 0,1 2.5,0Z" style="opacity: 1; stroke-width: 0px; fill: rgb(38, 131, 198); fill-opacity: 0.9;"/><path class="point" transform="translate(319.01,121.89)" d="M2.5,0A2.5,2.5 0 1,1 0,-2.5A2.5,2.5 0 0,1 2.5,0Z" style="opacity: 1; stroke-width: 0px; fill: rgb(38, 131, 198); fill-opacity: 0.9;"/><path class="point" transform="translate(323.15,122.82)" d="M2.5,0A2.5,2.5 0 1,1 0,-2.5A2.5,2.5 0 0,1 2.5,0Z" style="opacity: 1; stroke-width: 0px; fill: rgb(38, 131, 198); fill-opacity: 0.9;"/><path class="point" transform="translate(327.77,128.53)" d="M2.5,0A2.5,2.5 0 1,1 0,-2.5A2.5,2.5 0 0,1 2.5,0Z" style="opacity: 1; stroke-width: 0px; fill: rgb(38, 131, 198); fill-opacity: 0.9;"/><path class="point" transform="translate(334.1,128.42)" d="M2.5,0A2.5,2.5 0 1,1 0,-2.5A2.5,2.5 0 0,1 2.5,0Z" style="opacity: 1; stroke-width: 0px; fill: rgb(38, 131, 198); fill-opacity: 0.9;"/><path class="point" transform="translate(339.21,130.7)" d="M2.5,0A2.5,2.5 0 1,1 0,-2.5A2.5,2.5 0 0,1 2.5,0Z" style="opacity: 1; stroke-width: 0px; fill: rgb(38, 131, 198); fill-opacity: 0.9;"/><path class="point" transform="translate(344.56,127.78)" d="M2.5,0A2.5,2.5 0 1,1 0,-2.5A2.5,2.5 0 0,1 2.5,0Z" style="opacity: 1; stroke-width: 0px; fill: rgb(38, 131, 198); fill-opacity: 0.9;"/><path class="point" transform="translate(350.16,120.26)" d="M2.5,0A2.5,2.5 0 1,1 0,-2.5A2.5,2.5 0 0,1 2.5,0Z" style="opacity: 1; stroke-width: 0px; fill: rgb(38, 131, 198); fill-opacity: 0.9;"/><path class="point" transform="translate(355.02,116)" d="M2.5,0A2.5,2.5 0 1,1 0,-2.5A2.5,2.5 0 0,1 2.5,0Z" style="opacity: 1; stroke-width: 0px; fill: rgb(38, 131, 198); fill-opacity: 0.9;"/><path class="point" transform="translate(359.16,111.17)" d="M2.5,0A2.5,2.5 0 1,1 0,-2.5A2.5,2.5 0 0,1 2.5,0Z" style="opacity: 1; stroke-width: 0px; fill: rgb(38, 131, 198); fill-opacity: 0.9;"/><path class="point" transform="translate(363.54,122.27)" d="M2.5,0A2.5,2.5 0 1,1 0,-2.5A2.5,2.5 0 0,1 2.5,0Z" style="opacity: 1; stroke-width: 0px; fill: rgb(38, 131, 198); fill-opacity: 0.9;"/><path class="point" transform="translate(369.87,129.63)" d="M2.5,0A2.5,2.5 0 1,1 0,-2.5A2.5,2.5 0 0,1 2.5,0Z" style="opacity: 1; stroke-width: 0px; fill: rgb(38, 131, 198); fill-opacity: 0.9;"/><path class="point" transform="translate(375.22,124.12)" d="M2.5,0A2.5,2.5 0 1,1 0,-2.5A2.5,2.5 0 0,1 2.5,0Z" style="opacity: 1; stroke-width: 0px; fill: rgb(38, 131, 198); fill-opacity: 0.9;"/><path class="point" transform="translate(380.57,118.16)" d="M2.5,0A2.5,2.5 0 1,1 0,-2.5A2.5,2.5 0 0,1 2.5,0Z" style="opacity: 1; stroke-width: 0px; fill: rgb(38, 131, 198); fill-opacity: 0.9;"/><path class="point" transform="translate(386.17,107.39)" d="M2.5,0A2.5,2.5 0 1,1 0,-2.5A2.5,2.5 0 0,1 2.5,0Z" style="opacity: 1; stroke-width: 0px; fill: rgb(38, 131, 198); fill-opacity: 0.9;"/><path class="point" transform="translate(390.79,106.29)" d="M2.5,0A2.5,2.5 0 1,1 0,-2.5A2.5,2.5 0 0,1 2.5,0Z" style="opacity: 1; stroke-width: 0px; fill: rgb(38, 131, 198); fill-opacity: 0.9;"/><path class="point" transform="translate(395.17,104.73)" d="M2.5,0A2.5,2.5 0 1,1 0,-2.5A2.5,2.5 0 0,1 2.5,0Z" style="opacity: 1; stroke-width: 0px; fill: rgb(38, 131, 198); fill-opacity: 0.9;"/><path class="point" transform="translate(400.28,108.75)" d="M2.5,0A2.5,2.5 0 1,1 0,-2.5A2.5,2.5 0 0,1 2.5,0Z" style="opacity: 1; stroke-width: 0px; fill: rgb(38, 131, 198); fill-opacity: 0.9;"/><path class="point" transform="translate(404.91,108.64)" d="M2.5,0A2.5,2.5 0 1,1 0,-2.5A2.5,2.5 0 0,1 2.5,0Z" style="opacity: 1; stroke-width: 0px; fill: rgb(38, 131, 198); fill-opacity: 0.9;"/><path class="point" transform="translate(409.29,110.35)" d="M2.5,0A2.5,2.5 0 1,1 0,-2.5A2.5,2.5 0 0,1 2.5,0Z" style="opacity: 1; stroke-width: 0px; fill: rgb(38, 131, 198); fill-opacity: 0.9;"/><path class="point" transform="translate(413.67,107.91)" d="M2.5,0A2.5,2.5 0 1,1 0,-2.5A2.5,2.5 0 0,1 2.5,0Z" style="opacity: 1; stroke-width: 0px; fill: rgb(38, 131, 198); fill-opacity: 0.9;"/><path class="point" transform="translate(418.29,113.13)" d="M2.5,0A2.5,2.5 0 1,1 0,-2.5A2.5,2.5 0 0,1 2.5,0Z" style="opacity: 1; stroke-width: 0px; fill: rgb(38, 131, 198); fill-opacity: 0.9;"/><path class="point" transform="translate(422.67,111.87)" d="M2.5,0A2.5,2.5 0 1,1 0,-2.5A2.5,2.5 0 0,1 2.5,0Z" style="opacity: 1; stroke-width: 0px; fill: rgb(38, 131, 198); fill-opacity: 0.9;"/><path class="point" transform="translate(428.02,112.18)" d="M2.5,0A2.5,2.5 0 1,1 0,-2.5A2.5,2.5 0 0,1 2.5,0Z" style="opacity: 1; stroke-width: 0px; fill: rgb(38, 131, 198); fill-opacity: 0.9;"/><path class="point" transform="translate(432.89,113.79)" d="M2.5,0A2.5,2.5 0 1,1 0,-2.5A2.5,2.5 0 0,1 2.5,0Z" style="opacity: 1; stroke-width: 0px; fill: rgb(38, 131, 198); fill-opacity: 0.9;"/><path class="point" transform="translate(437.76,111.93)" d="M2.5,0A2.5,2.5 0 1,1 0,-2.5A2.5,2.5 0 0,1 2.5,0Z" style="opacity: 1; stroke-width: 0px; fill: rgb(38, 131, 198); fill-opacity: 0.9;"/><path class="point" transform="translate(442.38,120.22)" d="M2.5,0A2.5,2.5 0 1,1 0,-2.5A2.5,2.5 0 0,1 2.5,0Z" style="opacity: 1; stroke-width: 0px; fill: rgb(38, 131, 198); fill-opacity: 0.9;"/><path class="point" transform="translate(448.22,125.69)" d="M2.5,0A2.5,2.5 0 1,1 0,-2.5A2.5,2.5 0 0,1 2.5,0Z" style="opacity: 1; stroke-width: 0px; fill: rgb(38, 131, 198); fill-opacity: 0.9;"/><path class="point" transform="translate(453.82,126.31)" d="M2.5,0A2.5,2.5 0 1,1 0,-2.5A2.5,2.5 0 0,1 2.5,0Z" style="opacity: 1; stroke-width: 0px; fill: rgb(38, 131, 198); fill-opacity: 0.9;"/><path class="point" transform="translate(459.17,120.85)" d="M2.5,0A2.5,2.5 0 1,1 0,-2.5A2.5,2.5 0 0,1 2.5,0Z" style="opacity: 1; stroke-width: 0px; fill: rgb(38, 131, 198); fill-opacity: 0.9;"/><path class="point" transform="translate(464.28,114.96)" d="M2.5,0A2.5,2.5 0 1,1 0,-2.5A2.5,2.5 0 0,1 2.5,0Z" style="opacity: 1; stroke-width: 0px; fill: rgb(38, 131, 198); fill-opacity: 0.9;"/><path class="point" transform="translate(483.02,105.97)" d="M2.5,0A2.5,2.5 0 1,1 0,-2.5A2.5,2.5 0 0,1 2.5,0Z" style="opacity: 1; stroke-width: 0px; fill: rgb(38, 131, 198); fill-opacity: 0.9;"/><path class="point" transform="translate(487.4,104.66)" d="M2.5,0A2.5,2.5 0 1,1 0,-2.5A2.5,2.5 0 0,1 2.5,0Z" style="opacity: 1; stroke-width: 0px; fill: rgb(38, 131, 198); fill-opacity: 0.9;"/><path class="point" transform="translate(491.78,107.41)" d="M2.5,0A2.5,2.5 0 1,1 0,-2.5A2.5,2.5 0 0,1 2.5,0Z" style="opacity: 1; stroke-width: 0px; fill: rgb(38, 131, 198); fill-opacity: 0.9;"/><path class="point" transform="translate(496.16,116.49)" d="M2.5,0A2.5,2.5 0 1,1 0,-2.5A2.5,2.5 0 0,1 2.5,0Z" style="opacity: 1; stroke-width: 0px; fill: rgb(38, 131, 198); fill-opacity: 0.9;"/><path class="point" transform="translate(500.29,117.55)" d="M2.5,0A2.5,2.5 0 1,1 0,-2.5A2.5,2.5 0 0,1 2.5,0Z" style="opacity: 1; stroke-width: 0px; fill: rgb(38, 131, 198); fill-opacity: 0.9;"/><path class="point" transform="translate(504.67,122.16)" d="M2.5,0A2.5,2.5 0 1,1 0,-2.5A2.5,2.5 0 0,1 2.5,0Z" style="opacity: 1; stroke-width: 0px; fill: rgb(38, 131, 198); fill-opacity: 0.9;"/><path class="point" transform="translate(509.05,114.32)" d="M2.5,0A2.5,2.5 0 1,1 0,-2.5A2.5,2.5 0 0,1 2.5,0Z" style="opacity: 1; stroke-width: 0px; fill: rgb(38, 131, 198); fill-opacity: 0.9;"/><path class="point" transform="translate(514.41,108.21)" d="M2.5,0A2.5,2.5 0 1,1 0,-2.5A2.5,2.5 0 0,1 2.5,0Z" style="opacity: 1; stroke-width: 0px; fill: rgb(38, 131, 198); fill-opacity: 0.9;"/><path class="point" transform="translate(518.54,101.07)" d="M2.5,0A2.5,2.5 0 1,1 0,-2.5A2.5,2.5 0 0,1 2.5,0Z" style="opacity: 1; stroke-width: 0px; fill: rgb(38, 131, 198); fill-opacity: 0.9;"/><path class="point" transform="translate(522.68,100.26)" d="M2.5,0A2.5,2.5 0 1,1 0,-2.5A2.5,2.5 0 0,1 2.5,0Z" style="opacity: 1; stroke-width: 0px; fill: rgb(38, 131, 198); fill-opacity: 0.9;"/><path class="point" transform="translate(527.06,104.17)" d="M2.5,0A2.5,2.5 0 1,1 0,-2.5A2.5,2.5 0 0,1 2.5,0Z" style="opacity: 1; stroke-width: 0px; fill: rgb(38, 131, 198); fill-opacity: 0.9;"/><path class="point" transform="translate(531.44,107.24)" d="M2.5,0A2.5,2.5 0 1,1 0,-2.5A2.5,2.5 0 0,1 2.5,0Z" style="opacity: 1; stroke-width: 0px; fill: rgb(38, 131, 198); fill-opacity: 0.9;"/><path class="point" transform="translate(535.58,109.92)" d="M2.5,0A2.5,2.5 0 1,1 0,-2.5A2.5,2.5 0 0,1 2.5,0Z" style="opacity: 1; stroke-width: 0px; fill: rgb(38, 131, 198); fill-opacity: 0.9;"/><path class="point" transform="translate(539.96,109.67)" d="M2.5,0A2.5,2.5 0 1,1 0,-2.5A2.5,2.5 0 0,1 2.5,0Z" style="opacity: 1; stroke-width: 0px; fill: rgb(38, 131, 198); fill-opacity: 0.9;"/><path class="point" transform="translate(544.09,110.8)" d="M2.5,0A2.5,2.5 0 1,1 0,-2.5A2.5,2.5 0 0,1 2.5,0Z" style="opacity: 1; stroke-width: 0px; fill: rgb(38, 131, 198); fill-opacity: 0.9;"/><path class="point" transform="translate(548.47,108.18)" d="M2.5,0A2.5,2.5 0 1,1 0,-2.5A2.5,2.5 0 0,1 2.5,0Z" style="opacity: 1; stroke-width: 0px; fill: rgb(38, 131, 198); fill-opacity: 0.9;"/><path class="point" transform="translate(566.72,101.21)" d="M2.5,0A2.5,2.5 0 1,1 0,-2.5A2.5,2.5 0 0,1 2.5,0Z" style="opacity: 1; stroke-width: 0px; fill: rgb(38, 131, 198); fill-opacity: 0.9;"/><path class="point" transform="translate(571.35,102.22)" d="M2.5,0A2.5,2.5 0 1,1 0,-2.5A2.5,2.5 0 0,1 2.5,0Z" style="opacity: 1; stroke-width: 0px; fill: rgb(38, 131, 198); fill-opacity: 0.9;"/><path class="point" transform="translate(575.73,105.11)" d="M2.5,0A2.5,2.5 0 1,1 0,-2.5A2.5,2.5 0 0,1 2.5,0Z" style="opacity: 1; stroke-width: 0px; fill: rgb(38, 131, 198); fill-opacity: 0.9;"/><path class="point" transform="translate(580.11,104.87)" d="M2.5,0A2.5,2.5 0 1,1 0,-2.5A2.5,2.5 0 0,1 2.5,0Z" style="opacity: 1; stroke-width: 0px; fill: rgb(38, 131, 198); fill-opacity: 0.9;"/><path class="point" transform="translate(585.46,101.98)" d="M2.5,0A2.5,2.5 0 1,1 0,-2.5A2.5,2.5 0 0,1 2.5,0Z" style="opacity: 1; stroke-width: 0px; fill: rgb(38, 131, 198); fill-opacity: 0.9;"/><path class="point" transform="translate(589.84,104.26)" d="M2.5,0A2.5,2.5 0 1,1 0,-2.5A2.5,2.5 0 0,1 2.5,0Z" style="opacity: 1; stroke-width: 0px; fill: rgb(38, 131, 198); fill-opacity: 0.9;"/><path class="point" transform="translate(594.22,105.83)" d="M2.5,0A2.5,2.5 0 1,1 0,-2.5A2.5,2.5 0 0,1 2.5,0Z" style="opacity: 1; stroke-width: 0px; fill: rgb(38, 131, 198); fill-opacity: 0.9;"/><path class="point" transform="translate(598.36,108.18)" d="M2.5,0A2.5,2.5 0 1,1 0,-2.5A2.5,2.5 0 0,1 2.5,0Z" style="opacity: 1; stroke-width: 0px; fill: rgb(38, 131, 198); fill-opacity: 0.9;"/><path class="point" transform="translate(602.74,103.76)" d="M2.5,0A2.5,2.5 0 1,1 0,-2.5A2.5,2.5 0 0,1 2.5,0Z" style="opacity: 1; stroke-width: 0px; fill: rgb(38, 131, 198); fill-opacity: 0.9;"/><path class="point" transform="translate(607.36,109.77)" d="M2.5,0A2.5,2.5 0 1,1 0,-2.5A2.5,2.5 0 0,1 2.5,0Z" style="opacity: 1; stroke-width: 0px; fill: rgb(38, 131, 198); fill-opacity: 0.9;"/><path class="point" transform="translate(612.96,106.81)" d="M2.5,0A2.5,2.5 0 1,1 0,-2.5A2.5,2.5 0 0,1 2.5,0Z" style="opacity: 1; stroke-width: 0px; fill: rgb(38, 131, 198); fill-opacity: 0.9;"/><path class="point" transform="translate(617.82,101.86)" d="M2.5,0A2.5,2.5 0 1,1 0,-2.5A2.5,2.5 0 0,1 2.5,0Z" style="opacity: 1; stroke-width: 0px; fill: rgb(38, 131, 198); fill-opacity: 0.9;"/><path class="point" transform="translate(621.96,90.95)" d="M2.5,0A2.5,2.5 0 1,1 0,-2.5A2.5,2.5 0 0,1 2.5,0Z" style="opacity: 1; stroke-width: 0px; fill: rgb(38, 131, 198); fill-opacity: 0.9;"/><path class="point" transform="translate(626.34,88.63)" d="M2.5,0A2.5,2.5 0 1,1 0,-2.5A2.5,2.5 0 0,1 2.5,0Z" style="opacity: 1; stroke-width: 0px; fill: rgb(38, 131, 198); fill-opacity: 0.9;"/><path class="point" transform="translate(630.72,88.33)" d="M2.5,0A2.5,2.5 0 1,1 0,-2.5A2.5,2.5 0 0,1 2.5,0Z" style="opacity: 1; stroke-width: 0px; fill: rgb(38, 131, 198); fill-opacity: 0.9;"/><path class="point" transform="translate(634.86,85.85)" d="M2.5,0A2.5,2.5 0 1,1 0,-2.5A2.5,2.5 0 0,1 2.5,0Z" style="opacity: 1; stroke-width: 0px; fill: rgb(38, 131, 198); fill-opacity: 0.9;"/><path class="point" transform="translate(639.24,92.51)" d="M2.5,0A2.5,2.5 0 1,1 0,-2.5A2.5,2.5 0 0,1 2.5,0Z" style="opacity: 1; stroke-width: 0px; fill: rgb(38, 131, 198); fill-opacity: 0.9;"/><path class="point" transform="translate(643.37,100.89)" d="M2.5,0A2.5,2.5 0 1,1 0,-2.5A2.5,2.5 0 0,1 2.5,0Z" style="opacity: 1; stroke-width: 0px; fill: rgb(38, 131, 198); fill-opacity: 0.9;"/><path class="point" transform="translate(647.51,108.73)" d="M2.5,0A2.5,2.5 0 1,1 0,-2.5A2.5,2.5 0 0,1 2.5,0Z" style="opacity: 1; stroke-width: 0px; fill: rgb(38, 131, 198); fill-opacity: 0.9;"/><path class="point" transform="translate(651.89,104.37)" d="M2.5,0A2.5,2.5 0 1,1 0,-2.5A2.5,2.5 0 0,1 2.5,0Z" style="opacity: 1; stroke-width: 0px; fill: rgb(38, 131, 198); fill-opacity: 0.9;"/><path class="point" transform="translate(656.27,104.23)" d="M2.5,0A2.5,2.5 0 1,1 0,-2.5A2.5,2.5 0 0,1 2.5,0Z" style="opacity: 1; stroke-width: 0px; fill: rgb(38, 131, 198); fill-opacity: 0.9;"/><path class="point" transform="translate(660.41,106.15)" d="M2.5,0A2.5,2.5 0 1,1 0,-2.5A2.5,2.5 0 0,1 2.5,0Z" style="opacity: 1; stroke-width: 0px; fill: rgb(38, 131, 198); fill-opacity: 0.9;"/><path class="point" transform="translate(664.54,109.76)" d="M2.5,0A2.5,2.5 0 1,1 0,-2.5A2.5,2.5 0 0,1 2.5,0Z" style="opacity: 1; stroke-width: 0px; fill: rgb(38, 131, 198); fill-opacity: 0.9;"/><path class="point" transform="translate(668.68,110.64)" d="M2.5,0A2.5,2.5 0 1,1 0,-2.5A2.5,2.5 0 0,1 2.5,0Z" style="opacity: 1; stroke-width: 0px; fill: rgb(38, 131, 198); fill-opacity: 0.9;"/><path class="point" transform="translate(685.71,102.56)" d="M2.5,0A2.5,2.5 0 1,1 0,-2.5A2.5,2.5 0 0,1 2.5,0Z" style="opacity: 1; stroke-width: 0px; fill: rgb(38, 131, 198); fill-opacity: 0.9;"/><path class="point" transform="translate(689.85,109.15)" d="M2.5,0A2.5,2.5 0 1,1 0,-2.5A2.5,2.5 0 0,1 2.5,0Z" style="opacity: 1; stroke-width: 0px; fill: rgb(38, 131, 198); fill-opacity: 0.9;"/><path class="point" transform="translate(706.4,97.43)" d="M2.5,0A2.5,2.5 0 1,1 0,-2.5A2.5,2.5 0 0,1 2.5,0Z" style="opacity: 1; stroke-width: 0px; fill: rgb(38, 131, 198); fill-opacity: 0.9;"/><path class="point" transform="translate(710.78,89.74)" d="M2.5,0A2.5,2.5 0 1,1 0,-2.5A2.5,2.5 0 0,1 2.5,0Z" style="opacity: 1; stroke-width: 0px; fill: rgb(38, 131, 198); fill-opacity: 0.9;"/><path class="point" transform="translate(715.16,82.44)" d="M2.5,0A2.5,2.5 0 1,1 0,-2.5A2.5,2.5 0 0,1 2.5,0Z" style="opacity: 1; stroke-width: 0px; fill: rgb(38, 131, 198); fill-opacity: 0.9;"/><path class="point" transform="translate(719.29,90.39)" d="M2.5,0A2.5,2.5 0 1,1 0,-2.5A2.5,2.5 0 0,1 2.5,0Z" style="opacity: 1; stroke-width: 0px; fill: rgb(38, 131, 198); fill-opacity: 0.9;"/><path class="point" transform="translate(723.67,97.32)" d="M2.5,0A2.5,2.5 0 1,1 0,-2.5A2.5,2.5 0 0,1 2.5,0Z" style="opacity: 1; stroke-width: 0px; fill: rgb(38, 131, 198); fill-opacity: 0.9;"/><path class="point" transform="translate(727.81,102.06)" d="M2.5,0A2.5,2.5 0 1,1 0,-2.5A2.5,2.5 0 0,1 2.5,0Z" style="opacity: 1; stroke-width: 0px; fill: rgb(38, 131, 198); fill-opacity: 0.9;"/></g><g class="text"/></g><g class="trace scatter tracea3160b" style="stroke-miterlimit: 2; opacity: 1;"><g class="fills"/><g class="errorbars"/><g class="lines"><path class="js-line" d="M33.58,260.08L47.48,242.38L48.17,241.55L64.85,223.07L65.55,222.36L80.83,207.71L81.53,207.09L96.82,194.35L97.51,193.81L114.89,181.32L115.58,180.86L134.34,169.41L135.04,169.02L152.41,160.01L153.11,159.68L173.26,150.86L173.95,150.58L199.67,141.41L200.36,141.19L225.38,134.09L226.07,133.91L258.04,126.86L258.74,126.73L291.4,121.32L292.09,121.22L327.53,116.89L328.23,116.82L358.8,114.03L359.5,113.97L422.04,110.16L422.74,110.13L496.4,107.65L497.09,107.64L566.59,106.4L567.28,106.39L687.5,105.42L688.2,105.42L727.81,105.27" style="vector-effect: non-scaling-stroke; fill: none; stroke: rgb(239, 111, 106); stroke-opacity: 1; stroke-width: 2px; opacity: 1;"/></g><g class="points"/><g class="text"/></g></g></g><g class="overplot"/><path class="xlines-above crisp" d="M0,0" style="fill: none;"/><path class="ylines-above crisp" d="M0,0" style="fill: none;"/><g class="overlines-above"/><g class="xaxislayer-above"><g class="xtick"><text text-anchor="middle" x="0" y="403" transform="translate(60,0)" style="font-family: 'Open Sans', verdana, arial, sans-serif; font-size: 12px; fill: rgb(68, 68, 68); fill-opacity: 1; white-space: pre; opacity: 1;">0</text></g><g class="xtick"><text text-anchor="middle" x="0" y="403" style="font-family: 'Open Sans', verdana, arial, sans-serif; font-size: 12px; fill: rgb(68, 68, 68); fill-opacity: 1; white-space: pre; opacity: 1;" transform="translate(181.67000000000002,0)">50</text></g><g class="xtick"><text text-anchor="middle" x="0" y="403" style="font-family: 'Open Sans', verdana, arial, sans-serif; font-size: 12px; fill: rgb(68, 68, 68); fill-opacity: 1; white-space: pre; opacity: 1;" transform="translate(303.33000000000004,0)">100</text></g><g class="xtick"><text text-anchor="middle" x="0" y="403" style="font-family: 'Open Sans', verdana, arial, sans-serif; font-size: 12px; fill: rgb(68, 68, 68); fill-opacity: 1; white-space: pre; opacity: 1;" transform="translate(425,0)">150</text></g><g class="xtick"><text text-anchor="middle" x="0" y="403" style="font-family: 'Open Sans', verdana, arial, sans-serif; font-size: 12px; fill: rgb(68, 68, 68); fill-opacity: 1; white-space: pre; opacity: 1;" transform="translate(546.6700000000001,0)">200</text></g><g class="xtick"><text text-anchor="middle" x="0" y="403" style="font-family: 'Open Sans', verdana, arial, sans-serif; font-size: 12px; fill: rgb(68, 68, 68); fill-opacity: 1; white-space: pre; opacity: 1;" transform="translate(668.33,0)">250</text></g><g class="xtick"><text text-anchor="middle" x="0" y="403" style="font-family: 'Open Sans', verdana, arial, sans-serif; font-size: 12px; fill: rgb(68, 68, 68); fill-opacity: 1; white-space: pre; opacity: 1;" transform="translate(790,0)">300</text></g><g class="xtick"><text text-anchor="middle" x="0" y="403" style="font-family: 'Open Sans', verdana, arial, sans-serif; font-size: 12px; fill: rgb(68, 68, 68); fill-opacity: 1; white-space: pre; opacity: 1;" transform="translate(911.67,0)">350</text></g></g><g class="yaxislayer-above"><g class="ytick"><text text-anchor="end" x="59" y="4.199999999999999" transform="translate(0,390)" style="font-family: 'Open Sans', verdana, arial, sans-serif; font-size: 12px; fill: rgb(68, 68, 68); fill-opacity: 1; white-space: pre; opacity: 1;">0</text></g><g class="ytick"><text text-anchor="end" x="59" y="4.199999999999999" style="font-family: 'Open Sans', verdana, arial, sans-serif; font-size: 12px; fill: rgb(68, 68, 68); fill-opacity: 1; white-space: pre; opacity: 1;" transform="translate(0,336.15)">1</text></g><g class="ytick"><text text-anchor="end" x="59" y="4.199999999999999" style="font-family: 'Open Sans', verdana, arial, sans-serif; font-size: 12px; fill: rgb(68, 68, 68); fill-opacity: 1; white-space: pre; opacity: 1;" transform="translate(0,282.31)">2</text></g><g class="ytick"><text text-anchor="end" x="59" y="4.199999999999999" style="font-family: 'Open Sans', verdana, arial, sans-serif; font-size: 12px; fill: rgb(68, 68, 68); fill-opacity: 1; white-space: pre; opacity: 1;" transform="translate(0,228.46)">3</text></g><g class="ytick"><text text-anchor="end" x="59" y="4.199999999999999" style="font-family: 'Open Sans', verdana, arial, sans-serif; font-size: 12px; fill: rgb(68, 68, 68); fill-opacity: 1; white-space: pre; opacity: 1;" transform="translate(0,174.62)">4</text></g><g class="ytick"><text text-anchor="end" x="59" y="4.199999999999999" style="font-family: 'Open Sans', verdana, arial, sans-serif; font-size: 12px; fill: rgb(68, 68, 68); fill-opacity: 1; white-space: pre; opacity: 1;" transform="translate(0,120.77)">5</text></g><g class="ytick"><text text-anchor="end" x="59" y="4.199999999999999" style="font-family: 'Open Sans', verdana, arial, sans-serif; font-size: 12px; fill: rgb(68, 68, 68); fill-opacity: 1; white-space: pre; opacity: 1;" transform="translate(0,66.92)">6</text></g></g><g class="overaxes-above"/></g></g><g class="polarlayer"/><g class="smithlayer"/><g class="ternarylayer"/><g class="geolayer"/><g class="funnelarealayer"/><g class="pielayer"/><g class="iciclelayer"/><g class="treemaplayer"/><g class="sunburstlayer"/><g class="glimages"/><defs id="topdefs-f94f42"><g class="clips"/><clipPath id="legendf94f42"><rect width="134" height="48" x="0" y="0"/></clipPath></defs><g class="layer-above"><g class="imagelayer"/><g class="shapelayer"><path data-index="0" fill-rule="evenodd" d="M93.58,390L93.58,40" clip-path="url(#clipf94f42xy)" style="opacity: 1; stroke: rgb(128, 128, 128); stroke-opacity: 1; fill: rgb(0, 0, 0); fill-opacity: 0; stroke-dasharray: 9px, 9px; stroke-width: 1px;"/><path data-index="1" fill-rule="evenodd" d="M208.37,390L208.37,40" clip-path="url(#clipf94f42xy)" style="opacity: 1; stroke: rgb(128, 128, 128); stroke-opacity: 1; fill: rgb(0, 0, 0); fill-opacity: 0; stroke-dasharray: 9px, 9px; stroke-width: 1px;"/><path data-index="2" fill-rule="evenodd" d="M552.73,390L552.73,40" clip-path="url(#clipf94f42xy)" style="opacity: 1; stroke: rgb(128, 128, 128); stroke-opacity: 1; fill: rgb(0, 0, 0); fill-opacity: 0; stroke-dasharray: 9px, 9px; stroke-width: 1px;"/><path data-index="3" fill-rule="evenodd" d="M60,368.57L936,368.57" clip-path="url(#clipf94f42xy)" style="opacity: 1; stroke: rgb(128, 128, 128); stroke-opacity: 1; fill: rgb(0, 0, 0); fill-opacity: 0; stroke-dasharray: 9px, 9px; stroke-width: 1px;"/><path data-index="4" fill-rule="evenodd" d="M60,147.74L936,147.74" clip-path="url(#clipf94f42xy)" style="opacity: 1; stroke: rgb(128, 128, 128); stroke-opacity: 1; fill: rgb(0, 0, 0); fill-opacity: 0; stroke-dasharray: 9px, 9px; stroke-width: 1px;"/></g></g><g class="infolayer"><g class="legend" pointer-events="all" transform="translate(953.52,40)"><rect class="bg" shape-rendering="crispEdges" style="stroke: rgb(68, 68, 68); stroke-opacity: 1; fill: rgb(255, 255, 255); fill-opacity: 1; stroke-width: 0px;" width="134" height="48" x="0" y="0"/><g class="scrollbox" transform="" clip-path="url(#legendf94f42)"><g class="groups"><g class="traces" transform="translate(0,14.5)" style="opacity: 1;"><text class="legendtext" text-anchor="start" x="40" y="4.680000000000001" style="font-family: 'Open Sans', verdana, arial, sans-serif; font-size: 12px; fill: rgb(68, 68, 68); fill-opacity: 1; white-space: pre;">V̇O​<tspan style="font-size:70%" dy="0.3em">2</tspan><tspan dy="-0.21em">​</tspan></text><g class="layers" style="opacity: 1;"><g class="legendfill"/><g class="legendlines"><path class="js-line" d="M5,0h30" style="fill: none; stroke: rgb(38, 131, 198); stroke-opacity: 1; stroke-dasharray: 4, 4; stroke-width: 0.65px;"/></g><g class="legendsymbols"><g class="legendpoints"><path class="scatterpts" transform="translate(20,0)" d="M2.5,0A2.5,2.5 0 1,1 0,-2.5A2.5,2.5 0 0,1 2.5,0Z" style="opacity: 1; stroke-width: 0px; fill: rgb(38, 131, 198); fill-opacity: 0.9;"/></g></g></g><rect class="legendtoggle" x="0" y="-9.5" width="128.015625" height="19" style="fill: rgb(0, 0, 0); fill-opacity: 0;"/></g><g class="traces" transform="translate(0,33.5)" style="opacity: 1;"><text class="legendtext" text-anchor="start" x="40" y="4.680000000000001" style="font-family: 'Open Sans', verdana, arial, sans-serif; font-size: 12px; fill: rgb(68, 68, 68); fill-opacity: 1; white-space: pre;">Modellfunktion</text><g class="layers" style="opacity: 1;"><g class="legendfill"/><g class="legendlines"><path class="js-line" d="M5,0h30" style="fill: none; stroke: rgb(239, 111, 106); stroke-opacity: 1; stroke-width: 2px;"/></g><g class="legendsymbols"><g class="legendpoints"/></g></g><rect class="legendtoggle" x="0" y="-9.5" width="128.015625" height="19" style="fill: rgb(0, 0, 0); fill-opacity: 0;"/></g></g></g><rect class="scrollbar" rx="20" ry="3" width="0" height="0" style="fill: rgb(128, 139, 164); fill-opacity: 1;" x="0" y="0"/></g><g class="g-gtitle"><text class="gtitle" x="550" y="20" text-anchor="middle" dy="0em" style="font-family: 'Open Sans', verdana, arial, sans-serif; font-size: 17px; fill: rgb(68, 68, 68); opacity: 1; font-weight: normal; white-space: pre;">V̇O₂ für Test_15_4_stehen_moderat</text></g><g class="g-xtitle"><text class="xtitle" x="498" y="442" text-anchor="middle" style="font-family: 'Open Sans', verdana, arial, sans-serif; font-size: 14px; fill: rgb(68, 68, 68); opacity: 1; font-weight: normal; white-space: pre;">Zeit [s]</text></g><g class="g-ytitle"><text class="ytitle" transform="rotate(-90,22,215)" x="22" y="215" text-anchor="middle" style="font-family: 'Open Sans', verdana, arial, sans-serif; font-size: 14px; fill: rgb(68, 68, 68); opacity: 1; font-weight: normal; white-space: pre;">V̇O​<tspan style="font-size:70%" dy="0.3em">2</tspan><tspan dy="-0.21em">​</tspan> [l·min​<tspan style="font-size:70%" dy="-0.6em">-1</tspan><tspan dy="0.42em">​</tspan>]</text></g><g class="annotation" data-index="0" style="opacity: 1;"><g class="annotation-text-g" transform="rotate(-90,103.08,65.42)"><g class="cursor-pointer" transform="translate(67,56)"><rect class="bg" x="0.5" y="0.5" width="72" height="18" style="stroke-width: 1px; stroke: rgb(0, 0, 0); stroke-opacity: 0; fill: rgb(0, 0, 0); fill-opacity: 0;"/><text class="annotation-text" text-anchor="middle" x="36.203125" y="13" style="font-family: 'Open Sans', verdana, arial, sans-serif; font-size: 11px; fill: rgb(68, 68, 68); fill-opacity: 1; white-space: pre;">t​<tspan style="font-size:70%" dy="0.3em">delay</tspan><tspan dy="-0.21em">​</tspan>: 13.8 s</text></g></g></g><g class="annotation" data-index="1" style="opacity: 1;"><g class="annotation-text-g" transform="rotate(-90,216.87,74.92)"><g class="cursor-pointer" transform="translate(190,66)"><rect class="bg" x="0.5" y="0.5" width="53" height="16" style="stroke-width: 1px; stroke: rgb(0, 0, 0); stroke-opacity: 0; fill: rgb(0, 0, 0); fill-opacity: 0;"/><text class="annotation-text" text-anchor="middle" x="27.453125" y="13" style="font-family: 'Open Sans', verdana, arial, sans-serif; font-size: 11px; fill: rgb(68, 68, 68); fill-opacity: 1; white-space: pre;">τ: 47.2 s</text></g></g></g><g class="annotation" data-index="2" style="opacity: 1;"><g class="annotation-text-g" transform="rotate(-90,561.23,68.42)"><g class="cursor-pointer" transform="translate(528,60)"><rect class="bg" x="0.5" y="0.5" width="66" height="16" style="stroke-width: 1px; stroke: rgb(0, 0, 0); stroke-opacity: 0; fill: rgb(0, 0, 0); fill-opacity: 0;"/><text class="annotation-text" text-anchor="middle" x="33.453125" y="13" style="font-family: 'Open Sans', verdana, arial, sans-serif; font-size: 11px; fill: rgb(68, 68, 68); fill-opacity: 1; white-space: pre;">4τ: 188.7 s</text></g></g></g><g class="annotation" data-index="3" style="opacity: 1;"><g class="annotation-text-g" transform="rotate(0,629.36,262.53999999999996)"><g class="cursor-pointer" transform="translate(606,254)"><rect class="bg" x="0.5" y="0.5" width="46" height="17" style="stroke-width: 1px; stroke: rgb(0, 0, 0); stroke-opacity: 0; fill: rgb(0, 0, 0); fill-opacity: 0;"/><text class="annotation-text" text-anchor="middle" x="23.34375" y="13" style="font-family: Arial, sans-serif; font-size: 12px; fill: rgb(0, 0, 0); fill-opacity: 1; white-space: pre;">R²: 0.91</text></g></g></g><g class="annotation" data-index="4" style="opacity: 1;"><g class="annotation-text-g" transform="rotate(0,716.36,245.38)"><g class="cursor-pointer" transform="translate(606,235)"><rect class="bg" x="0.5" y="0.5" width="220" height="19" style="stroke-width: 1px; stroke: rgb(0, 0, 0); stroke-opacity: 0; fill: rgb(0, 0, 0); fill-opacity: 0;"/><text class="annotation-text" text-anchor="middle" x="110.421875" y="15.046875" style="font-family: Arial, sans-serif; font-size: 12px; fill: rgb(0, 0, 0); fill-opacity: 1; white-space: pre;">V̇O₂(t) = 2.88 * (1 - e​<tspan style="font-size:70%" dy="-0.6em">-(t - 13.80) / 47.17</tspan><tspan dy="0.42em">​</tspan>) + 1.67</text></g></g></g><g class="annotation" data-index="5" style="opacity: 1;"><g class="annotation-text-g" transform="rotate(0,649.86,293.85)"><g class="cursor-pointer" transform="translate(606,284)"><rect class="bg" x="0.5" y="0.5" width="87" height="19" style="stroke-width: 1px; stroke: rgb(0, 0, 0); stroke-opacity: 0; fill: rgb(0, 0, 0); fill-opacity: 0;"/><text class="annotation-text" text-anchor="middle" x="43.953125" y="13.125" style="font-family: Arial, sans-serif; font-size: 12px; fill: rgb(0, 0, 0); fill-opacity: 1; white-space: pre;">V̇O​<tspan style="font-size:70%" dy="0.3em">2net,SS</tspan><tspan dy="-0.21em">​</tspan>: 4.101</text></g></g></g><g class="annotation" data-index="6" style="opacity: 1;"><g class="annotation-text-g" transform="rotate(0,245.06,358.49)"><g class="cursor-pointer" transform="translate(206,349)"><rect class="bg" x="0.5" y="0.5" width="78" height="17" style="stroke-width: 1px; stroke: rgb(0, 0, 0); stroke-opacity: 0; fill: rgb(0, 0, 0); fill-opacity: 0;"/><text class="annotation-text" text-anchor="middle" x="40.1875" y="12" style="font-family: Arial, sans-serif; font-size: 11px; fill: rgb(0, 0, 0); fill-opacity: 1; white-space: pre;">V̇O​<tspan style="font-size:70%" dy="0.3em">2,Ruhe</tspan><tspan dy="-0.21em">​</tspan>: 0.398</text></g></g></g><g class="annotation" data-index="7" style="opacity: 1;"><g class="annotation-text-g" transform="rotate(0,250.56,137.67000000000002)"><g class="cursor-pointer" transform="translate(206,129)"><rect class="bg" x="0.5" y="0.5" width="89" height="17" style="stroke-width: 1px; stroke: rgb(0, 0, 0); stroke-opacity: 0; fill: rgb(0, 0, 0); fill-opacity: 0;"/><text class="annotation-text" text-anchor="middle" x="45.53125" y="12" style="font-family: Arial, sans-serif; font-size: 11px; fill: rgb(0, 0, 0); fill-opacity: 1; white-space: pre;">V̇O​<tspan style="font-size:70%" dy="0.3em">2gross,SS</tspan><tspan dy="-0.21em">​</tspan>: 4.499</text></g></g></g><g class="annotation" data-index="8" style="opacity: 1;"><g class="annotation-text-g" transform="rotate(0,632.36,277.69)"><g class="cursor-pointer" transform="translate(606,268)"><rect class="bg" x="0.5" y="0.5" width="52" height="19" style="stroke-width: 1px; stroke: rgb(0, 0, 0); stroke-opacity: 0; fill: rgb(0, 0, 0); fill-opacity: 0;"/><text class="annotation-text" text-anchor="middle" x="26.515625" y="13" style="font-family: Arial, sans-serif; font-size: 12px; fill: rgb(0, 0, 0); fill-opacity: 1; white-space: pre;">T​<tspan style="font-size:70%" dy="0.3em">1/2</tspan><tspan dy="-0.21em">​</tspan>: 32.7</text></g></g></g></g></svg>