<svg class="main-svg" xmlns="http://www.w3.org/2000/svg" xmlns:xlink="http://www.w3.org/1999/xlink" width="1100" height="450" style="" viewBox="0 0 1100 450"><rect x="0" y="0" width="1100" height="450" style="fill: rgb(255, 255, 255); fill-opacity: 1;"/><defs id="defs-f3be86"><g class="clips"><clipPath id="clipf3be86xyplot" class="plotclip"><rect width="876" height="350"/></clipPath><clipPath class="axesclip" id="clipf3be86x"><rect x="60" y="0" width="876" height="450"/></clipPath><clipPath class="axesclip" id="clipf3be86y"><rect x="0" y="40" width="1100" height="350"/></clipPath><clipPath class="axesclip" id="clipf3be86xy"><rect x="60" y="40" width="876" height="350"/></clipPath></g><g class="gradients"/><g class="patterns"/></defs><g class="bglayer"/><g class="layer-below"><g class="imagelayer"/><g class="shapelayer"/></g><g class="cartesianlayer"><g class="subplot xy"><g class="layer-subplot"><g class="shapelayer"/><g class="imagelayer"/></g><g class="gridlayer"><g class="x"><path class="xgrid crisp" transform="translate(181.67000000000002,0)" d="M0,40v350" style="stroke: rgb(238, 238, 238); stroke-opacity: 1; stroke-width: 1px;"/><path class="xgrid crisp" transform="translate(303.33000000000004,0)" d="M0,40v350" style="stroke: rgb(238, 238, 238); stroke-opacity: 1; stroke-width: 1px;"/><path class="xgrid crisp" transform="translate(425,0)" d="M0,40v350" style="stroke: rgb(238, 238, 238); stroke-opacity: 1; stroke-width: 1px;"/><path class="xgrid crisp" transform="translate(546.6700000000001,0)" d="M0,40v350" style="stroke: rgb(238, 238, 238); stroke-opacity: 1; stroke-width: 1px;"/><path class="xgrid crisp" transform="translate(668.33,0)" d="M0,40v350" style="stroke: rgb(238, 238, 238); stroke-opacity: 1; stroke-width: 1px;"/><path class="xgrid crisp" transform="translate(790,0)" d="M0,40v350" style="stroke: rgb(238, 238, 238); stroke-opacity: 1; stroke-width: 1px;"/><path class="xgrid crisp" transform="translate(911.67,0)" d="M0,40v350" style="stroke: rgb(238, 238, 238); stroke-opacity: 1; stroke-width: 1px;"/></g><g class="y"><path class="ygrid crisp" transform="translate(0,336.15)" d="M60,0h876" style="stroke: rgb(238, 238, 238); stroke-opacity: 1; stroke-width: 1px;"/><path class="ygrid crisp" transform="translate(0,282.31)" d="M60,0h876" style="stroke: rgb(238, 238, 238); stroke-opacity: 1; stroke-width: 1px;"/><path class="ygrid crisp" transform="translate(0,228.46)" d="M60,0h876" style="stroke: rgb(238, 238, 238); stroke-opacity: 1; stroke-width: 1px;"/><path class="ygrid crisp" transform="translate(0,174.62)" d="M60,0h876" style="stroke: rgb(238, 238, 238); stroke-opacity: 1; stroke-width: 1px;"/><path class="ygrid crisp" transform="translate(0,120.77)" d="M60,0h876" style="stroke: rgb(238, 238, 238); stroke-opacity: 1; stroke-width: 1px;"/><path class="ygrid crisp" transform="translate(0,66.92)" d="M60,0h876" style="stroke: rgb(238, 238, 238); stroke-opacity: 1; stroke-width: 1px;"/></g></g><g class="zerolinelayer"><path class="xzl zl crisp" transform="translate(60,0)" d="M0,40v350" style="stroke: rgb(68, 68, 68); stroke-opacity: 1; stroke-width: 1px;"/><path class="yzl zl crisp" transform="translate(0,390)" d="M60,0h876" style="stroke: rgb(68, 68, 68); stroke-opacity: 1; stroke-width: 1px;"/></g><path class="xlines-below"/><path class="ylines-below"/><g class="overlines-below"/><g class="xaxislayer-below"/><g class="yaxislayer-below"/><g class="overaxes-below"/><g class="plot" transform="translate(60,40)" clip-path="url(#clipf3be86xyplot)"><g class="scatterlayer mlayer"><g class="trace scatter tracea29882" style="stroke-miterlimit: 2; opacity: 1;"><g class="fills"/><g class="errorbars"/><g class="lines"><path class="js-line" d="M19.22,264.49L29.2,259.38L36.74,245.32L47.94,241.34L55.72,230.61L64.73,223.07L75.19,217.39L85.41,213.55L97.33,201.85L106.58,184.78L115.83,179.33L124.1,186.29L132.62,175.72L140.16,170.73L147.95,166.85L155,170.58L163.03,169.17L170.09,163.93L177.15,167.68L182.5,162.92L188.1,168.09L202.7,161.99L209.51,156.73L216.32,155.2L220.7,158.85L226.54,154.38L233.36,154.45L239.44,151.36L246.01,149.21L252.82,145.08L259.15,147.04L272.53,153.53L279.1,152.73L285.43,154.65L292,148.65L298.57,139.57L305.38,140.75L312.2,140.32L318.77,149.67L345.29,154.05L351.86,147.9L358.67,145.46L365.73,141.06L371.81,146.23L378.38,145.29L384.47,147.81L391.52,140.84L398.09,143.61L404.66,137.52L410.99,146.46L417.8,149.35L424.13,156.49L430.46,147.43L437.03,140.79L443.6,137.49L449.44,147.22L455.03,147.81L460.63,142.19L467.2,138.29L473.77,138.22L480.1,139.96L492.99,141.17L499.32,148.22L505.89,146.37L512.46,143.37L518.79,137.45L525.36,140.2L531.68,146.3L539.23,146.55L546.53,147.14L553.1,135.12L559.67,139.16L565.99,136.57L571.59,144.4L578.4,136.21L584.73,141.71L592.27,143.23L599.33,145.08L606.14,138.03L612.71,130.51L619.28,134.06L626.1,133.83L632.67,137.94L645.56,138.26L650.92,140.9L661.14,134.72L666.98,128.84L671.84,131.87L705.18,130.25L711.75,134.79L718.32,138.4L724.4,134.6" style="vector-effect: non-scaling-stroke; fill: none; stroke: rgb(38, 131, 198); stroke-opacity: 1; stroke-width: 0.65px; opacity: 1; stroke-dasharray: 4, 4;"/></g><g class="points"><path class="point" transform="translate(19.22,264.49)" d="M2.5,0A2.5,2.5 0 1,1 0,-2.5A2.5,2.5 0 0,1 2.5,0Z" style="opacity: 1; stroke-width: 0px; fill: rgb(38, 131, 198); fill-opacity: 0.9;"/><path class="point" transform="translate(29.2,259.38)" d="M2.5,0A2.5,2.5 0 1,1 0,-2.5A2.5,2.5 0 0,1 2.5,0Z" style="opacity: 1; stroke-width: 0px; fill: rgb(38, 131, 198); fill-opacity: 0.9;"/><path class="point" transform="translate(36.74,245.32)" d="M2.5,0A2.5,2.5 0 1,1 0,-2.5A2.5,2.5 0 0,1 2.5,0Z" style="opacity: 1; stroke-width: 0px; fill: rgb(38, 131, 198); fill-opacity: 0.9;"/><path class="point" transform="translate(47.94,241.34)" d="M2.5,0A2.5,2.5 0 1,1 0,-2.5A2.5,2.5 0 0,1 2.5,0Z" style="opacity: 1; stroke-width: 0px; fill: rgb(38, 131, 198); fill-opacity: 0.9;"/><path class="point" transform="translate(55.72,230.61)" d="M2.5,0A2.5,2.5 0 1,1 0,-2.5A2.5,2.5 0 0,1 2.5,0Z" style="opacity: 1; stroke-width: 0px; fill: rgb(38, 131, 198); fill-opacity: 0.9;"/><path class="point" transform="translate(64.73,223.07)" d="M2.5,0A2.5,2.5 0 1,1 0,-2.5A2.5,2.5 0 0,1 2.5,0Z" style="opacity: 1; stroke-width: 0px; fill: rgb(38, 131, 198); fill-opacity: 0.9;"/><path class="point" transform="translate(75.19,217.39)" d="M2.5,0A2.5,2.5 0 1,1 0,-2.5A2.5,2.5 0 0,1 2.5,0Z" style="opacity: 1; stroke-width: 0px; fill: rgb(38, 131, 198); fill-opacity: 0.9;"/><path class="point" transform="translate(85.41,213.55)" d="M2.5,0A2.5,2.5 0 1,1 0,-2.5A2.5,2.5 0 0,1 2.5,0Z" style="opacity: 1; stroke-width: 0px; fill: rgb(38, 131, 198); fill-opacity: 0.9;"/><path class="point" transform="translate(97.33,201.85)" d="M2.5,0A2.5,2.5 0 1,1 0,-2.5A2.5,2.5 0 0,1 2.5,0Z" style="opacity: 1; stroke-width: 0px; fill: rgb(38, 131, 198); fill-opacity: 0.9;"/><path class="point" transform="translate(106.58,184.78)" d="M2.5,0A2.5,2.5 0 1,1 0,-2.5A2.5,2.5 0 0,1 2.5,0Z" style="opacity: 1; stroke-width: 0px; fill: rgb(38, 131, 198); fill-opacity: 0.9;"/><path class="point" transform="translate(115.83,179.33)" d="M2.5,0A2.5,2.5 0 1,1 0,-2.5A2.5,2.5 0 0,1 2.5,0Z" style="opacity: 1; stroke-width: 0px; fill: rgb(38, 131, 198); fill-opacity: 0.9;"/><path class="point" transform="translate(124.1,186.29)" d="M2.5,0A2.5,2.5 0 1,1 0,-2.5A2.5,2.5 0 0,1 2.5,0Z" style="opacity: 1; stroke-width: 0px; fill: rgb(38, 131, 198); fill-opacity: 0.9;"/><path class="point" transform="translate(132.62,175.72)" d="M2.5,0A2.5,2.5 0 1,1 0,-2.5A2.5,2.5 0 0,1 2.5,0Z" style="opacity: 1; stroke-width: 0px; fill: rgb(38, 131, 198); fill-opacity: 0.9;"/><path class="point" transform="translate(140.16,170.73)" d="M2.5,0A2.5,2.5 0 1,1 0,-2.5A2.5,2.5 0 0,1 2.5,0Z" style="opacity: 1; stroke-width: 0px; fill: rgb(38, 131, 198); fill-opacity: 0.9;"/><path class="point" transform="translate(147.95,166.85)" d="M2.5,0A2.5,2.5 0 1,1 0,-2.5A2.5,2.5 0 0,1 2.5,0Z" style="opacity: 1; stroke-width: 0px; fill: rgb(38, 131, 198); fill-opacity: 0.9;"/><path class="point" transform="translate(155,170.58)" d="M2.5,0A2.5,2.5 0 1,1 0,-2.5A2.5,2.5 0 0,1 2.5,0Z" style="opacity: 1; stroke-width: 0px; fill: rgb(38, 131, 198); fill-opacity: 0.9;"/><path class="point" transform="translate(163.03,169.17)" d="M2.5,0A2.5,2.5 0 1,1 0,-2.5A2.5,2.5 0 0,1 2.5,0Z" style="opacity: 1; stroke-width: 0px; fill: rgb(38, 131, 198); fill-opacity: 0.9;"/><path class="point" transform="translate(170.09,163.93)" d="M2.5,0A2.5,2.5 0 1,1 0,-2.5A2.5,2.5 0 0,1 2.5,0Z" style="opacity: 1; stroke-width: 0px; fill: rgb(38, 131, 198); fill-opacity: 0.9;"/><path class="point" transform="translate(177.15,167.68)" d="M2.5,0A2.5,2.5 0 1,1 0,-2.5A2.5,2.5 0 0,1 2.5,0Z" style="opacity: 1; stroke-width: 0px; fill: rgb(38, 131, 198); fill-opacity: 0.9;"/><path class="point" transform="translate(182.5,162.92)" d="M2.5,0A2.5,2.5 0 1,1 0,-2.5A2.5,2.5 0 0,1 2.5,0Z" style="opacity: 1; stroke-width: 0px; fill: rgb(38, 131, 198); fill-opacity: 0.9;"/><path class="point" transform="translate(188.1,168.09)" d="M2.5,0A2.5,2.5 0 1,1 0,-2.5A2.5,2.5 0 0,1 2.5,0Z" style="opacity: 1; stroke-width: 0px; fill: rgb(38, 131, 198); fill-opacity: 0.9;"/><path class="point" transform="translate(195.15,165.4)" d="M2.5,0A2.5,2.5 0 1,1 0,-2.5A2.5,2.5 0 0,1 2.5,0Z" style="opacity: 1; stroke-width: 0px; fill: rgb(38, 131, 198); fill-opacity: 0.9;"/><path class="point" transform="translate(202.7,161.99)" d="M2.5,0A2.5,2.5 0 1,1 0,-2.5A2.5,2.5 0 0,1 2.5,0Z" style="opacity: 1; stroke-width: 0px; fill: rgb(38, 131, 198); fill-opacity: 0.9;"/><path class="point" transform="translate(209.51,156.73)" d="M2.5,0A2.5,2.5 0 1,1 0,-2.5A2.5,2.5 0 0,1 2.5,0Z" style="opacity: 1; stroke-width: 0px; fill: rgb(38, 131, 198); fill-opacity: 0.9;"/><path class="point" transform="translate(216.32,155.2)" d="M2.5,0A2.5,2.5 0 1,1 0,-2.5A2.5,2.5 0 0,1 2.5,0Z" style="opacity: 1; stroke-width: 0px; fill: rgb(38, 131, 198); fill-opacity: 0.9;"/><path class="point" transform="translate(220.7,158.85)" d="M2.5,0A2.5,2.5 0 1,1 0,-2.5A2.5,2.5 0 0,1 2.5,0Z" style="opacity: 1; stroke-width: 0px; fill: rgb(38, 131, 198); fill-opacity: 0.9;"/><path class="point" transform="translate(226.54,154.38)" d="M2.5,0A2.5,2.5 0 1,1 0,-2.5A2.5,2.5 0 0,1 2.5,0Z" style="opacity: 1; stroke-width: 0px; fill: rgb(38, 131, 198); fill-opacity: 0.9;"/><path class="point" transform="translate(233.36,154.45)" d="M2.5,0A2.5,2.5 0 1,1 0,-2.5A2.5,2.5 0 0,1 2.5,0Z" style="opacity: 1; stroke-width: 0px; fill: rgb(38, 131, 198); fill-opacity: 0.9;"/><path class="point" transform="translate(239.44,151.36)" d="M2.5,0A2.5,2.5 0 1,1 0,-2.5A2.5,2.5 0 0,1 2.5,0Z" style="opacity: 1; stroke-width: 0px; fill: rgb(38, 131, 198); fill-opacity: 0.9;"/><path class="point" transform="translate(246.01,149.21)" d="M2.5,0A2.5,2.5 0 1,1 0,-2.5A2.5,2.5 0 0,1 2.5,0Z" style="opacity: 1; stroke-width: 0px; fill: rgb(38, 131, 198); fill-opacity: 0.9;"/><path class="point" transform="translate(252.82,145.08)" d="M2.5,0A2.5,2.5 0 1,1 0,-2.5A2.5,2.5 0 0,1 2.5,0Z" style="opacity: 1; stroke-width: 0px; fill: rgb(38, 131, 198); fill-opacity: 0.9;"/><path class="point" transform="translate(259.15,147.04)" d="M2.5,0A2.5,2.5 0 1,1 0,-2.5A2.5,2.5 0 0,1 2.5,0Z" style="opacity: 1; stroke-width: 0px; fill: rgb(38, 131, 198); fill-opacity: 0.9;"/><path class="point" transform="translate(265.48,150.07)" d="M2.5,0A2.5,2.5 0 1,1 0,-2.5A2.5,2.5 0 0,1 2.5,0Z" style="opacity: 1; stroke-width: 0px; fill: rgb(38, 131, 198); fill-opacity: 0.9;"/><path class="point" transform="translate(272.53,153.53)" d="M2.5,0A2.5,2.5 0 1,1 0,-2.5A2.5,2.5 0 0,1 2.5,0Z" style="opacity: 1; stroke-width: 0px; fill: rgb(38, 131, 198); fill-opacity: 0.9;"/><path class="point" transform="translate(279.1,152.73)" d="M2.5,0A2.5,2.5 0 1,1 0,-2.5A2.5,2.5 0 0,1 2.5,0Z" style="opacity: 1; stroke-width: 0px; fill: rgb(38, 131, 198); fill-opacity: 0.9;"/><path class="point" transform="translate(285.43,154.65)" d="M2.5,0A2.5,2.5 0 1,1 0,-2.5A2.5,2.5 0 0,1 2.5,0Z" style="opacity: 1; stroke-width: 0px; fill: rgb(38, 131, 198); fill-opacity: 0.9;"/><path class="point" transform="translate(292,148.65)" d="M2.5,0A2.5,2.5 0 1,1 0,-2.5A2.5,2.5 0 0,1 2.5,0Z" style="opacity: 1; stroke-width: 0px; fill: rgb(38, 131, 198); fill-opacity: 0.9;"/><path class="point" transform="translate(298.57,139.57)" d="M2.5,0A2.5,2.5 0 1,1 0,-2.5A2.5,2.5 0 0,1 2.5,0Z" style="opacity: 1; stroke-width: 0px; fill: rgb(38, 131, 198); fill-opacity: 0.9;"/><path class="point" transform="translate(305.38,140.75)" d="M2.5,0A2.5,2.5 0 1,1 0,-2.5A2.5,2.5 0 0,1 2.5,0Z" style="opacity: 1; stroke-width: 0px; fill: rgb(38, 131, 198); fill-opacity: 0.9;"/><path class="point" transform="translate(312.2,140.32)" d="M2.5,0A2.5,2.5 0 1,1 0,-2.5A2.5,2.5 0 0,1 2.5,0Z" style="opacity: 1; stroke-width: 0px; fill: rgb(38, 131, 198); fill-opacity: 0.9;"/><path class="point" transform="translate(318.77,149.67)" d="M2.5,0A2.5,2.5 0 1,1 0,-2.5A2.5,2.5 0 0,1 2.5,0Z" style="opacity: 1; stroke-width: 0px; fill: rgb(38, 131, 198); fill-opacity: 0.9;"/><path class="point" transform="translate(345.29,154.05)" d="M2.5,0A2.5,2.5 0 1,1 0,-2.5A2.5,2.5 0 0,1 2.5,0Z" style="opacity: 1; stroke-width: 0px; fill: rgb(38, 131, 198); fill-opacity: 0.9;"/><path class="point" transform="translate(351.86,147.9)" d="M2.5,0A2.5,2.5 0 1,1 0,-2.5A2.5,2.5 0 0,1 2.5,0Z" style="opacity: 1; stroke-width: 0px; fill: rgb(38, 131, 198); fill-opacity: 0.9;"/><path class="point" transform="translate(358.67,145.46)" d="M2.5,0A2.5,2.5 0 1,1 0,-2.5A2.5,2.5 0 0,1 2.5,0Z" style="opacity: 1; stroke-width: 0px; fill: rgb(38, 131, 198); fill-opacity: 0.9;"/><path class="point" transform="translate(365.73,141.06)" d="M2.5,0A2.5,2.5 0 1,1 0,-2.5A2.5,2.5 0 0,1 2.5,0Z" style="opacity: 1; stroke-width: 0px; fill: rgb(38, 131, 198); fill-opacity: 0.9;"/><path class="point" transform="translate(371.81,146.23)" d="M2.5,0A2.5,2.5 0 1,1 0,-2.5A2.5,2.5 0 0,1 2.5,0Z" style="opacity: 1; stroke-width: 0px; fill: rgb(38, 131, 198); fill-opacity: 0.9;"/><path class="point" transform="translate(378.38,145.29)" d="M2.5,0A2.5,2.5 0 1,1 0,-2.5A2.5,2.5 0 0,1 2.5,0Z" style="opacity: 1; stroke-width: 0px; fill: rgb(38, 131, 198); fill-opacity: 0.9;"/><path class="point" transform="translate(384.47,147.81)" d="M2.5,0A2.5,2.5 0 1,1 0,-2.5A2.5,2.5 0 0,1 2.5,0Z" style="opacity: 1; stroke-width: 0px; fill: rgb(38, 131, 198); fill-opacity: 0.9;"/><path class="point" transform="translate(391.52,140.84)" d="M2.5,0A2.5,2.5 0 1,1 0,-2.5A2.5,2.5 0 0,1 2.5,0Z" style="opacity: 1; stroke-width: 0px; fill: rgb(38, 131, 198); fill-opacity: 0.9;"/><path class="point" transform="translate(398.09,143.61)" d="M2.5,0A2.5,2.5 0 1,1 0,-2.5A2.5,2.5 0 0,1 2.5,0Z" style="opacity: 1; stroke-width: 0px; fill: rgb(38, 131, 198); fill-opacity: 0.9;"/><path class="point" transform="translate(404.66,137.52)" d="M2.5,0A2.5,2.5 0 1,1 0,-2.5A2.5,2.5 0 0,1 2.5,0Z" style="opacity: 1; stroke-width: 0px; fill: rgb(38, 131, 198); fill-opacity: 0.9;"/><path class="point" transform="translate(410.99,146.46)" d="M2.5,0A2.5,2.5 0 1,1 0,-2.5A2.5,2.5 0 0,1 2.5,0Z" style="opacity: 1; stroke-width: 0px; fill: rgb(38, 131, 198); fill-opacity: 0.9;"/><path class="point" transform="translate(417.8,149.35)" d="M2.5,0A2.5,2.5 0 1,1 0,-2.5A2.5,2.5 0 0,1 2.5,0Z" style="opacity: 1; stroke-width: 0px; fill: rgb(38, 131, 198); fill-opacity: 0.9;"/><path class="point" transform="translate(424.13,156.49)" d="M2.5,0A2.5,2.5 0 1,1 0,-2.5A2.5,2.5 0 0,1 2.5,0Z" style="opacity: 1; stroke-width: 0px; fill: rgb(38, 131, 198); fill-opacity: 0.9;"/><path class="point" transform="translate(430.46,147.43)" d="M2.5,0A2.5,2.5 0 1,1 0,-2.5A2.5,2.5 0 0,1 2.5,0Z" style="opacity: 1; stroke-width: 0px; fill: rgb(38, 131, 198); fill-opacity: 0.9;"/><path class="point" transform="translate(437.03,140.79)" d="M2.5,0A2.5,2.5 0 1,1 0,-2.5A2.5,2.5 0 0,1 2.5,0Z" style="opacity: 1; stroke-width: 0px; fill: rgb(38, 131, 198); fill-opacity: 0.9;"/><path class="point" transform="translate(443.6,137.49)" d="M2.5,0A2.5,2.5 0 1,1 0,-2.5A2.5,2.5 0 0,1 2.5,0Z" style="opacity: 1; stroke-width: 0px; fill: rgb(38, 131, 198); fill-opacity: 0.9;"/><path class="point" transform="translate(449.44,147.22)" d="M2.5,0A2.5,2.5 0 1,1 0,-2.5A2.5,2.5 0 0,1 2.5,0Z" style="opacity: 1; stroke-width: 0px; fill: rgb(38, 131, 198); fill-opacity: 0.9;"/><path class="point" transform="translate(455.03,147.81)" d="M2.5,0A2.5,2.5 0 1,1 0,-2.5A2.5,2.5 0 0,1 2.5,0Z" style="opacity: 1; stroke-width: 0px; fill: rgb(38, 131, 198); fill-opacity: 0.9;"/><path class="point" transform="translate(460.63,142.19)" d="M2.5,0A2.5,2.5 0 1,1 0,-2.5A2.5,2.5 0 0,1 2.5,0Z" style="opacity: 1; stroke-width: 0px; fill: rgb(38, 131, 198); fill-opacity: 0.9;"/><path class="point" transform="translate(467.2,138.29)" d="M2.5,0A2.5,2.5 0 1,1 0,-2.5A2.5,2.5 0 0,1 2.5,0Z" style="opacity: 1; stroke-width: 0px; fill: rgb(38, 131, 198); fill-opacity: 0.9;"/><path class="point" transform="translate(473.77,138.22)" d="M2.5,0A2.5,2.5 0 1,1 0,-2.5A2.5,2.5 0 0,1 2.5,0Z" style="opacity: 1; stroke-width: 0px; fill: rgb(38, 131, 198); fill-opacity: 0.9;"/><path class="point" transform="translate(480.1,139.96)" d="M2.5,0A2.5,2.5 0 1,1 0,-2.5A2.5,2.5 0 0,1 2.5,0Z" style="opacity: 1; stroke-width: 0px; fill: rgb(38, 131, 198); fill-opacity: 0.9;"/><path class="point" transform="translate(486.67,140.23)" d="M2.5,0A2.5,2.5 0 1,1 0,-2.5A2.5,2.5 0 0,1 2.5,0Z" style="opacity: 1; stroke-width: 0px; fill: rgb(38, 131, 198); fill-opacity: 0.9;"/><path class="point" transform="translate(492.99,141.17)" d="M2.5,0A2.5,2.5 0 1,1 0,-2.5A2.5,2.5 0 0,1 2.5,0Z" style="opacity: 1; stroke-width: 0px; fill: rgb(38, 131, 198); fill-opacity: 0.9;"/><path class="point" transform="translate(499.32,148.22)" d="M2.5,0A2.5,2.5 0 1,1 0,-2.5A2.5,2.5 0 0,1 2.5,0Z" style="opacity: 1; stroke-width: 0px; fill: rgb(38, 131, 198); fill-opacity: 0.9;"/><path class="point" transform="translate(505.89,146.37)" d="M2.5,0A2.5,2.5 0 1,1 0,-2.5A2.5,2.5 0 0,1 2.5,0Z" style="opacity: 1; stroke-width: 0px; fill: rgb(38, 131, 198); fill-opacity: 0.9;"/><path class="point" transform="translate(512.46,143.37)" d="M2.5,0A2.5,2.5 0 1,1 0,-2.5A2.5,2.5 0 0,1 2.5,0Z" style="opacity: 1; stroke-width: 0px; fill: rgb(38, 131, 198); fill-opacity: 0.9;"/><path class="point" transform="translate(518.79,137.45)" d="M2.5,0A2.5,2.5 0 1,1 0,-2.5A2.5,2.5 0 0,1 2.5,0Z" style="opacity: 1; stroke-width: 0px; fill: rgb(38, 131, 198); fill-opacity: 0.9;"/><path class="point" transform="translate(525.36,140.2)" d="M2.5,0A2.5,2.5 0 1,1 0,-2.5A2.5,2.5 0 0,1 2.5,0Z" style="opacity: 1; stroke-width: 0px; fill: rgb(38, 131, 198); fill-opacity: 0.9;"/><path class="point" transform="translate(531.68,146.3)" d="M2.5,0A2.5,2.5 0 1,1 0,-2.5A2.5,2.5 0 0,1 2.5,0Z" style="opacity: 1; stroke-width: 0px; fill: rgb(38, 131, 198); fill-opacity: 0.9;"/><path class="point" transform="translate(539.23,146.55)" d="M2.5,0A2.5,2.5 0 1,1 0,-2.5A2.5,2.5 0 0,1 2.5,0Z" style="opacity: 1; stroke-width: 0px; fill: rgb(38, 131, 198); fill-opacity: 0.9;"/><path class="point" transform="translate(546.53,147.14)" d="M2.5,0A2.5,2.5 0 1,1 0,-2.5A2.5,2.5 0 0,1 2.5,0Z" style="opacity: 1; stroke-width: 0px; fill: rgb(38, 131, 198); fill-opacity: 0.9;"/><path class="point" transform="translate(553.1,135.12)" d="M2.5,0A2.5,2.5 0 1,1 0,-2.5A2.5,2.5 0 0,1 2.5,0Z" style="opacity: 1; stroke-width: 0px; fill: rgb(38, 131, 198); fill-opacity: 0.9;"/><path class="point" transform="translate(559.67,139.16)" d="M2.5,0A2.5,2.5 0 1,1 0,-2.5A2.5,2.5 0 0,1 2.5,0Z" style="opacity: 1; stroke-width: 0px; fill: rgb(38, 131, 198); fill-opacity: 0.9;"/><path class="point" transform="translate(565.99,136.57)" d="M2.5,0A2.5,2.5 0 1,1 0,-2.5A2.5,2.5 0 0,1 2.5,0Z" style="opacity: 1; stroke-width: 0px; fill: rgb(38, 131, 198); fill-opacity: 0.9;"/><path class="point" transform="translate(571.59,144.4)" d="M2.5,0A2.5,2.5 0 1,1 0,-2.5A2.5,2.5 0 0,1 2.5,0Z" style="opacity: 1; stroke-width: 0px; fill: rgb(38, 131, 198); fill-opacity: 0.9;"/><path class="point" transform="translate(578.4,136.21)" d="M2.5,0A2.5,2.5 0 1,1 0,-2.5A2.5,2.5 0 0,1 2.5,0Z" style="opacity: 1; stroke-width: 0px; fill: rgb(38, 131, 198); fill-opacity: 0.9;"/><path class="point" transform="translate(584.73,141.71)" d="M2.5,0A2.5,2.5 0 1,1 0,-2.5A2.5,2.5 0 0,1 2.5,0Z" style="opacity: 1; stroke-width: 0px; fill: rgb(38, 131, 198); fill-opacity: 0.9;"/><path class="point" transform="translate(592.27,143.23)" d="M2.5,0A2.5,2.5 0 1,1 0,-2.5A2.5,2.5 0 0,1 2.5,0Z" style="opacity: 1; stroke-width: 0px; fill: rgb(38, 131, 198); fill-opacity: 0.9;"/><path class="point" transform="translate(599.33,145.08)" d="M2.5,0A2.5,2.5 0 1,1 0,-2.5A2.5,2.5 0 0,1 2.5,0Z" style="opacity: 1; stroke-width: 0px; fill: rgb(38, 131, 198); fill-opacity: 0.9;"/><path class="point" transform="translate(606.14,138.03)" d="M2.5,0A2.5,2.5 0 1,1 0,-2.5A2.5,2.5 0 0,1 2.5,0Z" style="opacity: 1; stroke-width: 0px; fill: rgb(38, 131, 198); fill-opacity: 0.9;"/><path class="point" transform="translate(612.71,130.51)" d="M2.5,0A2.5,2.5 0 1,1 0,-2.5A2.5,2.5 0 0,1 2.5,0Z" style="opacity: 1; stroke-width: 0px; fill: rgb(38, 131, 198); fill-opacity: 0.9;"/><path class="point" transform="translate(619.28,134.06)" d="M2.5,0A2.5,2.5 0 1,1 0,-2.5A2.5,2.5 0 0,1 2.5,0Z" style="opacity: 1; stroke-width: 0px; fill: rgb(38, 131, 198); fill-opacity: 0.9;"/><path class="point" transform="translate(626.1,133.83)" d="M2.5,0A2.5,2.5 0 1,1 0,-2.5A2.5,2.5 0 0,1 2.5,0Z" style="opacity: 1; stroke-width: 0px; fill: rgb(38, 131, 198); fill-opacity: 0.9;"/><path class="point" transform="translate(632.67,137.94)" d="M2.5,0A2.5,2.5 0 1,1 0,-2.5A2.5,2.5 0 0,1 2.5,0Z" style="opacity: 1; stroke-width: 0px; fill: rgb(38, 131, 198); fill-opacity: 0.9;"/><path class="point" transform="translate(639.24,138.03)" d="M2.5,0A2.5,2.5 0 1,1 0,-2.5A2.5,2.5 0 0,1 2.5,0Z" style="opacity: 1; stroke-width: 0px; fill: rgb(38, 131, 198); fill-opacity: 0.9;"/><path class="point" transform="translate(645.56,138.26)" d="M2.5,0A2.5,2.5 0 1,1 0,-2.5A2.5,2.5 0 0,1 2.5,0Z" style="opacity: 1; stroke-width: 0px; fill: rgb(38, 131, 198); fill-opacity: 0.9;"/><path class="point" transform="translate(650.92,140.9)" d="M2.5,0A2.5,2.5 0 1,1 0,-2.5A2.5,2.5 0 0,1 2.5,0Z" style="opacity: 1; stroke-width: 0px; fill: rgb(38, 131, 198); fill-opacity: 0.9;"/><path class="point" transform="translate(656.03,137.81)" d="M2.5,0A2.5,2.5 0 1,1 0,-2.5A2.5,2.5 0 0,1 2.5,0Z" style="opacity: 1; stroke-width: 0px; fill: rgb(38, 131, 198); fill-opacity: 0.9;"/><path class="point" transform="translate(661.14,134.72)" d="M2.5,0A2.5,2.5 0 1,1 0,-2.5A2.5,2.5 0 0,1 2.5,0Z" style="opacity: 1; stroke-width: 0px; fill: rgb(38, 131, 198); fill-opacity: 0.9;"/><path class="point" transform="translate(666.98,128.84)" d="M2.5,0A2.5,2.5 0 1,1 0,-2.5A2.5,2.5 0 0,1 2.5,0Z" style="opacity: 1; stroke-width: 0px; fill: rgb(38, 131, 198); fill-opacity: 0.9;"/><path class="point" transform="translate(671.84,131.87)" d="M2.5,0A2.5,2.5 0 1,1 0,-2.5A2.5,2.5 0 0,1 2.5,0Z" style="opacity: 1; stroke-width: 0px; fill: rgb(38, 131, 198); fill-opacity: 0.9;"/><path class="point" transform="translate(705.18,130.25)" d="M2.5,0A2.5,2.5 0 1,1 0,-2.5A2.5,2.5 0 0,1 2.5,0Z" style="opacity: 1; stroke-width: 0px; fill: rgb(38, 131, 198); fill-opacity: 0.9;"/><path class="point" transform="translate(711.75,134.79)" d="M2.5,0A2.5,2.5 0 1,1 0,-2.5A2.5,2.5 0 0,1 2.5,0Z" style="opacity: 1; stroke-width: 0px; fill: rgb(38, 131, 198); fill-opacity: 0.9;"/><path class="point" transform="translate(718.32,138.4)" d="M2.5,0A2.5,2.5 0 1,1 0,-2.5A2.5,2.5 0 0,1 2.5,0Z" style="opacity: 1; stroke-width: 0px; fill: rgb(38, 131, 198); fill-opacity: 0.9;"/><path class="point" transform="translate(724.4,134.6)" d="M2.5,0A2.5,2.5 0 1,1 0,-2.5A2.5,2.5 0 0,1 2.5,0Z" style="opacity: 1; stroke-width: 0px; fill: rgb(38, 131, 198); fill-opacity: 0.9;"/></g><g class="text"/></g><g class="trace scatter trace3fef10" style="stroke-miterlimit: 2; opacity: 1;"><g class="fills"/><g class="errorbars"/><g class="lines"><path class="js-line" d="M29.2,259.38L43.81,242.36L44.51,241.61L59.82,226.49L60.52,225.85L75.83,213.07L76.52,212.53L92.53,201.27L93.22,200.83L109.23,191.38L109.92,191L129.41,181.51L130.11,181.21L149.59,173.54L150.29,173.29L172.56,166.29L173.25,166.1L199,159.85L199.7,159.71L223.36,155.31L224.05,155.2L258.85,150.46L259.54,150.39L295.03,147.07L295.73,147.02L330.52,144.79L331.22,144.75L378.54,142.78L379.24,142.76L467.62,140.92L468.31,140.92L577.57,140.1L578.26,140.1L724.4,139.81" style="vector-effect: non-scaling-stroke; fill: none; stroke: rgb(239, 111, 106); stroke-opacity: 1; stroke-width: 2px; opacity: 1;"/></g><g class="points"/><g class="text"/></g></g></g><g class="overplot"/><path class="xlines-above crisp" d="M0,0" style="fill: none;"/><path class="ylines-above crisp" d="M0,0" style="fill: none;"/><g class="overlines-above"/><g class="xaxislayer-above"><g class="xtick"><text text-anchor="middle" x="0" y="403" transform="translate(60,0)" style="font-family: 'Open Sans', verdana, arial, sans-serif; font-size: 12px; fill: rgb(68, 68, 68); fill-opacity: 1; white-space: pre; opacity: 1;">0</text></g><g class="xtick"><text text-anchor="middle" x="0" y="403" style="font-family: 'Open Sans', verdana, arial, sans-serif; font-size: 12px; fill: rgb(68, 68, 68); fill-opacity: 1; white-space: pre; opacity: 1;" transform="translate(181.67000000000002,0)">50</text></g><g class="xtick"><text text-anchor="middle" x="0" y="403" style="font-family: 'Open Sans', verdana, arial, sans-serif; font-size: 12px; fill: rgb(68, 68, 68); fill-opacity: 1; white-space: pre; opacity: 1;" transform="translate(303.33000000000004,0)">100</text></g><g class="xtick"><text text-anchor="middle" x="0" y="403" style="font-family: 'Open Sans', verdana, arial, sans-serif; font-size: 12px; fill: rgb(68, 68, 68); fill-opacity: 1; white-space: pre; opacity: 1;" transform="translate(425,0)">150</text></g><g class="xtick"><text text-anchor="middle" x="0" y="403" style="font-family: 'Open Sans', verdana, arial, sans-serif; font-size: 12px; fill: rgb(68, 68, 68); fill-opacity: 1; white-space: pre; opacity: 1;" transform="translate(546.6700000000001,0)">200</text></g><g class="xtick"><text text-anchor="middle" x="0" y="403" style="font-family: 'Open Sans', verdana, arial, sans-serif; font-size: 12px; fill: rgb(68, 68, 68); fill-opacity: 1; white-space: pre; opacity: 1;" transform="translate(668.33,0)">250</text></g><g class="xtick"><text text-anchor="middle" x="0" y="403" style="font-family: 'Open Sans', verdana, arial, sans-serif; font-size: 12px; fill: rgb(68, 68, 68); fill-opacity: 1; white-space: pre; opacity: 1;" transform="translate(790,0)">300</text></g><g class="xtick"><text text-anchor="middle" x="0" y="403" style="font-family: 'Open Sans', verdana, arial, sans-serif; font-size: 12px; fill: rgb(68, 68, 68); fill-opacity: 1; white-space: pre; opacity: 1;" transform="translate(911.67,0)">350</text></g></g><g class="yaxislayer-above"><g class="ytick"><text text-anchor="end" x="59" y="4.199999999999999" transform="translate(0,390)" style="font-family: 'Open Sans', verdana, arial, sans-serif; font-size: 12px; fill: rgb(68, 68, 68); fill-opacity: 1; white-space: pre; opacity: 1;">0</text></g><g class="ytick"><text text-anchor="end" x="59" y="4.199999999999999" style="font-family: 'Open Sans', verdana, arial, sans-serif; font-size: 12px; fill: rgb(68, 68, 68); fill-opacity: 1; white-space: pre; opacity: 1;" transform="translate(0,336.15)">1</text></g><g class="ytick"><text text-anchor="end" x="59" y="4.199999999999999" style="font-family: 'Open Sans', verdana, arial, sans-serif; font-size: 12px; fill: rgb(68, 68, 68); fill-opacity: 1; white-space: pre; opacity: 1;" transform="translate(0,282.31)">2</text></g><g class="ytick"><text text-anchor="end" x="59" y="4.199999999999999" style="font-family: 'Open Sans', verdana, arial, sans-serif; font-size: 12px; fill: rgb(68, 68, 68); fill-opacity: 1; white-space: pre; opacity: 1;" transform="translate(0,228.46)">3</text></g><g class="ytick"><text text-anchor="end" x="59" y="4.199999999999999" style="font-family: 'Open Sans', verdana, arial, sans-serif; font-size: 12px; fill: rgb(68, 68, 68); fill-opacity: 1; white-space: pre; opacity: 1;" transform="translate(0,174.62)">4</text></g><g class="ytick"><text text-anchor="end" x="59" y="4.199999999999999" style="font-family: 'Open Sans', verdana, arial, sans-serif; font-size: 12px; fill: rgb(68, 68, 68); fill-opacity: 1; white-space: pre; opacity: 1;" transform="translate(0,120.77)">5</text></g><g class="ytick"><text text-anchor="end" x="59" y="4.199999999999999" style="font-family: 'Open Sans', verdana, arial, sans-serif; font-size: 12px; fill: rgb(68, 68, 68); fill-opacity: 1; white-space: pre; opacity: 1;" transform="translate(0,66.92)">6</text></g></g><g class="overaxes-above"/></g></g><g class="polarlayer"/><g class="smithlayer"/><g class="ternarylayer"/><g class="geolayer"/><g class="funnelarealayer"/><g class="pielayer"/><g class="iciclelayer"/><g class="treemaplayer"/><g class="sunburstlayer"/><g class="glimages"/><defs id="topdefs-f3be86"><g class="clips"/><clipPath id="legendf3be86"><rect width="134" height="48" x="0" y="0"/></clipPath></defs><g class="layer-above"><g class="imagelayer"/><g class="shapelayer"><path data-index="0" fill-rule="evenodd" d="M89.2,390L89.2,40" clip-path="url(#clipf3be86xy)" style="opacity: 1; stroke: rgb(128, 128, 128); stroke-opacity: 1; fill: rgb(0, 0, 0); fill-opacity: 0; stroke-dasharray: 9px, 9px; stroke-width: 1px;"/><path data-index="1" fill-rule="evenodd" d="M184.45999999999998,390L184.45999999999998,40" clip-path="url(#clipf3be86xy)" style="opacity: 1; stroke: rgb(128, 128, 128); stroke-opacity: 1; fill: rgb(0, 0, 0); fill-opacity: 0; stroke-dasharray: 9px, 9px; stroke-width: 1px;"/><path data-index="2" fill-rule="evenodd" d="M470.25,390L470.25,40" clip-path="url(#clipf3be86xy)" style="opacity: 1; stroke: rgb(128, 128, 128); stroke-opacity: 1; fill: rgb(0, 0, 0); fill-opacity: 0; stroke-dasharray: 9px, 9px; stroke-width: 1px;"/><path data-index="3" fill-rule="evenodd" d="M60,368.57L936,368.57" clip-path="url(#clipf3be86xy)" style="opacity: 1; stroke: rgb(128, 128, 128); stroke-opacity: 1; fill: rgb(0, 0, 0); fill-opacity: 0; stroke-dasharray: 9px, 9px; stroke-width: 1px;"/><path data-index="4" fill-rule="evenodd" d="M60,181.92L936,181.92" clip-path="url(#clipf3be86xy)" style="opacity: 1; stroke: rgb(128, 128, 128); stroke-opacity: 1; fill: rgb(0, 0, 0); fill-opacity: 0; stroke-dasharray: 9px, 9px; stroke-width: 1px;"/></g></g><g class="infolayer"><g class="legend" pointer-events="all" transform="translate(953.52,40)"><rect class="bg" shape-rendering="crispEdges" style="stroke: rgb(68, 68, 68); stroke-opacity: 1; fill: rgb(255, 255, 255); fill-opacity: 1; stroke-width: 0px;" width="134" height="48" x="0" y="0"/><g class="scrollbox" transform="" clip-path="url(#legendf3be86)"><g class="groups"><g class="traces" transform="translate(0,14.5)" style="opacity: 1;"><text class="legendtext" text-anchor="start" x="40" y="4.680000000000001" style="font-family: 'Open Sans', verdana, arial, sans-serif; font-size: 12px; fill: rgb(68, 68, 68); fill-opacity: 1; white-space: pre;">V̇O​<tspan style="font-size:70%" dy="0.3em">2</tspan><tspan dy="-0.21em">​</tspan></text><g class="layers" style="opacity: 1;"><g class="legendfill"/><g class="legendlines"><path class="js-line" d="M5,0h30" style="fill: none; stroke: rgb(38, 131, 198); stroke-opacity: 1; stroke-dasharray: 4, 4; stroke-width: 0.65px;"/></g><g class="legendsymbols"><g class="legendpoints"><path class="scatterpts" transform="translate(20,0)" d="M2.5,0A2.5,2.5 0 1,1 0,-2.5A2.5,2.5 0 0,1 2.5,0Z" style="opacity: 1; stroke-width: 0px; fill: rgb(38, 131, 198); fill-opacity: 0.9;"/></g></g></g><rect class="legendtoggle" x="0" y="-9.5" width="128.015625" height="19" style="fill: rgb(0, 0, 0); fill-opacity: 0;"/></g><g class="traces" transform="translate(0,33.5)" style="opacity: 1;"><text class="legendtext" text-anchor="start" x="40" y="4.680000000000001" style="font-family: 'Open Sans', verdana, arial, sans-serif; font-size: 12px; fill: rgb(68, 68, 68); fill-opacity: 1; white-space: pre;">Modellfunktion</text><g class="layers" style="opacity: 1;"><g class="legendfill"/><g class="legendlines"><path class="js-line" d="M5,0h30" style="fill: none; stroke: rgb(239, 111, 106); stroke-opacity: 1; stroke-width: 2px;"/></g><g class="legendsymbols"><g class="legendpoints"/></g></g><rect class="legendtoggle" x="0" y="-9.5" width="128.015625" height="19" style="fill: rgb(0, 0, 0); fill-opacity: 0;"/></g></g></g><rect class="scrollbar" rx="20" ry="3" width="0" height="0" style="fill: rgb(128, 139, 164); fill-opacity: 1;" x="0" y="0"/></g><g class="g-gtitle"><text class="gtitle" x="550" y="20" text-anchor="middle" dy="0em" style="font-family: 'Open Sans', verdana, arial, sans-serif; font-size: 17px; fill: rgb(68, 68, 68); opacity: 1; font-weight: normal; white-space: pre;">V̇O₂ für Test_15_2_stehen_leicht</text></g><g class="g-xtitle"><text class="xtitle" x="498" y="442" text-anchor="middle" style="font-family: 'Open Sans', verdana, arial, sans-serif; font-size: 14px; fill: rgb(68, 68, 68); opacity: 1; font-weight: normal; white-space: pre;">Zeit [s]</text></g><g class="g-ytitle"><text class="ytitle" transform="rotate(-90,22,215)" x="22" y="215" text-anchor="middle" style="font-family: 'Open Sans', verdana, arial, sans-serif; font-size: 14px; fill: rgb(68, 68, 68); opacity: 1; font-weight: normal; white-space: pre;">V̇O​<tspan style="font-size:70%" dy="0.3em">2</tspan><tspan dy="-0.21em">​</tspan> [l·min​<tspan style="font-size:70%" dy="-0.6em">-1</tspan><tspan dy="0.42em">​</tspan>]</text></g><g class="annotation" data-index="0" style="opacity: 1;"><g class="annotation-text-g" transform="rotate(-90,98.7,65.42)"><g class="cursor-pointer" transform="translate(62,56)"><rect class="bg" x="0.5" y="0.5" width="72" height="18" style="stroke-width: 1px; stroke: rgb(0, 0, 0); stroke-opacity: 0; fill: rgb(0, 0, 0); fill-opacity: 0;"/><text class="annotation-text" text-anchor="middle" x="36.203125" y="13" style="font-family: 'Open Sans', verdana, arial, sans-serif; font-size: 11px; fill: rgb(68, 68, 68); fill-opacity: 1; white-space: pre;">t​<tspan style="font-size:70%" dy="0.3em">delay</tspan><tspan dy="-0.21em">​</tspan>: 12.0 s</text></g></g></g><g class="annotation" data-index="1" style="opacity: 1;"><g class="annotation-text-g" transform="rotate(-90,192.95999999999998,74.92)"><g class="cursor-pointer" transform="translate(166,66)"><rect class="bg" x="0.5" y="0.5" width="53" height="16" style="stroke-width: 1px; stroke: rgb(0, 0, 0); stroke-opacity: 0; fill: rgb(0, 0, 0); fill-opacity: 0;"/><text class="annotation-text" text-anchor="middle" x="27.453125" y="13" style="font-family: 'Open Sans', verdana, arial, sans-serif; font-size: 11px; fill: rgb(68, 68, 68); fill-opacity: 1; white-space: pre;">τ: 39.1 s</text></g></g></g><g class="annotation" data-index="2" style="opacity: 1;"><g class="annotation-text-g" transform="rotate(-90,478.75,68.42)"><g class="cursor-pointer" transform="translate(445,60)"><rect class="bg" x="0.5" y="0.5" width="66" height="16" style="stroke-width: 1px; stroke: rgb(0, 0, 0); stroke-opacity: 0; fill: rgb(0, 0, 0); fill-opacity: 0;"/><text class="annotation-text" text-anchor="middle" x="33.453125" y="13" style="font-family: 'Open Sans', verdana, arial, sans-serif; font-size: 11px; fill: rgb(68, 68, 68); fill-opacity: 1; white-space: pre;">4τ: 156.6 s</text></g></g></g><g class="annotation" data-index="3" style="opacity: 1;"><g class="annotation-text-g" transform="rotate(0,626.8,262.53999999999996)"><g class="cursor-pointer" transform="translate(603,254)"><rect class="bg" x="0.5" y="0.5" width="46" height="17" style="stroke-width: 1px; stroke: rgb(0, 0, 0); stroke-opacity: 0; fill: rgb(0, 0, 0); fill-opacity: 0;"/><text class="annotation-text" text-anchor="middle" x="23.34375" y="13" style="font-family: Arial, sans-serif; font-size: 12px; fill: rgb(0, 0, 0); fill-opacity: 1; white-space: pre;">R²: 0.96</text></g></g></g><g class="annotation" data-index="4" style="opacity: 1;"><g class="annotation-text-g" transform="rotate(0,713.8,245.38)"><g class="cursor-pointer" transform="translate(603,235)"><rect class="bg" x="0.5" y="0.5" width="220" height="19" style="stroke-width: 1px; stroke: rgb(0, 0, 0); stroke-opacity: 0; fill: rgb(0, 0, 0); fill-opacity: 0;"/><text class="annotation-text" text-anchor="middle" x="110.421875" y="15.046875" style="font-family: Arial, sans-serif; font-size: 12px; fill: rgb(0, 0, 0); fill-opacity: 1; white-space: pre;">V̇O₂(t) = 2.22 * (1 - e​<tspan style="font-size:70%" dy="-0.6em">-(t - 12.00) / 39.15</tspan><tspan dy="0.42em">​</tspan>) + 1.68</text></g></g></g><g class="annotation" data-index="5" style="opacity: 1;"><g class="annotation-text-g" transform="rotate(0,647.3,293.85)"><g class="cursor-pointer" transform="translate(603,284)"><rect class="bg" x="0.5" y="0.5" width="87" height="19" style="stroke-width: 1px; stroke: rgb(0, 0, 0); stroke-opacity: 0; fill: rgb(0, 0, 0); fill-opacity: 0;"/><text class="annotation-text" text-anchor="middle" x="43.953125" y="13.125" style="font-family: Arial, sans-serif; font-size: 12px; fill: rgb(0, 0, 0); fill-opacity: 1; white-space: pre;">V̇O​<tspan style="font-size:70%" dy="0.3em">2net,SS</tspan><tspan dy="-0.21em">​</tspan>: 3.466</text></g></g></g><g class="annotation" data-index="6" style="opacity: 1;"><g class="annotation-text-g" transform="rotate(0,244.38,358.49)"><g class="cursor-pointer" transform="translate(205,349)"><rect class="bg" x="0.5" y="0.5" width="78" height="17" style="stroke-width: 1px; stroke: rgb(0, 0, 0); stroke-opacity: 0; fill: rgb(0, 0, 0); fill-opacity: 0;"/><text class="annotation-text" text-anchor="middle" x="40.1875" y="12" style="font-family: Arial, sans-serif; font-size: 11px; fill: rgb(0, 0, 0); fill-opacity: 1; white-space: pre;">V̇O​<tspan style="font-size:70%" dy="0.3em">2,Ruhe</tspan><tspan dy="-0.21em">​</tspan>: 0.398</text></g></g></g><g class="annotation" data-index="7" style="opacity: 1;"><g class="annotation-text-g" transform="rotate(0,250.38,171.84)"><g class="cursor-pointer" transform="translate(205,163)"><rect class="bg" x="0.5" y="0.5" width="90" height="17" style="stroke-width: 1px; stroke: rgb(0, 0, 0); stroke-opacity: 0; fill: rgb(0, 0, 0); fill-opacity: 0;"/><text class="annotation-text" text-anchor="middle" x="45.53125" y="12" style="font-family: Arial, sans-serif; font-size: 11px; fill: rgb(0, 0, 0); fill-opacity: 1; white-space: pre;">V̇O​<tspan style="font-size:70%" dy="0.3em">2gross,SS</tspan><tspan dy="-0.21em">​</tspan>: 3.864</text></g></g></g><g class="annotation" data-index="8" style="opacity: 1;"><g class="annotation-text-g" transform="rotate(0,629.8,277.69)"><g class="cursor-pointer" transform="translate(603,268)"><rect class="bg" x="0.5" y="0.5" width="52" height="19" style="stroke-width: 1px; stroke: rgb(0, 0, 0); stroke-opacity: 0; fill: rgb(0, 0, 0); fill-opacity: 0;"/><text class="annotation-text" text-anchor="middle" x="26.515625" y="13" style="font-family: Arial, sans-serif; font-size: 12px; fill: rgb(0, 0, 0); fill-opacity: 1; white-space: pre;">T​<tspan style="font-size:70%" dy="0.3em">1/2</tspan><tspan dy="-0.21em">​</tspan>: 27.1</text></g></g></g></g></svg>