<svg class="main-svg" xmlns="http://www.w3.org/2000/svg" xmlns:xlink="http://www.w3.org/1999/xlink" width="1100" height="450" style="" viewBox="0 0 1100 450"><rect x="0" y="0" width="1100" height="450" style="fill: rgb(255, 255, 255); fill-opacity: 1;"/><defs id="defs-129b07"><g class="clips"><clipPath id="clip129b07xyplot" class="plotclip"><rect width="876" height="350"/></clipPath><clipPath class="axesclip" id="clip129b07x"><rect x="60" y="0" width="876" height="450"/></clipPath><clipPath class="axesclip" id="clip129b07y"><rect x="0" y="40" width="1100" height="350"/></clipPath><clipPath class="axesclip" id="clip129b07xy"><rect x="60" y="40" width="876" height="350"/></clipPath></g><g class="gradients"/><g class="patterns"/></defs><g class="bglayer"/><g class="layer-below"><g class="imagelayer"/><g class="shapelayer"/></g><g class="cartesianlayer"><g class="subplot xy"><g class="layer-subplot"><g class="shapelayer"/><g class="imagelayer"/></g><g class="gridlayer"><g class="x"><path class="xgrid crisp" transform="translate(181.67000000000002,0)" d="M0,40v350" style="stroke: rgb(238, 238, 238); stroke-opacity: 1; stroke-width: 1px;"/><path class="xgrid crisp" transform="translate(303.33000000000004,0)" d="M0,40v350" style="stroke: rgb(238, 238, 238); stroke-opacity: 1; stroke-width: 1px;"/><path class="xgrid crisp" transform="translate(425,0)" d="M0,40v350" style="stroke: rgb(238, 238, 238); stroke-opacity: 1; stroke-width: 1px;"/><path class="xgrid crisp" transform="translate(546.6700000000001,0)" d="M0,40v350" style="stroke: rgb(238, 238, 238); stroke-opacity: 1; stroke-width: 1px;"/><path class="xgrid crisp" transform="translate(668.33,0)" d="M0,40v350" style="stroke: rgb(238, 238, 238); stroke-opacity: 1; stroke-width: 1px;"/><path class="xgrid crisp" transform="translate(790,0)" d="M0,40v350" style="stroke: rgb(238, 238, 238); stroke-opacity: 1; stroke-width: 1px;"/><path class="xgrid crisp" transform="translate(911.67,0)" d="M0,40v350" style="stroke: rgb(238, 238, 238); stroke-opacity: 1; stroke-width: 1px;"/></g><g class="y"><path class="ygrid crisp" transform="translate(0,336.15)" d="M60,0h876" style="stroke: rgb(238, 238, 238); stroke-opacity: 1; stroke-width: 1px;"/><path class="ygrid crisp" transform="translate(0,282.31)" d="M60,0h876" style="stroke: rgb(238, 238, 238); stroke-opacity: 1; stroke-width: 1px;"/><path class="ygrid crisp" transform="translate(0,228.46)" d="M60,0h876" style="stroke: rgb(238, 238, 238); stroke-opacity: 1; stroke-width: 1px;"/><path class="ygrid crisp" transform="translate(0,174.62)" d="M60,0h876" style="stroke: rgb(238, 238, 238); stroke-opacity: 1; stroke-width: 1px;"/><path class="ygrid crisp" transform="translate(0,120.77)" d="M60,0h876" style="stroke: rgb(238, 238, 238); stroke-opacity: 1; stroke-width: 1px;"/><path class="ygrid crisp" transform="translate(0,66.92)" d="M60,0h876" style="stroke: rgb(238, 238, 238); stroke-opacity: 1; stroke-width: 1px;"/></g></g><g class="zerolinelayer"><path class="xzl zl crisp" transform="translate(60,0)" d="M0,40v350" style="stroke: rgb(68, 68, 68); stroke-opacity: 1; stroke-width: 1px;"/><path class="yzl zl crisp" transform="translate(0,390)" d="M60,0h876" style="stroke: rgb(68, 68, 68); stroke-opacity: 1; stroke-width: 1px;"/></g><path class="xlines-below"/><path class="ylines-below"/><g class="overlines-below"/><g class="xaxislayer-below"/><g class="yaxislayer-below"/><g class="overaxes-below"/><g class="plot" transform="translate(60,40)" clip-path="url(#clip129b07xyplot)"><g class="scatterlayer mlayer"><g class="trace scatter trace0333ab" style="stroke-miterlimit: 2; opacity: 1;"><g class="fills"/><g class="errorbars"/><g class="lines"><path class="js-line" d="M6.08,269.88L9.98,264.19L14.36,263.56L18.98,262.3L24.82,262.41L31.63,261.23L37.47,261.37L43.07,257.73L49.15,250.67L57.18,242.51L63.02,233.73L69.84,229.99L76.65,222.42L83.22,212.1L90.28,202.77L101.96,192.46L107.8,189.74L113.64,187.8L119.48,188.73L125.56,187.12L130.67,183.49L137.24,181.12L142.35,177.69L146.97,178.57L152.57,176.79L157.92,175.25L163.03,177.91L175.44,177.98L180.55,172.68L191.26,167.82L196.13,166.76L200.99,160.28L205.62,164.18L210.97,155.78L215.35,157.37L219.97,152.46L224.35,156.48L228.98,157.54L233.84,155.99L238.71,151.99L242.36,150.07L246.74,152.44L251.12,155.71L255.74,161.11L260.85,165.38L266.21,169.69L271.07,167.78L276.43,167.39L281.78,164.93L291.27,160.08L296.14,160.41L301,159.04L306.11,152.49L310.49,149.14L328.99,147.81L333.12,149.3L337.5,148.65L341.64,154L346.02,156.57L350.4,159.76L355.51,158.2L359.89,153.68L364.27,151.68L368.65,151.07L374,152.04L378.14,151.24L382.52,153.23L387.39,162.11L393.47,159.83L397.61,156.17L401.74,147.84L410.26,149.6L414.64,149.73L418.78,153.46L423.16,153.35L427.29,154L431.43,147.57L435.32,145.31L439.95,145.67L463.79,132.73L467.69,139.08L471.82,142.78L475.96,147.99L480.1,149.66L484.23,148.06L488.61,148.53L492.99,146.16L497.13,148.9L501.27,156.39L505.65,159.78L510.51,165.83L530.71,154.75L535.33,149.6L539.71,153.37L544.82,150.5L549.45,156.1L554.8,153.89L558.94,153.82L563.32,151.58L567.94,149.75L572.32,149.33L576.7,146.16L581.32,150.57L585.46,152.04L589.84,154.54L595.19,155.18L599.57,152.21L607.6,145.87L611.5,148.24L615.88,148.6L620.01,147.65L623.91,146.84L628.04,151.29L632.91,152.64L637.05,156.12L641.67,151.43L646.05,150.68L650.43,145.64L654.57,145.35L673.3,151.07L677.44,150.72L681.58,148.24L685.96,152.04L702.99,149.21L707.13,151.07L711.26,147.41L715.4,147.09L719.29,145.04L723.43,150.23L727.57,150.57" style="vector-effect: non-scaling-stroke; fill: none; stroke: rgb(38, 131, 198); stroke-opacity: 1; stroke-width: 0.65px; opacity: 1; stroke-dasharray: 4, 4;"/></g><g class="points"><path class="point" transform="translate(6.08,269.88)" d="M2.5,0A2.5,2.5 0 1,1 0,-2.5A2.5,2.5 0 0,1 2.5,0Z" style="opacity: 1; stroke-width: 0px; fill: rgb(38, 131, 198); fill-opacity: 0.9;"/><path class="point" transform="translate(9.98,264.19)" d="M2.5,0A2.5,2.5 0 1,1 0,-2.5A2.5,2.5 0 0,1 2.5,0Z" style="opacity: 1; stroke-width: 0px; fill: rgb(38, 131, 198); fill-opacity: 0.9;"/><path class="point" transform="translate(14.36,263.56)" d="M2.5,0A2.5,2.5 0 1,1 0,-2.5A2.5,2.5 0 0,1 2.5,0Z" style="opacity: 1; stroke-width: 0px; fill: rgb(38, 131, 198); fill-opacity: 0.9;"/><path class="point" transform="translate(18.98,262.3)" d="M2.5,0A2.5,2.5 0 1,1 0,-2.5A2.5,2.5 0 0,1 2.5,0Z" style="opacity: 1; stroke-width: 0px; fill: rgb(38, 131, 198); fill-opacity: 0.9;"/><path class="point" transform="translate(24.82,262.41)" d="M2.5,0A2.5,2.5 0 1,1 0,-2.5A2.5,2.5 0 0,1 2.5,0Z" style="opacity: 1; stroke-width: 0px; fill: rgb(38, 131, 198); fill-opacity: 0.9;"/><path class="point" transform="translate(31.63,261.23)" d="M2.5,0A2.5,2.5 0 1,1 0,-2.5A2.5,2.5 0 0,1 2.5,0Z" style="opacity: 1; stroke-width: 0px; fill: rgb(38, 131, 198); fill-opacity: 0.9;"/><path class="point" transform="translate(37.47,261.37)" d="M2.5,0A2.5,2.5 0 1,1 0,-2.5A2.5,2.5 0 0,1 2.5,0Z" style="opacity: 1; stroke-width: 0px; fill: rgb(38, 131, 198); fill-opacity: 0.9;"/><path class="point" transform="translate(43.07,257.73)" d="M2.5,0A2.5,2.5 0 1,1 0,-2.5A2.5,2.5 0 0,1 2.5,0Z" style="opacity: 1; stroke-width: 0px; fill: rgb(38, 131, 198); fill-opacity: 0.9;"/><path class="point" transform="translate(49.15,250.67)" d="M2.5,0A2.5,2.5 0 1,1 0,-2.5A2.5,2.5 0 0,1 2.5,0Z" style="opacity: 1; stroke-width: 0px; fill: rgb(38, 131, 198); fill-opacity: 0.9;"/><path class="point" transform="translate(57.18,242.51)" d="M2.5,0A2.5,2.5 0 1,1 0,-2.5A2.5,2.5 0 0,1 2.5,0Z" style="opacity: 1; stroke-width: 0px; fill: rgb(38, 131, 198); fill-opacity: 0.9;"/><path class="point" transform="translate(63.02,233.73)" d="M2.5,0A2.5,2.5 0 1,1 0,-2.5A2.5,2.5 0 0,1 2.5,0Z" style="opacity: 1; stroke-width: 0px; fill: rgb(38, 131, 198); fill-opacity: 0.9;"/><path class="point" transform="translate(69.84,229.99)" d="M2.5,0A2.5,2.5 0 1,1 0,-2.5A2.5,2.5 0 0,1 2.5,0Z" style="opacity: 1; stroke-width: 0px; fill: rgb(38, 131, 198); fill-opacity: 0.9;"/><path class="point" transform="translate(76.65,222.42)" d="M2.5,0A2.5,2.5 0 1,1 0,-2.5A2.5,2.5 0 0,1 2.5,0Z" style="opacity: 1; stroke-width: 0px; fill: rgb(38, 131, 198); fill-opacity: 0.9;"/><path class="point" transform="translate(83.22,212.1)" d="M2.5,0A2.5,2.5 0 1,1 0,-2.5A2.5,2.5 0 0,1 2.5,0Z" style="opacity: 1; stroke-width: 0px; fill: rgb(38, 131, 198); fill-opacity: 0.9;"/><path class="point" transform="translate(90.28,202.77)" d="M2.5,0A2.5,2.5 0 1,1 0,-2.5A2.5,2.5 0 0,1 2.5,0Z" style="opacity: 1; stroke-width: 0px; fill: rgb(38, 131, 198); fill-opacity: 0.9;"/><path class="point" transform="translate(96.36,197.74)" d="M2.5,0A2.5,2.5 0 1,1 0,-2.5A2.5,2.5 0 0,1 2.5,0Z" style="opacity: 1; stroke-width: 0px; fill: rgb(38, 131, 198); fill-opacity: 0.9;"/><path class="point" transform="translate(101.96,192.46)" d="M2.5,0A2.5,2.5 0 1,1 0,-2.5A2.5,2.5 0 0,1 2.5,0Z" style="opacity: 1; stroke-width: 0px; fill: rgb(38, 131, 198); fill-opacity: 0.9;"/><path class="point" transform="translate(107.8,189.74)" d="M2.5,0A2.5,2.5 0 1,1 0,-2.5A2.5,2.5 0 0,1 2.5,0Z" style="opacity: 1; stroke-width: 0px; fill: rgb(38, 131, 198); fill-opacity: 0.9;"/><path class="point" transform="translate(113.64,187.8)" d="M2.5,0A2.5,2.5 0 1,1 0,-2.5A2.5,2.5 0 0,1 2.5,0Z" style="opacity: 1; stroke-width: 0px; fill: rgb(38, 131, 198); fill-opacity: 0.9;"/><path class="point" transform="translate(119.48,188.73)" d="M2.5,0A2.5,2.5 0 1,1 0,-2.5A2.5,2.5 0 0,1 2.5,0Z" style="opacity: 1; stroke-width: 0px; fill: rgb(38, 131, 198); fill-opacity: 0.9;"/><path class="point" transform="translate(125.56,187.12)" d="M2.5,0A2.5,2.5 0 1,1 0,-2.5A2.5,2.5 0 0,1 2.5,0Z" style="opacity: 1; stroke-width: 0px; fill: rgb(38, 131, 198); fill-opacity: 0.9;"/><path class="point" transform="translate(130.67,183.49)" d="M2.5,0A2.5,2.5 0 1,1 0,-2.5A2.5,2.5 0 0,1 2.5,0Z" style="opacity: 1; stroke-width: 0px; fill: rgb(38, 131, 198); fill-opacity: 0.9;"/><path class="point" transform="translate(137.24,181.12)" d="M2.5,0A2.5,2.5 0 1,1 0,-2.5A2.5,2.5 0 0,1 2.5,0Z" style="opacity: 1; stroke-width: 0px; fill: rgb(38, 131, 198); fill-opacity: 0.9;"/><path class="point" transform="translate(142.35,177.69)" d="M2.5,0A2.5,2.5 0 1,1 0,-2.5A2.5,2.5 0 0,1 2.5,0Z" style="opacity: 1; stroke-width: 0px; fill: rgb(38, 131, 198); fill-opacity: 0.9;"/><path class="point" transform="translate(146.97,178.57)" d="M2.5,0A2.5,2.5 0 1,1 0,-2.5A2.5,2.5 0 0,1 2.5,0Z" style="opacity: 1; stroke-width: 0px; fill: rgb(38, 131, 198); fill-opacity: 0.9;"/><path class="point" transform="translate(152.57,176.79)" d="M2.5,0A2.5,2.5 0 1,1 0,-2.5A2.5,2.5 0 0,1 2.5,0Z" style="opacity: 1; stroke-width: 0px; fill: rgb(38, 131, 198); fill-opacity: 0.9;"/><path class="point" transform="translate(157.92,175.25)" d="M2.5,0A2.5,2.5 0 1,1 0,-2.5A2.5,2.5 0 0,1 2.5,0Z" style="opacity: 1; stroke-width: 0px; fill: rgb(38, 131, 198); fill-opacity: 0.9;"/><path class="point" transform="translate(163.03,177.91)" d="M2.5,0A2.5,2.5 0 1,1 0,-2.5A2.5,2.5 0 0,1 2.5,0Z" style="opacity: 1; stroke-width: 0px; fill: rgb(38, 131, 198); fill-opacity: 0.9;"/><path class="point" transform="translate(170.33,178.32)" d="M2.5,0A2.5,2.5 0 1,1 0,-2.5A2.5,2.5 0 0,1 2.5,0Z" style="opacity: 1; stroke-width: 0px; fill: rgb(38, 131, 198); fill-opacity: 0.9;"/><path class="point" transform="translate(175.44,177.98)" d="M2.5,0A2.5,2.5 0 1,1 0,-2.5A2.5,2.5 0 0,1 2.5,0Z" style="opacity: 1; stroke-width: 0px; fill: rgb(38, 131, 198); fill-opacity: 0.9;"/><path class="point" transform="translate(180.55,172.68)" d="M2.5,0A2.5,2.5 0 1,1 0,-2.5A2.5,2.5 0 0,1 2.5,0Z" style="opacity: 1; stroke-width: 0px; fill: rgb(38, 131, 198); fill-opacity: 0.9;"/><path class="point" transform="translate(186.15,170.08)" d="M2.5,0A2.5,2.5 0 1,1 0,-2.5A2.5,2.5 0 0,1 2.5,0Z" style="opacity: 1; stroke-width: 0px; fill: rgb(38, 131, 198); fill-opacity: 0.9;"/><path class="point" transform="translate(191.26,167.82)" d="M2.5,0A2.5,2.5 0 1,1 0,-2.5A2.5,2.5 0 0,1 2.5,0Z" style="opacity: 1; stroke-width: 0px; fill: rgb(38, 131, 198); fill-opacity: 0.9;"/><path class="point" transform="translate(196.13,166.76)" d="M2.5,0A2.5,2.5 0 1,1 0,-2.5A2.5,2.5 0 0,1 2.5,0Z" style="opacity: 1; stroke-width: 0px; fill: rgb(38, 131, 198); fill-opacity: 0.9;"/><path class="point" transform="translate(200.99,160.28)" d="M2.5,0A2.5,2.5 0 1,1 0,-2.5A2.5,2.5 0 0,1 2.5,0Z" style="opacity: 1; stroke-width: 0px; fill: rgb(38, 131, 198); fill-opacity: 0.9;"/><path class="point" transform="translate(205.62,164.18)" d="M2.5,0A2.5,2.5 0 1,1 0,-2.5A2.5,2.5 0 0,1 2.5,0Z" style="opacity: 1; stroke-width: 0px; fill: rgb(38, 131, 198); fill-opacity: 0.9;"/><path class="point" transform="translate(210.97,155.78)" d="M2.5,0A2.5,2.5 0 1,1 0,-2.5A2.5,2.5 0 0,1 2.5,0Z" style="opacity: 1; stroke-width: 0px; fill: rgb(38, 131, 198); fill-opacity: 0.9;"/><path class="point" transform="translate(215.35,157.37)" d="M2.5,0A2.5,2.5 0 1,1 0,-2.5A2.5,2.5 0 0,1 2.5,0Z" style="opacity: 1; stroke-width: 0px; fill: rgb(38, 131, 198); fill-opacity: 0.9;"/><path class="point" transform="translate(219.97,152.46)" d="M2.5,0A2.5,2.5 0 1,1 0,-2.5A2.5,2.5 0 0,1 2.5,0Z" style="opacity: 1; stroke-width: 0px; fill: rgb(38, 131, 198); fill-opacity: 0.9;"/><path class="point" transform="translate(224.35,156.48)" d="M2.5,0A2.5,2.5 0 1,1 0,-2.5A2.5,2.5 0 0,1 2.5,0Z" style="opacity: 1; stroke-width: 0px; fill: rgb(38, 131, 198); fill-opacity: 0.9;"/><path class="point" transform="translate(228.98,157.54)" d="M2.5,0A2.5,2.5 0 1,1 0,-2.5A2.5,2.5 0 0,1 2.5,0Z" style="opacity: 1; stroke-width: 0px; fill: rgb(38, 131, 198); fill-opacity: 0.9;"/><path class="point" transform="translate(233.84,155.99)" d="M2.5,0A2.5,2.5 0 1,1 0,-2.5A2.5,2.5 0 0,1 2.5,0Z" style="opacity: 1; stroke-width: 0px; fill: rgb(38, 131, 198); fill-opacity: 0.9;"/><path class="point" transform="translate(238.71,151.99)" d="M2.5,0A2.5,2.5 0 1,1 0,-2.5A2.5,2.5 0 0,1 2.5,0Z" style="opacity: 1; stroke-width: 0px; fill: rgb(38, 131, 198); fill-opacity: 0.9;"/><path class="point" transform="translate(242.36,150.07)" d="M2.5,0A2.5,2.5 0 1,1 0,-2.5A2.5,2.5 0 0,1 2.5,0Z" style="opacity: 1; stroke-width: 0px; fill: rgb(38, 131, 198); fill-opacity: 0.9;"/><path class="point" transform="translate(246.74,152.44)" d="M2.5,0A2.5,2.5 0 1,1 0,-2.5A2.5,2.5 0 0,1 2.5,0Z" style="opacity: 1; stroke-width: 0px; fill: rgb(38, 131, 198); fill-opacity: 0.9;"/><path class="point" transform="translate(251.12,155.71)" d="M2.5,0A2.5,2.5 0 1,1 0,-2.5A2.5,2.5 0 0,1 2.5,0Z" style="opacity: 1; stroke-width: 0px; fill: rgb(38, 131, 198); fill-opacity: 0.9;"/><path class="point" transform="translate(255.74,161.11)" d="M2.5,0A2.5,2.5 0 1,1 0,-2.5A2.5,2.5 0 0,1 2.5,0Z" style="opacity: 1; stroke-width: 0px; fill: rgb(38, 131, 198); fill-opacity: 0.9;"/><path class="point" transform="translate(260.85,165.38)" d="M2.5,0A2.5,2.5 0 1,1 0,-2.5A2.5,2.5 0 0,1 2.5,0Z" style="opacity: 1; stroke-width: 0px; fill: rgb(38, 131, 198); fill-opacity: 0.9;"/><path class="point" transform="translate(266.21,169.69)" d="M2.5,0A2.5,2.5 0 1,1 0,-2.5A2.5,2.5 0 0,1 2.5,0Z" style="opacity: 1; stroke-width: 0px; fill: rgb(38, 131, 198); fill-opacity: 0.9;"/><path class="point" transform="translate(271.07,167.78)" d="M2.5,0A2.5,2.5 0 1,1 0,-2.5A2.5,2.5 0 0,1 2.5,0Z" style="opacity: 1; stroke-width: 0px; fill: rgb(38, 131, 198); fill-opacity: 0.9;"/><path class="point" transform="translate(276.43,167.39)" d="M2.5,0A2.5,2.5 0 1,1 0,-2.5A2.5,2.5 0 0,1 2.5,0Z" style="opacity: 1; stroke-width: 0px; fill: rgb(38, 131, 198); fill-opacity: 0.9;"/><path class="point" transform="translate(281.78,164.93)" d="M2.5,0A2.5,2.5 0 1,1 0,-2.5A2.5,2.5 0 0,1 2.5,0Z" style="opacity: 1; stroke-width: 0px; fill: rgb(38, 131, 198); fill-opacity: 0.9;"/><path class="point" transform="translate(286.4,162.88)" d="M2.5,0A2.5,2.5 0 1,1 0,-2.5A2.5,2.5 0 0,1 2.5,0Z" style="opacity: 1; stroke-width: 0px; fill: rgb(38, 131, 198); fill-opacity: 0.9;"/><path class="point" transform="translate(291.27,160.08)" d="M2.5,0A2.5,2.5 0 1,1 0,-2.5A2.5,2.5 0 0,1 2.5,0Z" style="opacity: 1; stroke-width: 0px; fill: rgb(38, 131, 198); fill-opacity: 0.9;"/><path class="point" transform="translate(296.14,160.41)" d="M2.5,0A2.5,2.5 0 1,1 0,-2.5A2.5,2.5 0 0,1 2.5,0Z" style="opacity: 1; stroke-width: 0px; fill: rgb(38, 131, 198); fill-opacity: 0.9;"/><path class="point" transform="translate(301,159.04)" d="M2.5,0A2.5,2.5 0 1,1 0,-2.5A2.5,2.5 0 0,1 2.5,0Z" style="opacity: 1; stroke-width: 0px; fill: rgb(38, 131, 198); fill-opacity: 0.9;"/><path class="point" transform="translate(306.11,152.49)" d="M2.5,0A2.5,2.5 0 1,1 0,-2.5A2.5,2.5 0 0,1 2.5,0Z" style="opacity: 1; stroke-width: 0px; fill: rgb(38, 131, 198); fill-opacity: 0.9;"/><path class="point" transform="translate(310.49,149.14)" d="M2.5,0A2.5,2.5 0 1,1 0,-2.5A2.5,2.5 0 0,1 2.5,0Z" style="opacity: 1; stroke-width: 0px; fill: rgb(38, 131, 198); fill-opacity: 0.9;"/><path class="point" transform="translate(328.99,147.81)" d="M2.5,0A2.5,2.5 0 1,1 0,-2.5A2.5,2.5 0 0,1 2.5,0Z" style="opacity: 1; stroke-width: 0px; fill: rgb(38, 131, 198); fill-opacity: 0.9;"/><path class="point" transform="translate(333.12,149.3)" d="M2.5,0A2.5,2.5 0 1,1 0,-2.5A2.5,2.5 0 0,1 2.5,0Z" style="opacity: 1; stroke-width: 0px; fill: rgb(38, 131, 198); fill-opacity: 0.9;"/><path class="point" transform="translate(337.5,148.65)" d="M2.5,0A2.5,2.5 0 1,1 0,-2.5A2.5,2.5 0 0,1 2.5,0Z" style="opacity: 1; stroke-width: 0px; fill: rgb(38, 131, 198); fill-opacity: 0.9;"/><path class="point" transform="translate(341.64,154)" d="M2.5,0A2.5,2.5 0 1,1 0,-2.5A2.5,2.5 0 0,1 2.5,0Z" style="opacity: 1; stroke-width: 0px; fill: rgb(38, 131, 198); fill-opacity: 0.9;"/><path class="point" transform="translate(346.02,156.57)" d="M2.5,0A2.5,2.5 0 1,1 0,-2.5A2.5,2.5 0 0,1 2.5,0Z" style="opacity: 1; stroke-width: 0px; fill: rgb(38, 131, 198); fill-opacity: 0.9;"/><path class="point" transform="translate(350.4,159.76)" d="M2.5,0A2.5,2.5 0 1,1 0,-2.5A2.5,2.5 0 0,1 2.5,0Z" style="opacity: 1; stroke-width: 0px; fill: rgb(38, 131, 198); fill-opacity: 0.9;"/><path class="point" transform="translate(355.51,158.2)" d="M2.5,0A2.5,2.5 0 1,1 0,-2.5A2.5,2.5 0 0,1 2.5,0Z" style="opacity: 1; stroke-width: 0px; fill: rgb(38, 131, 198); fill-opacity: 0.9;"/><path class="point" transform="translate(359.89,153.68)" d="M2.5,0A2.5,2.5 0 1,1 0,-2.5A2.5,2.5 0 0,1 2.5,0Z" style="opacity: 1; stroke-width: 0px; fill: rgb(38, 131, 198); fill-opacity: 0.9;"/><path class="point" transform="translate(364.27,151.68)" d="M2.5,0A2.5,2.5 0 1,1 0,-2.5A2.5,2.5 0 0,1 2.5,0Z" style="opacity: 1; stroke-width: 0px; fill: rgb(38, 131, 198); fill-opacity: 0.9;"/><path class="point" transform="translate(368.65,151.07)" d="M2.5,0A2.5,2.5 0 1,1 0,-2.5A2.5,2.5 0 0,1 2.5,0Z" style="opacity: 1; stroke-width: 0px; fill: rgb(38, 131, 198); fill-opacity: 0.9;"/><path class="point" transform="translate(374,152.04)" d="M2.5,0A2.5,2.5 0 1,1 0,-2.5A2.5,2.5 0 0,1 2.5,0Z" style="opacity: 1; stroke-width: 0px; fill: rgb(38, 131, 198); fill-opacity: 0.9;"/><path class="point" transform="translate(378.14,151.24)" d="M2.5,0A2.5,2.5 0 1,1 0,-2.5A2.5,2.5 0 0,1 2.5,0Z" style="opacity: 1; stroke-width: 0px; fill: rgb(38, 131, 198); fill-opacity: 0.9;"/><path class="point" transform="translate(382.52,153.23)" d="M2.5,0A2.5,2.5 0 1,1 0,-2.5A2.5,2.5 0 0,1 2.5,0Z" style="opacity: 1; stroke-width: 0px; fill: rgb(38, 131, 198); fill-opacity: 0.9;"/><path class="point" transform="translate(387.39,162.11)" d="M2.5,0A2.5,2.5 0 1,1 0,-2.5A2.5,2.5 0 0,1 2.5,0Z" style="opacity: 1; stroke-width: 0px; fill: rgb(38, 131, 198); fill-opacity: 0.9;"/><path class="point" transform="translate(393.47,159.83)" d="M2.5,0A2.5,2.5 0 1,1 0,-2.5A2.5,2.5 0 0,1 2.5,0Z" style="opacity: 1; stroke-width: 0px; fill: rgb(38, 131, 198); fill-opacity: 0.9;"/><path class="point" transform="translate(397.61,156.17)" d="M2.5,0A2.5,2.5 0 1,1 0,-2.5A2.5,2.5 0 0,1 2.5,0Z" style="opacity: 1; stroke-width: 0px; fill: rgb(38, 131, 198); fill-opacity: 0.9;"/><path class="point" transform="translate(401.74,147.84)" d="M2.5,0A2.5,2.5 0 1,1 0,-2.5A2.5,2.5 0 0,1 2.5,0Z" style="opacity: 1; stroke-width: 0px; fill: rgb(38, 131, 198); fill-opacity: 0.9;"/><path class="point" transform="translate(406.12,149.01)" d="M2.5,0A2.5,2.5 0 1,1 0,-2.5A2.5,2.5 0 0,1 2.5,0Z" style="opacity: 1; stroke-width: 0px; fill: rgb(38, 131, 198); fill-opacity: 0.9;"/><path class="point" transform="translate(410.26,149.6)" d="M2.5,0A2.5,2.5 0 1,1 0,-2.5A2.5,2.5 0 0,1 2.5,0Z" style="opacity: 1; stroke-width: 0px; fill: rgb(38, 131, 198); fill-opacity: 0.9;"/><path class="point" transform="translate(414.64,149.73)" d="M2.5,0A2.5,2.5 0 1,1 0,-2.5A2.5,2.5 0 0,1 2.5,0Z" style="opacity: 1; stroke-width: 0px; fill: rgb(38, 131, 198); fill-opacity: 0.9;"/><path class="point" transform="translate(418.78,153.46)" d="M2.5,0A2.5,2.5 0 1,1 0,-2.5A2.5,2.5 0 0,1 2.5,0Z" style="opacity: 1; stroke-width: 0px; fill: rgb(38, 131, 198); fill-opacity: 0.9;"/><path class="point" transform="translate(423.16,153.35)" d="M2.5,0A2.5,2.5 0 1,1 0,-2.5A2.5,2.5 0 0,1 2.5,0Z" style="opacity: 1; stroke-width: 0px; fill: rgb(38, 131, 198); fill-opacity: 0.9;"/><path class="point" transform="translate(427.29,154)" d="M2.5,0A2.5,2.5 0 1,1 0,-2.5A2.5,2.5 0 0,1 2.5,0Z" style="opacity: 1; stroke-width: 0px; fill: rgb(38, 131, 198); fill-opacity: 0.9;"/><path class="point" transform="translate(431.43,147.57)" d="M2.5,0A2.5,2.5 0 1,1 0,-2.5A2.5,2.5 0 0,1 2.5,0Z" style="opacity: 1; stroke-width: 0px; fill: rgb(38, 131, 198); fill-opacity: 0.9;"/><path class="point" transform="translate(435.32,145.31)" d="M2.5,0A2.5,2.5 0 1,1 0,-2.5A2.5,2.5 0 0,1 2.5,0Z" style="opacity: 1; stroke-width: 0px; fill: rgb(38, 131, 198); fill-opacity: 0.9;"/><path class="point" transform="translate(439.95,145.67)" d="M2.5,0A2.5,2.5 0 1,1 0,-2.5A2.5,2.5 0 0,1 2.5,0Z" style="opacity: 1; stroke-width: 0px; fill: rgb(38, 131, 198); fill-opacity: 0.9;"/><path class="point" transform="translate(463.79,132.73)" d="M2.5,0A2.5,2.5 0 1,1 0,-2.5A2.5,2.5 0 0,1 2.5,0Z" style="opacity: 1; stroke-width: 0px; fill: rgb(38, 131, 198); fill-opacity: 0.9;"/><path class="point" transform="translate(467.69,139.08)" d="M2.5,0A2.5,2.5 0 1,1 0,-2.5A2.5,2.5 0 0,1 2.5,0Z" style="opacity: 1; stroke-width: 0px; fill: rgb(38, 131, 198); fill-opacity: 0.9;"/><path class="point" transform="translate(471.82,142.78)" d="M2.5,0A2.5,2.5 0 1,1 0,-2.5A2.5,2.5 0 0,1 2.5,0Z" style="opacity: 1; stroke-width: 0px; fill: rgb(38, 131, 198); fill-opacity: 0.9;"/><path class="point" transform="translate(475.96,147.99)" d="M2.5,0A2.5,2.5 0 1,1 0,-2.5A2.5,2.5 0 0,1 2.5,0Z" style="opacity: 1; stroke-width: 0px; fill: rgb(38, 131, 198); fill-opacity: 0.9;"/><path class="point" transform="translate(480.1,149.66)" d="M2.5,0A2.5,2.5 0 1,1 0,-2.5A2.5,2.5 0 0,1 2.5,0Z" style="opacity: 1; stroke-width: 0px; fill: rgb(38, 131, 198); fill-opacity: 0.9;"/><path class="point" transform="translate(484.23,148.06)" d="M2.5,0A2.5,2.5 0 1,1 0,-2.5A2.5,2.5 0 0,1 2.5,0Z" style="opacity: 1; stroke-width: 0px; fill: rgb(38, 131, 198); fill-opacity: 0.9;"/><path class="point" transform="translate(488.61,148.53)" d="M2.5,0A2.5,2.5 0 1,1 0,-2.5A2.5,2.5 0 0,1 2.5,0Z" style="opacity: 1; stroke-width: 0px; fill: rgb(38, 131, 198); fill-opacity: 0.9;"/><path class="point" transform="translate(492.99,146.16)" d="M2.5,0A2.5,2.5 0 1,1 0,-2.5A2.5,2.5 0 0,1 2.5,0Z" style="opacity: 1; stroke-width: 0px; fill: rgb(38, 131, 198); fill-opacity: 0.9;"/><path class="point" transform="translate(497.13,148.9)" d="M2.5,0A2.5,2.5 0 1,1 0,-2.5A2.5,2.5 0 0,1 2.5,0Z" style="opacity: 1; stroke-width: 0px; fill: rgb(38, 131, 198); fill-opacity: 0.9;"/><path class="point" transform="translate(501.27,156.39)" d="M2.5,0A2.5,2.5 0 1,1 0,-2.5A2.5,2.5 0 0,1 2.5,0Z" style="opacity: 1; stroke-width: 0px; fill: rgb(38, 131, 198); fill-opacity: 0.9;"/><path class="point" transform="translate(505.65,159.78)" d="M2.5,0A2.5,2.5 0 1,1 0,-2.5A2.5,2.5 0 0,1 2.5,0Z" style="opacity: 1; stroke-width: 0px; fill: rgb(38, 131, 198); fill-opacity: 0.9;"/><path class="point" transform="translate(510.51,165.83)" d="M2.5,0A2.5,2.5 0 1,1 0,-2.5A2.5,2.5 0 0,1 2.5,0Z" style="opacity: 1; stroke-width: 0px; fill: rgb(38, 131, 198); fill-opacity: 0.9;"/><path class="point" transform="translate(530.71,154.75)" d="M2.5,0A2.5,2.5 0 1,1 0,-2.5A2.5,2.5 0 0,1 2.5,0Z" style="opacity: 1; stroke-width: 0px; fill: rgb(38, 131, 198); fill-opacity: 0.9;"/><path class="point" transform="translate(535.33,149.6)" d="M2.5,0A2.5,2.5 0 1,1 0,-2.5A2.5,2.5 0 0,1 2.5,0Z" style="opacity: 1; stroke-width: 0px; fill: rgb(38, 131, 198); fill-opacity: 0.9;"/><path class="point" transform="translate(539.71,153.37)" d="M2.5,0A2.5,2.5 0 1,1 0,-2.5A2.5,2.5 0 0,1 2.5,0Z" style="opacity: 1; stroke-width: 0px; fill: rgb(38, 131, 198); fill-opacity: 0.9;"/><path class="point" transform="translate(544.82,150.5)" d="M2.5,0A2.5,2.5 0 1,1 0,-2.5A2.5,2.5 0 0,1 2.5,0Z" style="opacity: 1; stroke-width: 0px; fill: rgb(38, 131, 198); fill-opacity: 0.9;"/><path class="point" transform="translate(549.45,156.1)" d="M2.5,0A2.5,2.5 0 1,1 0,-2.5A2.5,2.5 0 0,1 2.5,0Z" style="opacity: 1; stroke-width: 0px; fill: rgb(38, 131, 198); fill-opacity: 0.9;"/><path class="point" transform="translate(554.8,153.89)" d="M2.5,0A2.5,2.5 0 1,1 0,-2.5A2.5,2.5 0 0,1 2.5,0Z" style="opacity: 1; stroke-width: 0px; fill: rgb(38, 131, 198); fill-opacity: 0.9;"/><path class="point" transform="translate(558.94,153.82)" d="M2.5,0A2.5,2.5 0 1,1 0,-2.5A2.5,2.5 0 0,1 2.5,0Z" style="opacity: 1; stroke-width: 0px; fill: rgb(38, 131, 198); fill-opacity: 0.9;"/><path class="point" transform="translate(563.32,151.58)" d="M2.5,0A2.5,2.5 0 1,1 0,-2.5A2.5,2.5 0 0,1 2.5,0Z" style="opacity: 1; stroke-width: 0px; fill: rgb(38, 131, 198); fill-opacity: 0.9;"/><path class="point" transform="translate(567.94,149.75)" d="M2.5,0A2.5,2.5 0 1,1 0,-2.5A2.5,2.5 0 0,1 2.5,0Z" style="opacity: 1; stroke-width: 0px; fill: rgb(38, 131, 198); fill-opacity: 0.9;"/><path class="point" transform="translate(572.32,149.33)" d="M2.5,0A2.5,2.5 0 1,1 0,-2.5A2.5,2.5 0 0,1 2.5,0Z" style="opacity: 1; stroke-width: 0px; fill: rgb(38, 131, 198); fill-opacity: 0.9;"/><path class="point" transform="translate(576.7,146.16)" d="M2.5,0A2.5,2.5 0 1,1 0,-2.5A2.5,2.5 0 0,1 2.5,0Z" style="opacity: 1; stroke-width: 0px; fill: rgb(38, 131, 198); fill-opacity: 0.9;"/><path class="point" transform="translate(581.32,150.57)" d="M2.5,0A2.5,2.5 0 1,1 0,-2.5A2.5,2.5 0 0,1 2.5,0Z" style="opacity: 1; stroke-width: 0px; fill: rgb(38, 131, 198); fill-opacity: 0.9;"/><path class="point" transform="translate(585.46,152.04)" d="M2.5,0A2.5,2.5 0 1,1 0,-2.5A2.5,2.5 0 0,1 2.5,0Z" style="opacity: 1; stroke-width: 0px; fill: rgb(38, 131, 198); fill-opacity: 0.9;"/><path class="point" transform="translate(589.84,154.54)" d="M2.5,0A2.5,2.5 0 1,1 0,-2.5A2.5,2.5 0 0,1 2.5,0Z" style="opacity: 1; stroke-width: 0px; fill: rgb(38, 131, 198); fill-opacity: 0.9;"/><path class="point" transform="translate(595.19,155.18)" d="M2.5,0A2.5,2.5 0 1,1 0,-2.5A2.5,2.5 0 0,1 2.5,0Z" style="opacity: 1; stroke-width: 0px; fill: rgb(38, 131, 198); fill-opacity: 0.9;"/><path class="point" transform="translate(599.57,152.21)" d="M2.5,0A2.5,2.5 0 1,1 0,-2.5A2.5,2.5 0 0,1 2.5,0Z" style="opacity: 1; stroke-width: 0px; fill: rgb(38, 131, 198); fill-opacity: 0.9;"/><path class="point" transform="translate(603.47,149.41)" d="M2.5,0A2.5,2.5 0 1,1 0,-2.5A2.5,2.5 0 0,1 2.5,0Z" style="opacity: 1; stroke-width: 0px; fill: rgb(38, 131, 198); fill-opacity: 0.9;"/><path class="point" transform="translate(607.6,145.87)" d="M2.5,0A2.5,2.5 0 1,1 0,-2.5A2.5,2.5 0 0,1 2.5,0Z" style="opacity: 1; stroke-width: 0px; fill: rgb(38, 131, 198); fill-opacity: 0.9;"/><path class="point" transform="translate(611.5,148.24)" d="M2.5,0A2.5,2.5 0 1,1 0,-2.5A2.5,2.5 0 0,1 2.5,0Z" style="opacity: 1; stroke-width: 0px; fill: rgb(38, 131, 198); fill-opacity: 0.9;"/><path class="point" transform="translate(615.88,148.6)" d="M2.5,0A2.5,2.5 0 1,1 0,-2.5A2.5,2.5 0 0,1 2.5,0Z" style="opacity: 1; stroke-width: 0px; fill: rgb(38, 131, 198); fill-opacity: 0.9;"/><path class="point" transform="translate(620.01,147.65)" d="M2.5,0A2.5,2.5 0 1,1 0,-2.5A2.5,2.5 0 0,1 2.5,0Z" style="opacity: 1; stroke-width: 0px; fill: rgb(38, 131, 198); fill-opacity: 0.9;"/><path class="point" transform="translate(623.91,146.84)" d="M2.5,0A2.5,2.5 0 1,1 0,-2.5A2.5,2.5 0 0,1 2.5,0Z" style="opacity: 1; stroke-width: 0px; fill: rgb(38, 131, 198); fill-opacity: 0.9;"/><path class="point" transform="translate(628.04,151.29)" d="M2.5,0A2.5,2.5 0 1,1 0,-2.5A2.5,2.5 0 0,1 2.5,0Z" style="opacity: 1; stroke-width: 0px; fill: rgb(38, 131, 198); fill-opacity: 0.9;"/><path class="point" transform="translate(632.91,152.64)" d="M2.5,0A2.5,2.5 0 1,1 0,-2.5A2.5,2.5 0 0,1 2.5,0Z" style="opacity: 1; stroke-width: 0px; fill: rgb(38, 131, 198); fill-opacity: 0.9;"/><path class="point" transform="translate(637.05,156.12)" d="M2.5,0A2.5,2.5 0 1,1 0,-2.5A2.5,2.5 0 0,1 2.5,0Z" style="opacity: 1; stroke-width: 0px; fill: rgb(38, 131, 198); fill-opacity: 0.9;"/><path class="point" transform="translate(641.67,151.43)" d="M2.5,0A2.5,2.5 0 1,1 0,-2.5A2.5,2.5 0 0,1 2.5,0Z" style="opacity: 1; stroke-width: 0px; fill: rgb(38, 131, 198); fill-opacity: 0.9;"/><path class="point" transform="translate(646.05,150.68)" d="M2.5,0A2.5,2.5 0 1,1 0,-2.5A2.5,2.5 0 0,1 2.5,0Z" style="opacity: 1; stroke-width: 0px; fill: rgb(38, 131, 198); fill-opacity: 0.9;"/><path class="point" transform="translate(650.43,145.64)" d="M2.5,0A2.5,2.5 0 1,1 0,-2.5A2.5,2.5 0 0,1 2.5,0Z" style="opacity: 1; stroke-width: 0px; fill: rgb(38, 131, 198); fill-opacity: 0.9;"/><path class="point" transform="translate(654.57,145.35)" d="M2.5,0A2.5,2.5 0 1,1 0,-2.5A2.5,2.5 0 0,1 2.5,0Z" style="opacity: 1; stroke-width: 0px; fill: rgb(38, 131, 198); fill-opacity: 0.9;"/><path class="point" transform="translate(673.3,151.07)" d="M2.5,0A2.5,2.5 0 1,1 0,-2.5A2.5,2.5 0 0,1 2.5,0Z" style="opacity: 1; stroke-width: 0px; fill: rgb(38, 131, 198); fill-opacity: 0.9;"/><path class="point" transform="translate(677.44,150.72)" d="M2.5,0A2.5,2.5 0 1,1 0,-2.5A2.5,2.5 0 0,1 2.5,0Z" style="opacity: 1; stroke-width: 0px; fill: rgb(38, 131, 198); fill-opacity: 0.9;"/><path class="point" transform="translate(681.58,148.24)" d="M2.5,0A2.5,2.5 0 1,1 0,-2.5A2.5,2.5 0 0,1 2.5,0Z" style="opacity: 1; stroke-width: 0px; fill: rgb(38, 131, 198); fill-opacity: 0.9;"/><path class="point" transform="translate(685.96,152.04)" d="M2.5,0A2.5,2.5 0 1,1 0,-2.5A2.5,2.5 0 0,1 2.5,0Z" style="opacity: 1; stroke-width: 0px; fill: rgb(38, 131, 198); fill-opacity: 0.9;"/><path class="point" transform="translate(690.34,151.43)" d="M2.5,0A2.5,2.5 0 1,1 0,-2.5A2.5,2.5 0 0,1 2.5,0Z" style="opacity: 1; stroke-width: 0px; fill: rgb(38, 131, 198); fill-opacity: 0.9;"/><path class="point" transform="translate(694.47,151.15)" d="M2.5,0A2.5,2.5 0 1,1 0,-2.5A2.5,2.5 0 0,1 2.5,0Z" style="opacity: 1; stroke-width: 0px; fill: rgb(38, 131, 198); fill-opacity: 0.9;"/><path class="point" transform="translate(698.85,150.18)" d="M2.5,0A2.5,2.5 0 1,1 0,-2.5A2.5,2.5 0 0,1 2.5,0Z" style="opacity: 1; stroke-width: 0px; fill: rgb(38, 131, 198); fill-opacity: 0.9;"/><path class="point" transform="translate(702.99,149.21)" d="M2.5,0A2.5,2.5 0 1,1 0,-2.5A2.5,2.5 0 0,1 2.5,0Z" style="opacity: 1; stroke-width: 0px; fill: rgb(38, 131, 198); fill-opacity: 0.9;"/><path class="point" transform="translate(707.13,151.07)" d="M2.5,0A2.5,2.5 0 1,1 0,-2.5A2.5,2.5 0 0,1 2.5,0Z" style="opacity: 1; stroke-width: 0px; fill: rgb(38, 131, 198); fill-opacity: 0.9;"/><path class="point" transform="translate(711.26,147.41)" d="M2.5,0A2.5,2.5 0 1,1 0,-2.5A2.5,2.5 0 0,1 2.5,0Z" style="opacity: 1; stroke-width: 0px; fill: rgb(38, 131, 198); fill-opacity: 0.9;"/><path class="point" transform="translate(715.4,147.09)" d="M2.5,0A2.5,2.5 0 1,1 0,-2.5A2.5,2.5 0 0,1 2.5,0Z" style="opacity: 1; stroke-width: 0px; fill: rgb(38, 131, 198); fill-opacity: 0.9;"/><path class="point" transform="translate(719.29,145.04)" d="M2.5,0A2.5,2.5 0 1,1 0,-2.5A2.5,2.5 0 0,1 2.5,0Z" style="opacity: 1; stroke-width: 0px; fill: rgb(38, 131, 198); fill-opacity: 0.9;"/><path class="point" transform="translate(723.43,150.23)" d="M2.5,0A2.5,2.5 0 1,1 0,-2.5A2.5,2.5 0 0,1 2.5,0Z" style="opacity: 1; stroke-width: 0px; fill: rgb(38, 131, 198); fill-opacity: 0.9;"/><path class="point" transform="translate(727.57,150.57)" d="M2.5,0A2.5,2.5 0 1,1 0,-2.5A2.5,2.5 0 0,1 2.5,0Z" style="opacity: 1; stroke-width: 0px; fill: rgb(38, 131, 198); fill-opacity: 0.9;"/></g><g class="text"/></g><g class="trace scatter tracede5ca3" style="stroke-miterlimit: 2; opacity: 1;"><g class="fills"/><g class="errorbars"/><g class="lines"><path class="js-line" d="M37.47,261.37L49.91,245.26L50.6,244.44L63.03,230.79L63.72,230.09L76.85,217.94L77.54,217.36L89.97,207.64L90.66,207.15L105.86,197.26L106.55,196.86L121.06,189.1L121.75,188.77L136.95,182.09L137.64,181.82L153.53,176.13L154.22,175.91L174.94,170.06L175.63,169.89L203.95,164.07L204.64,163.96L230.2,160.25L230.89,160.17L268.89,156.5L269.58,156.45L299.97,154.56L300.66,154.53L340.73,152.94L341.42,152.92L418.1,151.44L418.79,151.43L566.61,150.68L567.3,150.67L727.57,150.56" style="vector-effect: non-scaling-stroke; fill: none; stroke: rgb(239, 111, 106); stroke-opacity: 1; stroke-width: 2px; opacity: 1;"/></g><g class="points"/><g class="text"/></g></g></g><g class="overplot"/><path class="xlines-above crisp" d="M0,0" style="fill: none;"/><path class="ylines-above crisp" d="M0,0" style="fill: none;"/><g class="overlines-above"/><g class="xaxislayer-above"><g class="xtick"><text text-anchor="middle" x="0" y="403" transform="translate(60,0)" style="font-family: 'Open Sans', verdana, arial, sans-serif; font-size: 12px; fill: rgb(68, 68, 68); fill-opacity: 1; white-space: pre; opacity: 1;">0</text></g><g class="xtick"><text text-anchor="middle" x="0" y="403" style="font-family: 'Open Sans', verdana, arial, sans-serif; font-size: 12px; fill: rgb(68, 68, 68); fill-opacity: 1; white-space: pre; opacity: 1;" transform="translate(181.67000000000002,0)">50</text></g><g class="xtick"><text text-anchor="middle" x="0" y="403" style="font-family: 'Open Sans', verdana, arial, sans-serif; font-size: 12px; fill: rgb(68, 68, 68); fill-opacity: 1; white-space: pre; opacity: 1;" transform="translate(303.33000000000004,0)">100</text></g><g class="xtick"><text text-anchor="middle" x="0" y="403" style="font-family: 'Open Sans', verdana, arial, sans-serif; font-size: 12px; fill: rgb(68, 68, 68); fill-opacity: 1; white-space: pre; opacity: 1;" transform="translate(425,0)">150</text></g><g class="xtick"><text text-anchor="middle" x="0" y="403" style="font-family: 'Open Sans', verdana, arial, sans-serif; font-size: 12px; fill: rgb(68, 68, 68); fill-opacity: 1; white-space: pre; opacity: 1;" transform="translate(546.6700000000001,0)">200</text></g><g class="xtick"><text text-anchor="middle" x="0" y="403" style="font-family: 'Open Sans', verdana, arial, sans-serif; font-size: 12px; fill: rgb(68, 68, 68); fill-opacity: 1; white-space: pre; opacity: 1;" transform="translate(668.33,0)">250</text></g><g class="xtick"><text text-anchor="middle" x="0" y="403" style="font-family: 'Open Sans', verdana, arial, sans-serif; font-size: 12px; fill: rgb(68, 68, 68); fill-opacity: 1; white-space: pre; opacity: 1;" transform="translate(790,0)">300</text></g><g class="xtick"><text text-anchor="middle" x="0" y="403" style="font-family: 'Open Sans', verdana, arial, sans-serif; font-size: 12px; fill: rgb(68, 68, 68); fill-opacity: 1; white-space: pre; opacity: 1;" transform="translate(911.67,0)">350</text></g></g><g class="yaxislayer-above"><g class="ytick"><text text-anchor="end" x="59" y="4.199999999999999" transform="translate(0,390)" style="font-family: 'Open Sans', verdana, arial, sans-serif; font-size: 12px; fill: rgb(68, 68, 68); fill-opacity: 1; white-space: pre; opacity: 1;">0</text></g><g class="ytick"><text text-anchor="end" x="59" y="4.199999999999999" style="font-family: 'Open Sans', verdana, arial, sans-serif; font-size: 12px; fill: rgb(68, 68, 68); fill-opacity: 1; white-space: pre; opacity: 1;" transform="translate(0,336.15)">1</text></g><g class="ytick"><text text-anchor="end" x="59" y="4.199999999999999" style="font-family: 'Open Sans', verdana, arial, sans-serif; font-size: 12px; fill: rgb(68, 68, 68); fill-opacity: 1; white-space: pre; opacity: 1;" transform="translate(0,282.31)">2</text></g><g class="ytick"><text text-anchor="end" x="59" y="4.199999999999999" style="font-family: 'Open Sans', verdana, arial, sans-serif; font-size: 12px; fill: rgb(68, 68, 68); fill-opacity: 1; white-space: pre; opacity: 1;" transform="translate(0,228.46)">3</text></g><g class="ytick"><text text-anchor="end" x="59" y="4.199999999999999" style="font-family: 'Open Sans', verdana, arial, sans-serif; font-size: 12px; fill: rgb(68, 68, 68); fill-opacity: 1; white-space: pre; opacity: 1;" transform="translate(0,174.62)">4</text></g><g class="ytick"><text text-anchor="end" x="59" y="4.199999999999999" style="font-family: 'Open Sans', verdana, arial, sans-serif; font-size: 12px; fill: rgb(68, 68, 68); fill-opacity: 1; white-space: pre; opacity: 1;" transform="translate(0,120.77)">5</text></g><g class="ytick"><text text-anchor="end" x="59" y="4.199999999999999" style="font-family: 'Open Sans', verdana, arial, sans-serif; font-size: 12px; fill: rgb(68, 68, 68); fill-opacity: 1; white-space: pre; opacity: 1;" transform="translate(0,66.92)">6</text></g></g><g class="overaxes-above"/></g></g><g class="polarlayer"/><g class="smithlayer"/><g class="ternarylayer"/><g class="geolayer"/><g class="funnelarealayer"/><g class="pielayer"/><g class="iciclelayer"/><g class="treemaplayer"/><g class="sunburstlayer"/><g class="glimages"/><defs id="topdefs-129b07"><g class="clips"/><clipPath id="legend129b07"><rect width="134" height="48" x="0" y="0"/></clipPath></defs><g class="layer-above"><g class="imagelayer"/><g class="shapelayer"><path data-index="0" fill-rule="evenodd" d="M97.47,390L97.47,40" clip-path="url(#clip129b07xy)" style="opacity: 1; stroke: rgb(128, 128, 128); stroke-opacity: 1; fill: rgb(0, 0, 0); fill-opacity: 0; stroke-dasharray: 9px, 9px; stroke-width: 1px;"/><path data-index="1" fill-rule="evenodd" d="M176.65,390L176.65,40" clip-path="url(#clip129b07xy)" style="opacity: 1; stroke: rgb(128, 128, 128); stroke-opacity: 1; fill: rgb(0, 0, 0); fill-opacity: 0; stroke-dasharray: 9px, 9px; stroke-width: 1px;"/><path data-index="2" fill-rule="evenodd" d="M414.17,390L414.17,40" clip-path="url(#clip129b07xy)" style="opacity: 1; stroke: rgb(128, 128, 128); stroke-opacity: 1; fill: rgb(0, 0, 0); fill-opacity: 0; stroke-dasharray: 9px, 9px; stroke-width: 1px;"/><path data-index="3" fill-rule="evenodd" d="M60,375.46L936,375.46" clip-path="url(#clip129b07xy)" style="opacity: 1; stroke: rgb(128, 128, 128); stroke-opacity: 1; fill: rgb(0, 0, 0); fill-opacity: 0; stroke-dasharray: 9px, 9px; stroke-width: 1px;"/><path data-index="4" fill-rule="evenodd" d="M60,192.57L936,192.57" clip-path="url(#clip129b07xy)" style="opacity: 1; stroke: rgb(128, 128, 128); stroke-opacity: 1; fill: rgb(0, 0, 0); fill-opacity: 0; stroke-dasharray: 9px, 9px; stroke-width: 1px;"/></g></g><g class="infolayer"><g class="legend" pointer-events="all" transform="translate(953.52,40)"><rect class="bg" shape-rendering="crispEdges" style="stroke: rgb(68, 68, 68); stroke-opacity: 1; fill: rgb(255, 255, 255); fill-opacity: 1; stroke-width: 0px;" width="134" height="48" x="0" y="0"/><g class="scrollbox" transform="" clip-path="url(#legend129b07)"><g class="groups"><g class="traces" transform="translate(0,14.5)" style="opacity: 1;"><text class="legendtext" text-anchor="start" x="40" y="4.680000000000001" style="font-family: 'Open Sans', verdana, arial, sans-serif; font-size: 12px; fill: rgb(68, 68, 68); fill-opacity: 1; white-space: pre;">V̇O​<tspan style="font-size:70%" dy="0.3em">2</tspan><tspan dy="-0.21em">​</tspan></text><g class="layers" style="opacity: 1;"><g class="legendfill"/><g class="legendlines"><path class="js-line" d="M5,0h30" style="fill: none; stroke: rgb(38, 131, 198); stroke-opacity: 1; stroke-dasharray: 4, 4; stroke-width: 0.65px;"/></g><g class="legendsymbols"><g class="legendpoints"><path class="scatterpts" transform="translate(20,0)" d="M2.5,0A2.5,2.5 0 1,1 0,-2.5A2.5,2.5 0 0,1 2.5,0Z" style="opacity: 1; stroke-width: 0px; fill: rgb(38, 131, 198); fill-opacity: 0.9;"/></g></g></g><rect class="legendtoggle" x="0" y="-9.5" width="128.015625" height="19" style="fill: rgb(0, 0, 0); fill-opacity: 0;"/></g><g class="traces" transform="translate(0,33.5)" style="opacity: 1;"><text class="legendtext" text-anchor="start" x="40" y="4.680000000000001" style="font-family: 'Open Sans', verdana, arial, sans-serif; font-size: 12px; fill: rgb(68, 68, 68); fill-opacity: 1; white-space: pre;">Modellfunktion</text><g class="layers" style="opacity: 1;"><g class="legendfill"/><g class="legendlines"><path class="js-line" d="M5,0h30" style="fill: none; stroke: rgb(239, 111, 106); stroke-opacity: 1; stroke-width: 2px;"/></g><g class="legendsymbols"><g class="legendpoints"/></g></g><rect class="legendtoggle" x="0" y="-9.5" width="128.015625" height="19" style="fill: rgb(0, 0, 0); fill-opacity: 0;"/></g></g></g><rect class="scrollbar" rx="20" ry="3" width="0" height="0" style="fill: rgb(128, 139, 164); fill-opacity: 1;" x="0" y="0"/></g><g class="g-gtitle"><text class="gtitle" x="550" y="20" text-anchor="middle" dy="0em" style="font-family: 'Open Sans', verdana, arial, sans-serif; font-size: 17px; fill: rgb(68, 68, 68); opacity: 1; font-weight: normal; white-space: pre;">V̇O₂ für Test_19_4_stehen_moderat</text></g><g class="g-xtitle"><text class="xtitle" x="498" y="442" text-anchor="middle" style="font-family: 'Open Sans', verdana, arial, sans-serif; font-size: 14px; fill: rgb(68, 68, 68); opacity: 1; font-weight: normal; white-space: pre;">Zeit [s]</text></g><g class="g-ytitle"><text class="ytitle" transform="rotate(-90,22,215)" x="22" y="215" text-anchor="middle" style="font-family: 'Open Sans', verdana, arial, sans-serif; font-size: 14px; fill: rgb(68, 68, 68); opacity: 1; font-weight: normal; white-space: pre;">V̇O​<tspan style="font-size:70%" dy="0.3em">2</tspan><tspan dy="-0.21em">​</tspan> [l·min​<tspan style="font-size:70%" dy="-0.6em">-1</tspan><tspan dy="0.42em">​</tspan>]</text></g><g class="annotation" data-index="0" style="opacity: 1;"><g class="annotation-text-g" transform="rotate(-90,106.97,65.42)"><g class="cursor-pointer" transform="translate(70,56)"><rect class="bg" x="0.5" y="0.5" width="72" height="18" style="stroke-width: 1px; stroke: rgb(0, 0, 0); stroke-opacity: 0; fill: rgb(0, 0, 0); fill-opacity: 0;"/><text class="annotation-text" text-anchor="middle" x="36.203125" y="13" style="font-family: 'Open Sans', verdana, arial, sans-serif; font-size: 11px; fill: rgb(68, 68, 68); fill-opacity: 1; white-space: pre;">t​<tspan style="font-size:70%" dy="0.3em">delay</tspan><tspan dy="-0.21em">​</tspan>: 15.4 s</text></g></g></g><g class="annotation" data-index="1" style="opacity: 1;"><g class="annotation-text-g" transform="rotate(-90,185.15,74.92)"><g class="cursor-pointer" transform="translate(158,66)"><rect class="bg" x="0.5" y="0.5" width="53" height="16" style="stroke-width: 1px; stroke: rgb(0, 0, 0); stroke-opacity: 0; fill: rgb(0, 0, 0); fill-opacity: 0;"/><text class="annotation-text" text-anchor="middle" x="27.453125" y="13" style="font-family: 'Open Sans', verdana, arial, sans-serif; font-size: 11px; fill: rgb(68, 68, 68); fill-opacity: 1; white-space: pre;">τ: 32.5 s</text></g></g></g><g class="annotation" data-index="2" style="opacity: 1;"><g class="annotation-text-g" transform="rotate(-90,422.67,68.42)"><g class="cursor-pointer" transform="translate(389,60)"><rect class="bg" x="0.5" y="0.5" width="66" height="16" style="stroke-width: 1px; stroke: rgb(0, 0, 0); stroke-opacity: 0; fill: rgb(0, 0, 0); fill-opacity: 0;"/><text class="annotation-text" text-anchor="middle" x="33.453125" y="13" style="font-family: 'Open Sans', verdana, arial, sans-serif; font-size: 11px; fill: rgb(68, 68, 68); fill-opacity: 1; white-space: pre;">4τ: 130.1 s</text></g></g></g><g class="annotation" data-index="3" style="opacity: 1;"><g class="annotation-text-g" transform="rotate(0,629.18,262.53999999999996)"><g class="cursor-pointer" transform="translate(606,254)"><rect class="bg" x="0.5" y="0.5" width="46" height="17" style="stroke-width: 1px; stroke: rgb(0, 0, 0); stroke-opacity: 0; fill: rgb(0, 0, 0); fill-opacity: 0;"/><text class="annotation-text" text-anchor="middle" x="23.34375" y="13" style="font-family: Arial, sans-serif; font-size: 12px; fill: rgb(0, 0, 0); fill-opacity: 1; white-space: pre;">R²: 0.95</text></g></g></g><g class="annotation" data-index="4" style="opacity: 1;"><g class="annotation-text-g" transform="rotate(0,710.68,245.38)"><g class="cursor-pointer" transform="translate(606,235)"><rect class="bg" x="0.5" y="0.5" width="209" height="19" style="stroke-width: 1px; stroke: rgb(0, 0, 0); stroke-opacity: 0; fill: rgb(0, 0, 0); fill-opacity: 0;"/><text class="annotation-text" text-anchor="middle" x="104.75" y="15.046875" style="font-family: Arial, sans-serif; font-size: 12px; fill: rgb(0, 0, 0); fill-opacity: 1; white-space: pre;">V̇O₂ = 2.06 * (1 - e​<tspan style="font-size:70%" dy="-0.6em">-(t - 15.40) / 32.54</tspan><tspan dy="0.42em">​</tspan>) + 1.65</text></g></g></g><g class="annotation" data-index="5" style="opacity: 1;"><g class="annotation-text-g" transform="rotate(0,649.68,293.85)"><g class="cursor-pointer" transform="translate(606,284)"><rect class="bg" x="0.5" y="0.5" width="87" height="19" style="stroke-width: 1px; stroke: rgb(0, 0, 0); stroke-opacity: 0; fill: rgb(0, 0, 0); fill-opacity: 0;"/><text class="annotation-text" text-anchor="middle" x="43.953125" y="13.125" style="font-family: Arial, sans-serif; font-size: 12px; fill: rgb(0, 0, 0); fill-opacity: 1; white-space: pre;">V̇O​<tspan style="font-size:70%" dy="0.3em">2net,SS</tspan><tspan dy="-0.21em">​</tspan>: 3.397</text></g></g></g><g class="annotation" data-index="6" style="opacity: 1;"><g class="annotation-text-g" transform="rotate(0,245.01,365.38)"><g class="cursor-pointer" transform="translate(206,356)"><rect class="bg" x="0.5" y="0.5" width="78" height="17" style="stroke-width: 1px; stroke: rgb(0, 0, 0); stroke-opacity: 0; fill: rgb(0, 0, 0); fill-opacity: 0;"/><text class="annotation-text" text-anchor="middle" x="40.1875" y="12" style="font-family: Arial, sans-serif; font-size: 11px; fill: rgb(0, 0, 0); fill-opacity: 1; white-space: pre;">V̇O​<tspan style="font-size:70%" dy="0.3em">2,Ruhe</tspan><tspan dy="-0.21em">​</tspan>: 0.270</text></g></g></g><g class="annotation" data-index="7" style="opacity: 1;"><g class="annotation-text-g" transform="rotate(0,250.51,182.49)"><g class="cursor-pointer" transform="translate(206,173)"><rect class="bg" x="0.5" y="0.5" width="89" height="17" style="stroke-width: 1px; stroke: rgb(0, 0, 0); stroke-opacity: 0; fill: rgb(0, 0, 0); fill-opacity: 0;"/><text class="annotation-text" text-anchor="middle" x="45.53125" y="12" style="font-family: Arial, sans-serif; font-size: 11px; fill: rgb(0, 0, 0); fill-opacity: 1; white-space: pre;">V̇O​<tspan style="font-size:70%" dy="0.3em">2gross,SS</tspan><tspan dy="-0.21em">​</tspan>: 3.667</text></g></g></g><g class="annotation" data-index="8" style="opacity: 1;"><g class="annotation-text-g" transform="rotate(0,632.18,277.69)"><g class="cursor-pointer" transform="translate(606,268)"><rect class="bg" x="0.5" y="0.5" width="52" height="19" style="stroke-width: 1px; stroke: rgb(0, 0, 0); stroke-opacity: 0; fill: rgb(0, 0, 0); fill-opacity: 0;"/><text class="annotation-text" text-anchor="middle" x="26.515625" y="13" style="font-family: Arial, sans-serif; font-size: 12px; fill: rgb(0, 0, 0); fill-opacity: 1; white-space: pre;">T​<tspan style="font-size:70%" dy="0.3em">1/2</tspan><tspan dy="-0.21em">​</tspan>: 22.6</text></g></g></g></g></svg>