<svg class="main-svg" xmlns="http://www.w3.org/2000/svg" xmlns:xlink="http://www.w3.org/1999/xlink" width="1100" height="450" style="" viewBox="0 0 1100 450"><rect x="0" y="0" width="1100" height="450" style="fill: rgb(255, 255, 255); fill-opacity: 1;"/><defs id="defs-25daed"><g class="clips"><clipPath id="clip25daedxyplot" class="plotclip"><rect width="876" height="350"/></clipPath><clipPath class="axesclip" id="clip25daedx"><rect x="60" y="0" width="876" height="450"/></clipPath><clipPath class="axesclip" id="clip25daedy"><rect x="0" y="40" width="1100" height="350"/></clipPath><clipPath class="axesclip" id="clip25daedxy"><rect x="60" y="40" width="876" height="350"/></clipPath></g><g class="gradients"/><g class="patterns"/></defs><g class="bglayer"/><g class="layer-below"><g class="imagelayer"/><g class="shapelayer"/></g><g class="cartesianlayer"><g class="subplot xy"><g class="layer-subplot"><g class="shapelayer"/><g class="imagelayer"/></g><g class="gridlayer"><g class="x"><path class="xgrid crisp" transform="translate(181.67000000000002,0)" d="M0,40v350" style="stroke: rgb(238, 238, 238); stroke-opacity: 1; stroke-width: 1px;"/><path class="xgrid crisp" transform="translate(303.33000000000004,0)" d="M0,40v350" style="stroke: rgb(238, 238, 238); stroke-opacity: 1; stroke-width: 1px;"/><path class="xgrid crisp" transform="translate(425,0)" d="M0,40v350" style="stroke: rgb(238, 238, 238); stroke-opacity: 1; stroke-width: 1px;"/><path class="xgrid crisp" transform="translate(546.6700000000001,0)" d="M0,40v350" style="stroke: rgb(238, 238, 238); stroke-opacity: 1; stroke-width: 1px;"/><path class="xgrid crisp" transform="translate(668.33,0)" d="M0,40v350" style="stroke: rgb(238, 238, 238); stroke-opacity: 1; stroke-width: 1px;"/><path class="xgrid crisp" transform="translate(790,0)" d="M0,40v350" style="stroke: rgb(238, 238, 238); stroke-opacity: 1; stroke-width: 1px;"/><path class="xgrid crisp" transform="translate(911.67,0)" d="M0,40v350" style="stroke: rgb(238, 238, 238); stroke-opacity: 1; stroke-width: 1px;"/></g><g class="y"><path class="ygrid crisp" transform="translate(0,336.15)" d="M60,0h876" style="stroke: rgb(238, 238, 238); stroke-opacity: 1; stroke-width: 1px;"/><path class="ygrid crisp" transform="translate(0,282.31)" d="M60,0h876" style="stroke: rgb(238, 238, 238); stroke-opacity: 1; stroke-width: 1px;"/><path class="ygrid crisp" transform="translate(0,228.46)" d="M60,0h876" style="stroke: rgb(238, 238, 238); stroke-opacity: 1; stroke-width: 1px;"/><path class="ygrid crisp" transform="translate(0,174.62)" d="M60,0h876" style="stroke: rgb(238, 238, 238); stroke-opacity: 1; stroke-width: 1px;"/><path class="ygrid crisp" transform="translate(0,120.77)" d="M60,0h876" style="stroke: rgb(238, 238, 238); stroke-opacity: 1; stroke-width: 1px;"/><path class="ygrid crisp" transform="translate(0,66.92)" d="M60,0h876" style="stroke: rgb(238, 238, 238); stroke-opacity: 1; stroke-width: 1px;"/></g></g><g class="zerolinelayer"><path class="xzl zl crisp" transform="translate(60,0)" d="M0,40v350" style="stroke: rgb(68, 68, 68); stroke-opacity: 1; stroke-width: 1px;"/><path class="yzl zl crisp" transform="translate(0,390)" d="M60,0h876" style="stroke: rgb(68, 68, 68); stroke-opacity: 1; stroke-width: 1px;"/></g><path class="xlines-below"/><path class="ylines-below"/><g class="overlines-below"/><g class="xaxislayer-below"/><g class="yaxislayer-below"/><g class="overaxes-below"/><g class="plot" transform="translate(60,40)" clip-path="url(#clip25daedxyplot)"><g class="scatterlayer mlayer"><g class="trace scatter trace8e0d80" style="stroke-miterlimit: 2; opacity: 1;"><g class="fills"/><g class="errorbars"/><g class="lines"><path class="js-line" d="M6.33,268.62L24.09,242.81L29.44,245.09L35.53,247.85L41.61,244.73L53.05,227.03L58.89,221.36L69.59,202.61L74.95,196.48L80.06,194.83L85.17,191.32L90.28,191.78L95.63,189L100.74,187.65L105.85,180.08L111.2,177.78L116.31,180.4L122.15,184.21L127.75,181.48L132.62,171.34L137.73,164.52L142.84,165.74L148.19,169.06L158.17,170.01L163.52,168.27L168.39,167.53L173.25,165.97L179.34,165.85L184.2,163.48L188.83,160.59L193.21,159.42L198.07,159.96L203.43,158.68L207.81,157.48L212.43,160.53L217.05,163.71L221.92,165.04L226.79,161.7L231.9,162.51L236.76,160.75L241.39,162.38L246.25,160.12L250.63,160.93L255.01,157.66L259.88,155.65L264.5,157.39L269.13,156.03L273.51,157.89L278.13,152.74L282.51,149.98L286.65,145.01L291.27,151.07L295.89,153.48L300.27,152.65L304.41,153.77L314.87,151.38L330.93,142.75L335.07,145.37L339.45,143.61L343.83,148.45L348.21,146.55L352.59,146.75L356.48,139.98L360.62,136.68L364.76,137.06L368.65,137.65L372.79,140.75L381.3,143.73L385.68,138.17L389.33,135.67L393.23,137.09L397.85,145.76L401.99,147.5L406.12,147.79L410.26,142.44L414.4,139.39L418.53,140.56L436.3,138.08L440.19,143.12L444.57,142.41L448.95,140.31L452.6,143.61L457.47,140.72L461.36,143.97L465.25,136.03L469.39,136.55L473.28,134.01L477.18,133.2L481.07,134.85L485.21,135.75L488.86,137.42L496.64,133.52L500.54,136.45L504.43,140.05L521.46,137.99L529.25,140.57L533.39,138.58L537.28,138.78L541.17,137.99L545.07,137.83L549.2,135.48L553.1,139.96L557.23,137.72L565.75,139.57L570.37,148.06L575.24,144.49L579.13,137.33L583.03,132.96L587.41,134.6L595.44,135.93L599.57,137.79L603.71,136.95L607.6,133.2L611.98,135.15L616.85,141.54L621.47,143.18L625.61,143.07L655.78,127.65L659.43,127.4L663.33,125.44L666.98,128.24L670.63,128.39L674.28,130.97L678.17,131.76L682.06,135.39L690.09,132.89L693.99,136.68L697.88,137.65L702.02,140.45L705.67,134.97L709.56,136.86L717.59,134.29L721.48,130.88L725.13,127.26" style="vector-effect: non-scaling-stroke; fill: none; stroke: rgb(38, 131, 198); stroke-opacity: 1; stroke-width: 0.65px; opacity: 1; stroke-dasharray: 4, 4;"/></g><g class="points"><path class="point" transform="translate(6.33,268.62)" d="M2.5,0A2.5,2.5 0 1,1 0,-2.5A2.5,2.5 0 0,1 2.5,0Z" style="opacity: 1; stroke-width: 0px; fill: rgb(38, 131, 198); fill-opacity: 0.9;"/><path class="point" transform="translate(12.65,259.43)" d="M2.5,0A2.5,2.5 0 1,1 0,-2.5A2.5,2.5 0 0,1 2.5,0Z" style="opacity: 1; stroke-width: 0px; fill: rgb(38, 131, 198); fill-opacity: 0.9;"/><path class="point" transform="translate(18.49,251.3)" d="M2.5,0A2.5,2.5 0 1,1 0,-2.5A2.5,2.5 0 0,1 2.5,0Z" style="opacity: 1; stroke-width: 0px; fill: rgb(38, 131, 198); fill-opacity: 0.9;"/><path class="point" transform="translate(24.09,242.81)" d="M2.5,0A2.5,2.5 0 1,1 0,-2.5A2.5,2.5 0 0,1 2.5,0Z" style="opacity: 1; stroke-width: 0px; fill: rgb(38, 131, 198); fill-opacity: 0.9;"/><path class="point" transform="translate(29.44,245.09)" d="M2.5,0A2.5,2.5 0 1,1 0,-2.5A2.5,2.5 0 0,1 2.5,0Z" style="opacity: 1; stroke-width: 0px; fill: rgb(38, 131, 198); fill-opacity: 0.9;"/><path class="point" transform="translate(35.53,247.85)" d="M2.5,0A2.5,2.5 0 1,1 0,-2.5A2.5,2.5 0 0,1 2.5,0Z" style="opacity: 1; stroke-width: 0px; fill: rgb(38, 131, 198); fill-opacity: 0.9;"/><path class="point" transform="translate(41.61,244.73)" d="M2.5,0A2.5,2.5 0 1,1 0,-2.5A2.5,2.5 0 0,1 2.5,0Z" style="opacity: 1; stroke-width: 0px; fill: rgb(38, 131, 198); fill-opacity: 0.9;"/><path class="point" transform="translate(47.21,235.7)" d="M2.5,0A2.5,2.5 0 1,1 0,-2.5A2.5,2.5 0 0,1 2.5,0Z" style="opacity: 1; stroke-width: 0px; fill: rgb(38, 131, 198); fill-opacity: 0.9;"/><path class="point" transform="translate(53.05,227.03)" d="M2.5,0A2.5,2.5 0 1,1 0,-2.5A2.5,2.5 0 0,1 2.5,0Z" style="opacity: 1; stroke-width: 0px; fill: rgb(38, 131, 198); fill-opacity: 0.9;"/><path class="point" transform="translate(58.89,221.36)" d="M2.5,0A2.5,2.5 0 1,1 0,-2.5A2.5,2.5 0 0,1 2.5,0Z" style="opacity: 1; stroke-width: 0px; fill: rgb(38, 131, 198); fill-opacity: 0.9;"/><path class="point" transform="translate(64.24,211.9)" d="M2.5,0A2.5,2.5 0 1,1 0,-2.5A2.5,2.5 0 0,1 2.5,0Z" style="opacity: 1; stroke-width: 0px; fill: rgb(38, 131, 198); fill-opacity: 0.9;"/><path class="point" transform="translate(69.59,202.61)" d="M2.5,0A2.5,2.5 0 1,1 0,-2.5A2.5,2.5 0 0,1 2.5,0Z" style="opacity: 1; stroke-width: 0px; fill: rgb(38, 131, 198); fill-opacity: 0.9;"/><path class="point" transform="translate(74.95,196.48)" d="M2.5,0A2.5,2.5 0 1,1 0,-2.5A2.5,2.5 0 0,1 2.5,0Z" style="opacity: 1; stroke-width: 0px; fill: rgb(38, 131, 198); fill-opacity: 0.9;"/><path class="point" transform="translate(80.06,194.83)" d="M2.5,0A2.5,2.5 0 1,1 0,-2.5A2.5,2.5 0 0,1 2.5,0Z" style="opacity: 1; stroke-width: 0px; fill: rgb(38, 131, 198); fill-opacity: 0.9;"/><path class="point" transform="translate(85.17,191.32)" d="M2.5,0A2.5,2.5 0 1,1 0,-2.5A2.5,2.5 0 0,1 2.5,0Z" style="opacity: 1; stroke-width: 0px; fill: rgb(38, 131, 198); fill-opacity: 0.9;"/><path class="point" transform="translate(90.28,191.78)" d="M2.5,0A2.5,2.5 0 1,1 0,-2.5A2.5,2.5 0 0,1 2.5,0Z" style="opacity: 1; stroke-width: 0px; fill: rgb(38, 131, 198); fill-opacity: 0.9;"/><path class="point" transform="translate(95.63,189)" d="M2.5,0A2.5,2.5 0 1,1 0,-2.5A2.5,2.5 0 0,1 2.5,0Z" style="opacity: 1; stroke-width: 0px; fill: rgb(38, 131, 198); fill-opacity: 0.9;"/><path class="point" transform="translate(100.74,187.65)" d="M2.5,0A2.5,2.5 0 1,1 0,-2.5A2.5,2.5 0 0,1 2.5,0Z" style="opacity: 1; stroke-width: 0px; fill: rgb(38, 131, 198); fill-opacity: 0.9;"/><path class="point" transform="translate(105.85,180.08)" d="M2.5,0A2.5,2.5 0 1,1 0,-2.5A2.5,2.5 0 0,1 2.5,0Z" style="opacity: 1; stroke-width: 0px; fill: rgb(38, 131, 198); fill-opacity: 0.9;"/><path class="point" transform="translate(111.2,177.78)" d="M2.5,0A2.5,2.5 0 1,1 0,-2.5A2.5,2.5 0 0,1 2.5,0Z" style="opacity: 1; stroke-width: 0px; fill: rgb(38, 131, 198); fill-opacity: 0.9;"/><path class="point" transform="translate(116.31,180.4)" d="M2.5,0A2.5,2.5 0 1,1 0,-2.5A2.5,2.5 0 0,1 2.5,0Z" style="opacity: 1; stroke-width: 0px; fill: rgb(38, 131, 198); fill-opacity: 0.9;"/><path class="point" transform="translate(122.15,184.21)" d="M2.5,0A2.5,2.5 0 1,1 0,-2.5A2.5,2.5 0 0,1 2.5,0Z" style="opacity: 1; stroke-width: 0px; fill: rgb(38, 131, 198); fill-opacity: 0.9;"/><path class="point" transform="translate(127.75,181.48)" d="M2.5,0A2.5,2.5 0 1,1 0,-2.5A2.5,2.5 0 0,1 2.5,0Z" style="opacity: 1; stroke-width: 0px; fill: rgb(38, 131, 198); fill-opacity: 0.9;"/><path class="point" transform="translate(132.62,171.34)" d="M2.5,0A2.5,2.5 0 1,1 0,-2.5A2.5,2.5 0 0,1 2.5,0Z" style="opacity: 1; stroke-width: 0px; fill: rgb(38, 131, 198); fill-opacity: 0.9;"/><path class="point" transform="translate(137.73,164.52)" d="M2.5,0A2.5,2.5 0 1,1 0,-2.5A2.5,2.5 0 0,1 2.5,0Z" style="opacity: 1; stroke-width: 0px; fill: rgb(38, 131, 198); fill-opacity: 0.9;"/><path class="point" transform="translate(142.84,165.74)" d="M2.5,0A2.5,2.5 0 1,1 0,-2.5A2.5,2.5 0 0,1 2.5,0Z" style="opacity: 1; stroke-width: 0px; fill: rgb(38, 131, 198); fill-opacity: 0.9;"/><path class="point" transform="translate(148.19,169.06)" d="M2.5,0A2.5,2.5 0 1,1 0,-2.5A2.5,2.5 0 0,1 2.5,0Z" style="opacity: 1; stroke-width: 0px; fill: rgb(38, 131, 198); fill-opacity: 0.9;"/><path class="point" transform="translate(152.81,169.83)" d="M2.5,0A2.5,2.5 0 1,1 0,-2.5A2.5,2.5 0 0,1 2.5,0Z" style="opacity: 1; stroke-width: 0px; fill: rgb(38, 131, 198); fill-opacity: 0.9;"/><path class="point" transform="translate(158.17,170.01)" d="M2.5,0A2.5,2.5 0 1,1 0,-2.5A2.5,2.5 0 0,1 2.5,0Z" style="opacity: 1; stroke-width: 0px; fill: rgb(38, 131, 198); fill-opacity: 0.9;"/><path class="point" transform="translate(163.52,168.27)" d="M2.5,0A2.5,2.5 0 1,1 0,-2.5A2.5,2.5 0 0,1 2.5,0Z" style="opacity: 1; stroke-width: 0px; fill: rgb(38, 131, 198); fill-opacity: 0.9;"/><path class="point" transform="translate(168.39,167.53)" d="M2.5,0A2.5,2.5 0 1,1 0,-2.5A2.5,2.5 0 0,1 2.5,0Z" style="opacity: 1; stroke-width: 0px; fill: rgb(38, 131, 198); fill-opacity: 0.9;"/><path class="point" transform="translate(173.25,165.97)" d="M2.5,0A2.5,2.5 0 1,1 0,-2.5A2.5,2.5 0 0,1 2.5,0Z" style="opacity: 1; stroke-width: 0px; fill: rgb(38, 131, 198); fill-opacity: 0.9;"/><path class="point" transform="translate(179.34,165.85)" d="M2.5,0A2.5,2.5 0 1,1 0,-2.5A2.5,2.5 0 0,1 2.5,0Z" style="opacity: 1; stroke-width: 0px; fill: rgb(38, 131, 198); fill-opacity: 0.9;"/><path class="point" transform="translate(184.2,163.48)" d="M2.5,0A2.5,2.5 0 1,1 0,-2.5A2.5,2.5 0 0,1 2.5,0Z" style="opacity: 1; stroke-width: 0px; fill: rgb(38, 131, 198); fill-opacity: 0.9;"/><path class="point" transform="translate(188.83,160.59)" d="M2.5,0A2.5,2.5 0 1,1 0,-2.5A2.5,2.5 0 0,1 2.5,0Z" style="opacity: 1; stroke-width: 0px; fill: rgb(38, 131, 198); fill-opacity: 0.9;"/><path class="point" transform="translate(193.21,159.42)" d="M2.5,0A2.5,2.5 0 1,1 0,-2.5A2.5,2.5 0 0,1 2.5,0Z" style="opacity: 1; stroke-width: 0px; fill: rgb(38, 131, 198); fill-opacity: 0.9;"/><path class="point" transform="translate(198.07,159.96)" d="M2.5,0A2.5,2.5 0 1,1 0,-2.5A2.5,2.5 0 0,1 2.5,0Z" style="opacity: 1; stroke-width: 0px; fill: rgb(38, 131, 198); fill-opacity: 0.9;"/><path class="point" transform="translate(203.43,158.68)" d="M2.5,0A2.5,2.5 0 1,1 0,-2.5A2.5,2.5 0 0,1 2.5,0Z" style="opacity: 1; stroke-width: 0px; fill: rgb(38, 131, 198); fill-opacity: 0.9;"/><path class="point" transform="translate(207.81,157.48)" d="M2.5,0A2.5,2.5 0 1,1 0,-2.5A2.5,2.5 0 0,1 2.5,0Z" style="opacity: 1; stroke-width: 0px; fill: rgb(38, 131, 198); fill-opacity: 0.9;"/><path class="point" transform="translate(212.43,160.53)" d="M2.5,0A2.5,2.5 0 1,1 0,-2.5A2.5,2.5 0 0,1 2.5,0Z" style="opacity: 1; stroke-width: 0px; fill: rgb(38, 131, 198); fill-opacity: 0.9;"/><path class="point" transform="translate(217.05,163.71)" d="M2.5,0A2.5,2.5 0 1,1 0,-2.5A2.5,2.5 0 0,1 2.5,0Z" style="opacity: 1; stroke-width: 0px; fill: rgb(38, 131, 198); fill-opacity: 0.9;"/><path class="point" transform="translate(221.92,165.04)" d="M2.5,0A2.5,2.5 0 1,1 0,-2.5A2.5,2.5 0 0,1 2.5,0Z" style="opacity: 1; stroke-width: 0px; fill: rgb(38, 131, 198); fill-opacity: 0.9;"/><path class="point" transform="translate(226.79,161.7)" d="M2.5,0A2.5,2.5 0 1,1 0,-2.5A2.5,2.5 0 0,1 2.5,0Z" style="opacity: 1; stroke-width: 0px; fill: rgb(38, 131, 198); fill-opacity: 0.9;"/><path class="point" transform="translate(231.9,162.51)" d="M2.5,0A2.5,2.5 0 1,1 0,-2.5A2.5,2.5 0 0,1 2.5,0Z" style="opacity: 1; stroke-width: 0px; fill: rgb(38, 131, 198); fill-opacity: 0.9;"/><path class="point" transform="translate(236.76,160.75)" d="M2.5,0A2.5,2.5 0 1,1 0,-2.5A2.5,2.5 0 0,1 2.5,0Z" style="opacity: 1; stroke-width: 0px; fill: rgb(38, 131, 198); fill-opacity: 0.9;"/><path class="point" transform="translate(241.39,162.38)" d="M2.5,0A2.5,2.5 0 1,1 0,-2.5A2.5,2.5 0 0,1 2.5,0Z" style="opacity: 1; stroke-width: 0px; fill: rgb(38, 131, 198); fill-opacity: 0.9;"/><path class="point" transform="translate(246.25,160.12)" d="M2.5,0A2.5,2.5 0 1,1 0,-2.5A2.5,2.5 0 0,1 2.5,0Z" style="opacity: 1; stroke-width: 0px; fill: rgb(38, 131, 198); fill-opacity: 0.9;"/><path class="point" transform="translate(250.63,160.93)" d="M2.5,0A2.5,2.5 0 1,1 0,-2.5A2.5,2.5 0 0,1 2.5,0Z" style="opacity: 1; stroke-width: 0px; fill: rgb(38, 131, 198); fill-opacity: 0.9;"/><path class="point" transform="translate(255.01,157.66)" d="M2.5,0A2.5,2.5 0 1,1 0,-2.5A2.5,2.5 0 0,1 2.5,0Z" style="opacity: 1; stroke-width: 0px; fill: rgb(38, 131, 198); fill-opacity: 0.9;"/><path class="point" transform="translate(259.88,155.65)" d="M2.5,0A2.5,2.5 0 1,1 0,-2.5A2.5,2.5 0 0,1 2.5,0Z" style="opacity: 1; stroke-width: 0px; fill: rgb(38, 131, 198); fill-opacity: 0.9;"/><path class="point" transform="translate(264.5,157.39)" d="M2.5,0A2.5,2.5 0 1,1 0,-2.5A2.5,2.5 0 0,1 2.5,0Z" style="opacity: 1; stroke-width: 0px; fill: rgb(38, 131, 198); fill-opacity: 0.9;"/><path class="point" transform="translate(269.13,156.03)" d="M2.5,0A2.5,2.5 0 1,1 0,-2.5A2.5,2.5 0 0,1 2.5,0Z" style="opacity: 1; stroke-width: 0px; fill: rgb(38, 131, 198); fill-opacity: 0.9;"/><path class="point" transform="translate(273.51,157.89)" d="M2.5,0A2.5,2.5 0 1,1 0,-2.5A2.5,2.5 0 0,1 2.5,0Z" style="opacity: 1; stroke-width: 0px; fill: rgb(38, 131, 198); fill-opacity: 0.9;"/><path class="point" transform="translate(278.13,152.74)" d="M2.5,0A2.5,2.5 0 1,1 0,-2.5A2.5,2.5 0 0,1 2.5,0Z" style="opacity: 1; stroke-width: 0px; fill: rgb(38, 131, 198); fill-opacity: 0.9;"/><path class="point" transform="translate(282.51,149.98)" d="M2.5,0A2.5,2.5 0 1,1 0,-2.5A2.5,2.5 0 0,1 2.5,0Z" style="opacity: 1; stroke-width: 0px; fill: rgb(38, 131, 198); fill-opacity: 0.9;"/><path class="point" transform="translate(286.65,145.01)" d="M2.5,0A2.5,2.5 0 1,1 0,-2.5A2.5,2.5 0 0,1 2.5,0Z" style="opacity: 1; stroke-width: 0px; fill: rgb(38, 131, 198); fill-opacity: 0.9;"/><path class="point" transform="translate(291.27,151.07)" d="M2.5,0A2.5,2.5 0 1,1 0,-2.5A2.5,2.5 0 0,1 2.5,0Z" style="opacity: 1; stroke-width: 0px; fill: rgb(38, 131, 198); fill-opacity: 0.9;"/><path class="point" transform="translate(295.89,153.48)" d="M2.5,0A2.5,2.5 0 1,1 0,-2.5A2.5,2.5 0 0,1 2.5,0Z" style="opacity: 1; stroke-width: 0px; fill: rgb(38, 131, 198); fill-opacity: 0.9;"/><path class="point" transform="translate(300.27,152.65)" d="M2.5,0A2.5,2.5 0 1,1 0,-2.5A2.5,2.5 0 0,1 2.5,0Z" style="opacity: 1; stroke-width: 0px; fill: rgb(38, 131, 198); fill-opacity: 0.9;"/><path class="point" transform="translate(304.41,153.77)" d="M2.5,0A2.5,2.5 0 1,1 0,-2.5A2.5,2.5 0 0,1 2.5,0Z" style="opacity: 1; stroke-width: 0px; fill: rgb(38, 131, 198); fill-opacity: 0.9;"/><path class="point" transform="translate(310.49,151.97)" d="M2.5,0A2.5,2.5 0 1,1 0,-2.5A2.5,2.5 0 0,1 2.5,0Z" style="opacity: 1; stroke-width: 0px; fill: rgb(38, 131, 198); fill-opacity: 0.9;"/><path class="point" transform="translate(314.87,151.38)" d="M2.5,0A2.5,2.5 0 1,1 0,-2.5A2.5,2.5 0 0,1 2.5,0Z" style="opacity: 1; stroke-width: 0px; fill: rgb(38, 131, 198); fill-opacity: 0.9;"/><path class="point" transform="translate(330.93,142.75)" d="M2.5,0A2.5,2.5 0 1,1 0,-2.5A2.5,2.5 0 0,1 2.5,0Z" style="opacity: 1; stroke-width: 0px; fill: rgb(38, 131, 198); fill-opacity: 0.9;"/><path class="point" transform="translate(335.07,145.37)" d="M2.5,0A2.5,2.5 0 1,1 0,-2.5A2.5,2.5 0 0,1 2.5,0Z" style="opacity: 1; stroke-width: 0px; fill: rgb(38, 131, 198); fill-opacity: 0.9;"/><path class="point" transform="translate(339.45,143.61)" d="M2.5,0A2.5,2.5 0 1,1 0,-2.5A2.5,2.5 0 0,1 2.5,0Z" style="opacity: 1; stroke-width: 0px; fill: rgb(38, 131, 198); fill-opacity: 0.9;"/><path class="point" transform="translate(343.83,148.45)" d="M2.5,0A2.5,2.5 0 1,1 0,-2.5A2.5,2.5 0 0,1 2.5,0Z" style="opacity: 1; stroke-width: 0px; fill: rgb(38, 131, 198); fill-opacity: 0.9;"/><path class="point" transform="translate(348.21,146.55)" d="M2.5,0A2.5,2.5 0 1,1 0,-2.5A2.5,2.5 0 0,1 2.5,0Z" style="opacity: 1; stroke-width: 0px; fill: rgb(38, 131, 198); fill-opacity: 0.9;"/><path class="point" transform="translate(352.59,146.75)" d="M2.5,0A2.5,2.5 0 1,1 0,-2.5A2.5,2.5 0 0,1 2.5,0Z" style="opacity: 1; stroke-width: 0px; fill: rgb(38, 131, 198); fill-opacity: 0.9;"/><path class="point" transform="translate(356.48,139.98)" d="M2.5,0A2.5,2.5 0 1,1 0,-2.5A2.5,2.5 0 0,1 2.5,0Z" style="opacity: 1; stroke-width: 0px; fill: rgb(38, 131, 198); fill-opacity: 0.9;"/><path class="point" transform="translate(360.62,136.68)" d="M2.5,0A2.5,2.5 0 1,1 0,-2.5A2.5,2.5 0 0,1 2.5,0Z" style="opacity: 1; stroke-width: 0px; fill: rgb(38, 131, 198); fill-opacity: 0.9;"/><path class="point" transform="translate(364.76,137.06)" d="M2.5,0A2.5,2.5 0 1,1 0,-2.5A2.5,2.5 0 0,1 2.5,0Z" style="opacity: 1; stroke-width: 0px; fill: rgb(38, 131, 198); fill-opacity: 0.9;"/><path class="point" transform="translate(368.65,137.65)" d="M2.5,0A2.5,2.5 0 1,1 0,-2.5A2.5,2.5 0 0,1 2.5,0Z" style="opacity: 1; stroke-width: 0px; fill: rgb(38, 131, 198); fill-opacity: 0.9;"/><path class="point" transform="translate(372.79,140.75)" d="M2.5,0A2.5,2.5 0 1,1 0,-2.5A2.5,2.5 0 0,1 2.5,0Z" style="opacity: 1; stroke-width: 0px; fill: rgb(38, 131, 198); fill-opacity: 0.9;"/><path class="point" transform="translate(376.92,142.14)" d="M2.5,0A2.5,2.5 0 1,1 0,-2.5A2.5,2.5 0 0,1 2.5,0Z" style="opacity: 1; stroke-width: 0px; fill: rgb(38, 131, 198); fill-opacity: 0.9;"/><path class="point" transform="translate(381.3,143.73)" d="M2.5,0A2.5,2.5 0 1,1 0,-2.5A2.5,2.5 0 0,1 2.5,0Z" style="opacity: 1; stroke-width: 0px; fill: rgb(38, 131, 198); fill-opacity: 0.9;"/><path class="point" transform="translate(385.68,138.17)" d="M2.5,0A2.5,2.5 0 1,1 0,-2.5A2.5,2.5 0 0,1 2.5,0Z" style="opacity: 1; stroke-width: 0px; fill: rgb(38, 131, 198); fill-opacity: 0.9;"/><path class="point" transform="translate(389.33,135.67)" d="M2.5,0A2.5,2.5 0 1,1 0,-2.5A2.5,2.5 0 0,1 2.5,0Z" style="opacity: 1; stroke-width: 0px; fill: rgb(38, 131, 198); fill-opacity: 0.9;"/><path class="point" transform="translate(393.23,137.09)" d="M2.5,0A2.5,2.5 0 1,1 0,-2.5A2.5,2.5 0 0,1 2.5,0Z" style="opacity: 1; stroke-width: 0px; fill: rgb(38, 131, 198); fill-opacity: 0.9;"/><path class="point" transform="translate(397.85,145.76)" d="M2.5,0A2.5,2.5 0 1,1 0,-2.5A2.5,2.5 0 0,1 2.5,0Z" style="opacity: 1; stroke-width: 0px; fill: rgb(38, 131, 198); fill-opacity: 0.9;"/><path class="point" transform="translate(401.99,147.5)" d="M2.5,0A2.5,2.5 0 1,1 0,-2.5A2.5,2.5 0 0,1 2.5,0Z" style="opacity: 1; stroke-width: 0px; fill: rgb(38, 131, 198); fill-opacity: 0.9;"/><path class="point" transform="translate(406.12,147.79)" d="M2.5,0A2.5,2.5 0 1,1 0,-2.5A2.5,2.5 0 0,1 2.5,0Z" style="opacity: 1; stroke-width: 0px; fill: rgb(38, 131, 198); fill-opacity: 0.9;"/><path class="point" transform="translate(410.26,142.44)" d="M2.5,0A2.5,2.5 0 1,1 0,-2.5A2.5,2.5 0 0,1 2.5,0Z" style="opacity: 1; stroke-width: 0px; fill: rgb(38, 131, 198); fill-opacity: 0.9;"/><path class="point" transform="translate(414.4,139.39)" d="M2.5,0A2.5,2.5 0 1,1 0,-2.5A2.5,2.5 0 0,1 2.5,0Z" style="opacity: 1; stroke-width: 0px; fill: rgb(38, 131, 198); fill-opacity: 0.9;"/><path class="point" transform="translate(418.53,140.56)" d="M2.5,0A2.5,2.5 0 1,1 0,-2.5A2.5,2.5 0 0,1 2.5,0Z" style="opacity: 1; stroke-width: 0px; fill: rgb(38, 131, 198); fill-opacity: 0.9;"/><path class="point" transform="translate(436.3,138.08)" d="M2.5,0A2.5,2.5 0 1,1 0,-2.5A2.5,2.5 0 0,1 2.5,0Z" style="opacity: 1; stroke-width: 0px; fill: rgb(38, 131, 198); fill-opacity: 0.9;"/><path class="point" transform="translate(440.19,143.12)" d="M2.5,0A2.5,2.5 0 1,1 0,-2.5A2.5,2.5 0 0,1 2.5,0Z" style="opacity: 1; stroke-width: 0px; fill: rgb(38, 131, 198); fill-opacity: 0.9;"/><path class="point" transform="translate(444.57,142.41)" d="M2.5,0A2.5,2.5 0 1,1 0,-2.5A2.5,2.5 0 0,1 2.5,0Z" style="opacity: 1; stroke-width: 0px; fill: rgb(38, 131, 198); fill-opacity: 0.9;"/><path class="point" transform="translate(448.95,140.31)" d="M2.5,0A2.5,2.5 0 1,1 0,-2.5A2.5,2.5 0 0,1 2.5,0Z" style="opacity: 1; stroke-width: 0px; fill: rgb(38, 131, 198); fill-opacity: 0.9;"/><path class="point" transform="translate(452.6,143.61)" d="M2.5,0A2.5,2.5 0 1,1 0,-2.5A2.5,2.5 0 0,1 2.5,0Z" style="opacity: 1; stroke-width: 0px; fill: rgb(38, 131, 198); fill-opacity: 0.9;"/><path class="point" transform="translate(457.47,140.72)" d="M2.5,0A2.5,2.5 0 1,1 0,-2.5A2.5,2.5 0 0,1 2.5,0Z" style="opacity: 1; stroke-width: 0px; fill: rgb(38, 131, 198); fill-opacity: 0.9;"/><path class="point" transform="translate(461.36,143.97)" d="M2.5,0A2.5,2.5 0 1,1 0,-2.5A2.5,2.5 0 0,1 2.5,0Z" style="opacity: 1; stroke-width: 0px; fill: rgb(38, 131, 198); fill-opacity: 0.9;"/><path class="point" transform="translate(465.25,136.03)" d="M2.5,0A2.5,2.5 0 1,1 0,-2.5A2.5,2.5 0 0,1 2.5,0Z" style="opacity: 1; stroke-width: 0px; fill: rgb(38, 131, 198); fill-opacity: 0.9;"/><path class="point" transform="translate(469.39,136.55)" d="M2.5,0A2.5,2.5 0 1,1 0,-2.5A2.5,2.5 0 0,1 2.5,0Z" style="opacity: 1; stroke-width: 0px; fill: rgb(38, 131, 198); fill-opacity: 0.9;"/><path class="point" transform="translate(473.28,134.01)" d="M2.5,0A2.5,2.5 0 1,1 0,-2.5A2.5,2.5 0 0,1 2.5,0Z" style="opacity: 1; stroke-width: 0px; fill: rgb(38, 131, 198); fill-opacity: 0.9;"/><path class="point" transform="translate(477.18,133.2)" d="M2.5,0A2.5,2.5 0 1,1 0,-2.5A2.5,2.5 0 0,1 2.5,0Z" style="opacity: 1; stroke-width: 0px; fill: rgb(38, 131, 198); fill-opacity: 0.9;"/><path class="point" transform="translate(481.07,134.85)" d="M2.5,0A2.5,2.5 0 1,1 0,-2.5A2.5,2.5 0 0,1 2.5,0Z" style="opacity: 1; stroke-width: 0px; fill: rgb(38, 131, 198); fill-opacity: 0.9;"/><path class="point" transform="translate(485.21,135.75)" d="M2.5,0A2.5,2.5 0 1,1 0,-2.5A2.5,2.5 0 0,1 2.5,0Z" style="opacity: 1; stroke-width: 0px; fill: rgb(38, 131, 198); fill-opacity: 0.9;"/><path class="point" transform="translate(488.86,137.42)" d="M2.5,0A2.5,2.5 0 1,1 0,-2.5A2.5,2.5 0 0,1 2.5,0Z" style="opacity: 1; stroke-width: 0px; fill: rgb(38, 131, 198); fill-opacity: 0.9;"/><path class="point" transform="translate(492.75,135.75)" d="M2.5,0A2.5,2.5 0 1,1 0,-2.5A2.5,2.5 0 0,1 2.5,0Z" style="opacity: 1; stroke-width: 0px; fill: rgb(38, 131, 198); fill-opacity: 0.9;"/><path class="point" transform="translate(496.64,133.52)" d="M2.5,0A2.5,2.5 0 1,1 0,-2.5A2.5,2.5 0 0,1 2.5,0Z" style="opacity: 1; stroke-width: 0px; fill: rgb(38, 131, 198); fill-opacity: 0.9;"/><path class="point" transform="translate(500.54,136.45)" d="M2.5,0A2.5,2.5 0 1,1 0,-2.5A2.5,2.5 0 0,1 2.5,0Z" style="opacity: 1; stroke-width: 0px; fill: rgb(38, 131, 198); fill-opacity: 0.9;"/><path class="point" transform="translate(504.43,140.05)" d="M2.5,0A2.5,2.5 0 1,1 0,-2.5A2.5,2.5 0 0,1 2.5,0Z" style="opacity: 1; stroke-width: 0px; fill: rgb(38, 131, 198); fill-opacity: 0.9;"/><path class="point" transform="translate(521.46,137.99)" d="M2.5,0A2.5,2.5 0 1,1 0,-2.5A2.5,2.5 0 0,1 2.5,0Z" style="opacity: 1; stroke-width: 0px; fill: rgb(38, 131, 198); fill-opacity: 0.9;"/><path class="point" transform="translate(525.36,139.5)" d="M2.5,0A2.5,2.5 0 1,1 0,-2.5A2.5,2.5 0 0,1 2.5,0Z" style="opacity: 1; stroke-width: 0px; fill: rgb(38, 131, 198); fill-opacity: 0.9;"/><path class="point" transform="translate(529.25,140.57)" d="M2.5,0A2.5,2.5 0 1,1 0,-2.5A2.5,2.5 0 0,1 2.5,0Z" style="opacity: 1; stroke-width: 0px; fill: rgb(38, 131, 198); fill-opacity: 0.9;"/><path class="point" transform="translate(533.39,138.58)" d="M2.5,0A2.5,2.5 0 1,1 0,-2.5A2.5,2.5 0 0,1 2.5,0Z" style="opacity: 1; stroke-width: 0px; fill: rgb(38, 131, 198); fill-opacity: 0.9;"/><path class="point" transform="translate(537.28,138.78)" d="M2.5,0A2.5,2.5 0 1,1 0,-2.5A2.5,2.5 0 0,1 2.5,0Z" style="opacity: 1; stroke-width: 0px; fill: rgb(38, 131, 198); fill-opacity: 0.9;"/><path class="point" transform="translate(541.17,137.99)" d="M2.5,0A2.5,2.5 0 1,1 0,-2.5A2.5,2.5 0 0,1 2.5,0Z" style="opacity: 1; stroke-width: 0px; fill: rgb(38, 131, 198); fill-opacity: 0.9;"/><path class="point" transform="translate(545.07,137.83)" d="M2.5,0A2.5,2.5 0 1,1 0,-2.5A2.5,2.5 0 0,1 2.5,0Z" style="opacity: 1; stroke-width: 0px; fill: rgb(38, 131, 198); fill-opacity: 0.9;"/><path class="point" transform="translate(549.2,135.48)" d="M2.5,0A2.5,2.5 0 1,1 0,-2.5A2.5,2.5 0 0,1 2.5,0Z" style="opacity: 1; stroke-width: 0px; fill: rgb(38, 131, 198); fill-opacity: 0.9;"/><path class="point" transform="translate(553.1,139.96)" d="M2.5,0A2.5,2.5 0 1,1 0,-2.5A2.5,2.5 0 0,1 2.5,0Z" style="opacity: 1; stroke-width: 0px; fill: rgb(38, 131, 198); fill-opacity: 0.9;"/><path class="point" transform="translate(557.23,137.72)" d="M2.5,0A2.5,2.5 0 1,1 0,-2.5A2.5,2.5 0 0,1 2.5,0Z" style="opacity: 1; stroke-width: 0px; fill: rgb(38, 131, 198); fill-opacity: 0.9;"/><path class="point" transform="translate(560.88,138.22)" d="M2.5,0A2.5,2.5 0 1,1 0,-2.5A2.5,2.5 0 0,1 2.5,0Z" style="opacity: 1; stroke-width: 0px; fill: rgb(38, 131, 198); fill-opacity: 0.9;"/><path class="point" transform="translate(565.75,139.57)" d="M2.5,0A2.5,2.5 0 1,1 0,-2.5A2.5,2.5 0 0,1 2.5,0Z" style="opacity: 1; stroke-width: 0px; fill: rgb(38, 131, 198); fill-opacity: 0.9;"/><path class="point" transform="translate(570.37,148.06)" d="M2.5,0A2.5,2.5 0 1,1 0,-2.5A2.5,2.5 0 0,1 2.5,0Z" style="opacity: 1; stroke-width: 0px; fill: rgb(38, 131, 198); fill-opacity: 0.9;"/><path class="point" transform="translate(575.24,144.49)" d="M2.5,0A2.5,2.5 0 1,1 0,-2.5A2.5,2.5 0 0,1 2.5,0Z" style="opacity: 1; stroke-width: 0px; fill: rgb(38, 131, 198); fill-opacity: 0.9;"/><path class="point" transform="translate(579.13,137.33)" d="M2.5,0A2.5,2.5 0 1,1 0,-2.5A2.5,2.5 0 0,1 2.5,0Z" style="opacity: 1; stroke-width: 0px; fill: rgb(38, 131, 198); fill-opacity: 0.9;"/><path class="point" transform="translate(583.03,132.96)" d="M2.5,0A2.5,2.5 0 1,1 0,-2.5A2.5,2.5 0 0,1 2.5,0Z" style="opacity: 1; stroke-width: 0px; fill: rgb(38, 131, 198); fill-opacity: 0.9;"/><path class="point" transform="translate(587.41,134.6)" d="M2.5,0A2.5,2.5 0 1,1 0,-2.5A2.5,2.5 0 0,1 2.5,0Z" style="opacity: 1; stroke-width: 0px; fill: rgb(38, 131, 198); fill-opacity: 0.9;"/><path class="point" transform="translate(591.3,135.28)" d="M2.5,0A2.5,2.5 0 1,1 0,-2.5A2.5,2.5 0 0,1 2.5,0Z" style="opacity: 1; stroke-width: 0px; fill: rgb(38, 131, 198); fill-opacity: 0.9;"/><path class="point" transform="translate(595.44,135.93)" d="M2.5,0A2.5,2.5 0 1,1 0,-2.5A2.5,2.5 0 0,1 2.5,0Z" style="opacity: 1; stroke-width: 0px; fill: rgb(38, 131, 198); fill-opacity: 0.9;"/><path class="point" transform="translate(599.57,137.79)" d="M2.5,0A2.5,2.5 0 1,1 0,-2.5A2.5,2.5 0 0,1 2.5,0Z" style="opacity: 1; stroke-width: 0px; fill: rgb(38, 131, 198); fill-opacity: 0.9;"/><path class="point" transform="translate(603.71,136.95)" d="M2.5,0A2.5,2.5 0 1,1 0,-2.5A2.5,2.5 0 0,1 2.5,0Z" style="opacity: 1; stroke-width: 0px; fill: rgb(38, 131, 198); fill-opacity: 0.9;"/><path class="point" transform="translate(607.6,133.2)" d="M2.5,0A2.5,2.5 0 1,1 0,-2.5A2.5,2.5 0 0,1 2.5,0Z" style="opacity: 1; stroke-width: 0px; fill: rgb(38, 131, 198); fill-opacity: 0.9;"/><path class="point" transform="translate(611.98,135.15)" d="M2.5,0A2.5,2.5 0 1,1 0,-2.5A2.5,2.5 0 0,1 2.5,0Z" style="opacity: 1; stroke-width: 0px; fill: rgb(38, 131, 198); fill-opacity: 0.9;"/><path class="point" transform="translate(616.85,141.54)" d="M2.5,0A2.5,2.5 0 1,1 0,-2.5A2.5,2.5 0 0,1 2.5,0Z" style="opacity: 1; stroke-width: 0px; fill: rgb(38, 131, 198); fill-opacity: 0.9;"/><path class="point" transform="translate(621.47,143.18)" d="M2.5,0A2.5,2.5 0 1,1 0,-2.5A2.5,2.5 0 0,1 2.5,0Z" style="opacity: 1; stroke-width: 0px; fill: rgb(38, 131, 198); fill-opacity: 0.9;"/><path class="point" transform="translate(625.61,143.07)" d="M2.5,0A2.5,2.5 0 1,1 0,-2.5A2.5,2.5 0 0,1 2.5,0Z" style="opacity: 1; stroke-width: 0px; fill: rgb(38, 131, 198); fill-opacity: 0.9;"/><path class="point" transform="translate(655.78,127.65)" d="M2.5,0A2.5,2.5 0 1,1 0,-2.5A2.5,2.5 0 0,1 2.5,0Z" style="opacity: 1; stroke-width: 0px; fill: rgb(38, 131, 198); fill-opacity: 0.9;"/><path class="point" transform="translate(659.43,127.4)" d="M2.5,0A2.5,2.5 0 1,1 0,-2.5A2.5,2.5 0 0,1 2.5,0Z" style="opacity: 1; stroke-width: 0px; fill: rgb(38, 131, 198); fill-opacity: 0.9;"/><path class="point" transform="translate(663.33,125.44)" d="M2.5,0A2.5,2.5 0 1,1 0,-2.5A2.5,2.5 0 0,1 2.5,0Z" style="opacity: 1; stroke-width: 0px; fill: rgb(38, 131, 198); fill-opacity: 0.9;"/><path class="point" transform="translate(666.98,128.24)" d="M2.5,0A2.5,2.5 0 1,1 0,-2.5A2.5,2.5 0 0,1 2.5,0Z" style="opacity: 1; stroke-width: 0px; fill: rgb(38, 131, 198); fill-opacity: 0.9;"/><path class="point" transform="translate(670.63,128.39)" d="M2.5,0A2.5,2.5 0 1,1 0,-2.5A2.5,2.5 0 0,1 2.5,0Z" style="opacity: 1; stroke-width: 0px; fill: rgb(38, 131, 198); fill-opacity: 0.9;"/><path class="point" transform="translate(674.28,130.97)" d="M2.5,0A2.5,2.5 0 1,1 0,-2.5A2.5,2.5 0 0,1 2.5,0Z" style="opacity: 1; stroke-width: 0px; fill: rgb(38, 131, 198); fill-opacity: 0.9;"/><path class="point" transform="translate(678.17,131.76)" d="M2.5,0A2.5,2.5 0 1,1 0,-2.5A2.5,2.5 0 0,1 2.5,0Z" style="opacity: 1; stroke-width: 0px; fill: rgb(38, 131, 198); fill-opacity: 0.9;"/><path class="point" transform="translate(682.06,135.39)" d="M2.5,0A2.5,2.5 0 1,1 0,-2.5A2.5,2.5 0 0,1 2.5,0Z" style="opacity: 1; stroke-width: 0px; fill: rgb(38, 131, 198); fill-opacity: 0.9;"/><path class="point" transform="translate(686.2,134.24)" d="M2.5,0A2.5,2.5 0 1,1 0,-2.5A2.5,2.5 0 0,1 2.5,0Z" style="opacity: 1; stroke-width: 0px; fill: rgb(38, 131, 198); fill-opacity: 0.9;"/><path class="point" transform="translate(690.09,132.89)" d="M2.5,0A2.5,2.5 0 1,1 0,-2.5A2.5,2.5 0 0,1 2.5,0Z" style="opacity: 1; stroke-width: 0px; fill: rgb(38, 131, 198); fill-opacity: 0.9;"/><path class="point" transform="translate(693.99,136.68)" d="M2.5,0A2.5,2.5 0 1,1 0,-2.5A2.5,2.5 0 0,1 2.5,0Z" style="opacity: 1; stroke-width: 0px; fill: rgb(38, 131, 198); fill-opacity: 0.9;"/><path class="point" transform="translate(697.88,137.65)" d="M2.5,0A2.5,2.5 0 1,1 0,-2.5A2.5,2.5 0 0,1 2.5,0Z" style="opacity: 1; stroke-width: 0px; fill: rgb(38, 131, 198); fill-opacity: 0.9;"/><path class="point" transform="translate(702.02,140.45)" d="M2.5,0A2.5,2.5 0 1,1 0,-2.5A2.5,2.5 0 0,1 2.5,0Z" style="opacity: 1; stroke-width: 0px; fill: rgb(38, 131, 198); fill-opacity: 0.9;"/><path class="point" transform="translate(705.67,134.97)" d="M2.5,0A2.5,2.5 0 1,1 0,-2.5A2.5,2.5 0 0,1 2.5,0Z" style="opacity: 1; stroke-width: 0px; fill: rgb(38, 131, 198); fill-opacity: 0.9;"/><path class="point" transform="translate(709.56,136.86)" d="M2.5,0A2.5,2.5 0 1,1 0,-2.5A2.5,2.5 0 0,1 2.5,0Z" style="opacity: 1; stroke-width: 0px; fill: rgb(38, 131, 198); fill-opacity: 0.9;"/><path class="point" transform="translate(713.45,135.89)" d="M2.5,0A2.5,2.5 0 1,1 0,-2.5A2.5,2.5 0 0,1 2.5,0Z" style="opacity: 1; stroke-width: 0px; fill: rgb(38, 131, 198); fill-opacity: 0.9;"/><path class="point" transform="translate(717.59,134.29)" d="M2.5,0A2.5,2.5 0 1,1 0,-2.5A2.5,2.5 0 0,1 2.5,0Z" style="opacity: 1; stroke-width: 0px; fill: rgb(38, 131, 198); fill-opacity: 0.9;"/><path class="point" transform="translate(721.48,130.88)" d="M2.5,0A2.5,2.5 0 1,1 0,-2.5A2.5,2.5 0 0,1 2.5,0Z" style="opacity: 1; stroke-width: 0px; fill: rgb(38, 131, 198); fill-opacity: 0.9;"/><path class="point" transform="translate(725.13,127.26)" d="M2.5,0A2.5,2.5 0 1,1 0,-2.5A2.5,2.5 0 0,1 2.5,0Z" style="opacity: 1; stroke-width: 0px; fill: rgb(38, 131, 198); fill-opacity: 0.9;"/></g><g class="text"/></g><g class="trace scatter traceb59697" style="stroke-miterlimit: 2; opacity: 1;"><g class="fills"/><g class="errorbars"/><g class="lines"><path class="js-line" d="M41.61,244.73L55.98,229.59L56.66,228.92L72.4,214.89L73.08,214.33L90.19,201.63L90.87,201.16L110.03,189.51L110.71,189.14L129.87,179.71L130.56,179.41L149.71,171.78L150.4,171.53L172.29,164.58L172.98,164.38L196.93,158.46L197.61,158.32L222.24,153.65L222.92,153.54L248.24,149.89L248.92,149.8L292.71,145.44L293.4,145.39L345.4,142.29L346.08,142.26L410.4,140.2L411.08,140.19L469.92,139.22L470.61,139.22L571.19,138.49L571.87,138.49L725.13,138.19" style="vector-effect: non-scaling-stroke; fill: none; stroke: rgb(239, 111, 106); stroke-opacity: 1; stroke-width: 2px; opacity: 1;"/></g><g class="points"/><g class="text"/></g></g></g><g class="overplot"/><path class="xlines-above crisp" d="M0,0" style="fill: none;"/><path class="ylines-above crisp" d="M0,0" style="fill: none;"/><g class="overlines-above"/><g class="xaxislayer-above"><g class="xtick"><text text-anchor="middle" x="0" y="403" transform="translate(60,0)" style="font-family: 'Open Sans', verdana, arial, sans-serif; font-size: 12px; fill: rgb(68, 68, 68); fill-opacity: 1; white-space: pre; opacity: 1;">0</text></g><g class="xtick"><text text-anchor="middle" x="0" y="403" style="font-family: 'Open Sans', verdana, arial, sans-serif; font-size: 12px; fill: rgb(68, 68, 68); fill-opacity: 1; white-space: pre; opacity: 1;" transform="translate(181.67000000000002,0)">50</text></g><g class="xtick"><text text-anchor="middle" x="0" y="403" style="font-family: 'Open Sans', verdana, arial, sans-serif; font-size: 12px; fill: rgb(68, 68, 68); fill-opacity: 1; white-space: pre; opacity: 1;" transform="translate(303.33000000000004,0)">100</text></g><g class="xtick"><text text-anchor="middle" x="0" y="403" style="font-family: 'Open Sans', verdana, arial, sans-serif; font-size: 12px; fill: rgb(68, 68, 68); fill-opacity: 1; white-space: pre; opacity: 1;" transform="translate(425,0)">150</text></g><g class="xtick"><text text-anchor="middle" x="0" y="403" style="font-family: 'Open Sans', verdana, arial, sans-serif; font-size: 12px; fill: rgb(68, 68, 68); fill-opacity: 1; white-space: pre; opacity: 1;" transform="translate(546.6700000000001,0)">200</text></g><g class="xtick"><text text-anchor="middle" x="0" y="403" style="font-family: 'Open Sans', verdana, arial, sans-serif; font-size: 12px; fill: rgb(68, 68, 68); fill-opacity: 1; white-space: pre; opacity: 1;" transform="translate(668.33,0)">250</text></g><g class="xtick"><text text-anchor="middle" x="0" y="403" style="font-family: 'Open Sans', verdana, arial, sans-serif; font-size: 12px; fill: rgb(68, 68, 68); fill-opacity: 1; white-space: pre; opacity: 1;" transform="translate(790,0)">300</text></g><g class="xtick"><text text-anchor="middle" x="0" y="403" style="font-family: 'Open Sans', verdana, arial, sans-serif; font-size: 12px; fill: rgb(68, 68, 68); fill-opacity: 1; white-space: pre; opacity: 1;" transform="translate(911.67,0)">350</text></g></g><g class="yaxislayer-above"><g class="ytick"><text text-anchor="end" x="59" y="4.199999999999999" transform="translate(0,390)" style="font-family: 'Open Sans', verdana, arial, sans-serif; font-size: 12px; fill: rgb(68, 68, 68); fill-opacity: 1; white-space: pre; opacity: 1;">0</text></g><g class="ytick"><text text-anchor="end" x="59" y="4.199999999999999" style="font-family: 'Open Sans', verdana, arial, sans-serif; font-size: 12px; fill: rgb(68, 68, 68); fill-opacity: 1; white-space: pre; opacity: 1;" transform="translate(0,336.15)">1</text></g><g class="ytick"><text text-anchor="end" x="59" y="4.199999999999999" style="font-family: 'Open Sans', verdana, arial, sans-serif; font-size: 12px; fill: rgb(68, 68, 68); fill-opacity: 1; white-space: pre; opacity: 1;" transform="translate(0,282.31)">2</text></g><g class="ytick"><text text-anchor="end" x="59" y="4.199999999999999" style="font-family: 'Open Sans', verdana, arial, sans-serif; font-size: 12px; fill: rgb(68, 68, 68); fill-opacity: 1; white-space: pre; opacity: 1;" transform="translate(0,228.46)">3</text></g><g class="ytick"><text text-anchor="end" x="59" y="4.199999999999999" style="font-family: 'Open Sans', verdana, arial, sans-serif; font-size: 12px; fill: rgb(68, 68, 68); fill-opacity: 1; white-space: pre; opacity: 1;" transform="translate(0,174.62)">4</text></g><g class="ytick"><text text-anchor="end" x="59" y="4.199999999999999" style="font-family: 'Open Sans', verdana, arial, sans-serif; font-size: 12px; fill: rgb(68, 68, 68); fill-opacity: 1; white-space: pre; opacity: 1;" transform="translate(0,120.77)">5</text></g><g class="ytick"><text text-anchor="end" x="59" y="4.199999999999999" style="font-family: 'Open Sans', verdana, arial, sans-serif; font-size: 12px; fill: rgb(68, 68, 68); fill-opacity: 1; white-space: pre; opacity: 1;" transform="translate(0,66.92)">6</text></g></g><g class="overaxes-above"/></g></g><g class="polarlayer"/><g class="smithlayer"/><g class="ternarylayer"/><g class="geolayer"/><g class="funnelarealayer"/><g class="pielayer"/><g class="iciclelayer"/><g class="treemaplayer"/><g class="sunburstlayer"/><g class="glimages"/><defs id="topdefs-25daed"><g class="clips"/><clipPath id="legend25daed"><rect width="134" height="48" x="0" y="0"/></clipPath></defs><g class="layer-above"><g class="imagelayer"/><g class="shapelayer"><path data-index="0" fill-rule="evenodd" d="M101.61,390L101.61,40" clip-path="url(#clip25daedxy)" style="opacity: 1; stroke: rgb(128, 128, 128); stroke-opacity: 1; fill: rgb(0, 0, 0); fill-opacity: 0; stroke-dasharray: 9px, 9px; stroke-width: 1px;"/><path data-index="1" fill-rule="evenodd" d="M195.39,390L195.39,40" clip-path="url(#clip25daedxy)" style="opacity: 1; stroke: rgb(128, 128, 128); stroke-opacity: 1; fill: rgb(0, 0, 0); fill-opacity: 0; stroke-dasharray: 9px, 9px; stroke-width: 1px;"/><path data-index="2" fill-rule="evenodd" d="M476.71,390L476.71,40" clip-path="url(#clip25daedxy)" style="opacity: 1; stroke: rgb(128, 128, 128); stroke-opacity: 1; fill: rgb(0, 0, 0); fill-opacity: 0; stroke-dasharray: 9px, 9px; stroke-width: 1px;"/><path data-index="3" fill-rule="evenodd" d="M60,369L936,369" clip-path="url(#clip25daedxy)" style="opacity: 1; stroke: rgb(128, 128, 128); stroke-opacity: 1; fill: rgb(0, 0, 0); fill-opacity: 0; stroke-dasharray: 9px, 9px; stroke-width: 1px;"/><path data-index="4" fill-rule="evenodd" d="M60,180.07L936,180.07" clip-path="url(#clip25daedxy)" style="opacity: 1; stroke: rgb(128, 128, 128); stroke-opacity: 1; fill: rgb(0, 0, 0); fill-opacity: 0; stroke-dasharray: 9px, 9px; stroke-width: 1px;"/></g></g><g class="infolayer"><g class="legend" pointer-events="all" transform="translate(953.52,40)"><rect class="bg" shape-rendering="crispEdges" style="stroke: rgb(68, 68, 68); stroke-opacity: 1; fill: rgb(255, 255, 255); fill-opacity: 1; stroke-width: 0px;" width="134" height="48" x="0" y="0"/><g class="scrollbox" transform="" clip-path="url(#legend25daed)"><g class="groups"><g class="traces" transform="translate(0,14.5)" style="opacity: 1;"><text class="legendtext" text-anchor="start" x="40" y="4.680000000000001" style="font-family: 'Open Sans', verdana, arial, sans-serif; font-size: 12px; fill: rgb(68, 68, 68); fill-opacity: 1; white-space: pre;">V̇O​<tspan style="font-size:70%" dy="0.3em">2</tspan><tspan dy="-0.21em">​</tspan></text><g class="layers" style="opacity: 1;"><g class="legendfill"/><g class="legendlines"><path class="js-line" d="M5,0h30" style="fill: none; stroke: rgb(38, 131, 198); stroke-opacity: 1; stroke-dasharray: 4, 4; stroke-width: 0.65px;"/></g><g class="legendsymbols"><g class="legendpoints"><path class="scatterpts" transform="translate(20,0)" d="M2.5,0A2.5,2.5 0 1,1 0,-2.5A2.5,2.5 0 0,1 2.5,0Z" style="opacity: 1; stroke-width: 0px; fill: rgb(38, 131, 198); fill-opacity: 0.9;"/></g></g></g><rect class="legendtoggle" x="0" y="-9.5" width="128.015625" height="19" style="fill: rgb(0, 0, 0); fill-opacity: 0;"/></g><g class="traces" transform="translate(0,33.5)" style="opacity: 1;"><text class="legendtext" text-anchor="start" x="40" y="4.680000000000001" style="font-family: 'Open Sans', verdana, arial, sans-serif; font-size: 12px; fill: rgb(68, 68, 68); fill-opacity: 1; white-space: pre;">Modellfunktion</text><g class="layers" style="opacity: 1;"><g class="legendfill"/><g class="legendlines"><path class="js-line" d="M5,0h30" style="fill: none; stroke: rgb(239, 111, 106); stroke-opacity: 1; stroke-width: 2px;"/></g><g class="legendsymbols"><g class="legendpoints"/></g></g><rect class="legendtoggle" x="0" y="-9.5" width="128.015625" height="19" style="fill: rgb(0, 0, 0); fill-opacity: 0;"/></g></g></g><rect class="scrollbar" rx="20" ry="3" width="0" height="0" style="fill: rgb(128, 139, 164); fill-opacity: 1;" x="0" y="0"/></g><g class="g-gtitle"><text class="gtitle" x="550" y="20" text-anchor="middle" dy="0em" style="font-family: 'Open Sans', verdana, arial, sans-serif; font-size: 17px; fill: rgb(68, 68, 68); opacity: 1; font-weight: normal; white-space: pre;">V̇O₂ für Test_06_1_stehen_leicht</text></g><g class="g-xtitle"><text class="xtitle" x="498" y="442" text-anchor="middle" style="font-family: 'Open Sans', verdana, arial, sans-serif; font-size: 14px; fill: rgb(68, 68, 68); opacity: 1; font-weight: normal; white-space: pre;">Zeit [s]</text></g><g class="g-ytitle"><text class="ytitle" transform="rotate(-90,22,215)" x="22" y="215" text-anchor="middle" style="font-family: 'Open Sans', verdana, arial, sans-serif; font-size: 14px; fill: rgb(68, 68, 68); opacity: 1; font-weight: normal; white-space: pre;">V̇O​<tspan style="font-size:70%" dy="0.3em">2</tspan><tspan dy="-0.21em">​</tspan> [l·min​<tspan style="font-size:70%" dy="-0.6em">-1</tspan><tspan dy="0.42em">​</tspan>]</text></g><g class="annotation" data-index="0" style="opacity: 1;"><g class="annotation-text-g" transform="rotate(-90,111.11,65.42)"><g class="cursor-pointer" transform="translate(75,56)"><rect class="bg" x="0.5" y="0.5" width="72" height="18" style="stroke-width: 1px; stroke: rgb(0, 0, 0); stroke-opacity: 0; fill: rgb(0, 0, 0); fill-opacity: 0;"/><text class="annotation-text" text-anchor="middle" x="36.203125" y="13" style="font-family: 'Open Sans', verdana, arial, sans-serif; font-size: 11px; fill: rgb(68, 68, 68); fill-opacity: 1; white-space: pre;">t​<tspan style="font-size:70%" dy="0.3em">delay</tspan><tspan dy="-0.21em">​</tspan>: 17.1 s</text></g></g></g><g class="annotation" data-index="1" style="opacity: 1;"><g class="annotation-text-g" transform="rotate(-90,203.89,74.92)"><g class="cursor-pointer" transform="translate(177,66)"><rect class="bg" x="0.5" y="0.5" width="53" height="16" style="stroke-width: 1px; stroke: rgb(0, 0, 0); stroke-opacity: 0; fill: rgb(0, 0, 0); fill-opacity: 0;"/><text class="annotation-text" text-anchor="middle" x="27.453125" y="13" style="font-family: 'Open Sans', verdana, arial, sans-serif; font-size: 11px; fill: rgb(68, 68, 68); fill-opacity: 1; white-space: pre;">τ: 38.5 s</text></g></g></g><g class="annotation" data-index="2" style="opacity: 1;"><g class="annotation-text-g" transform="rotate(-90,485.21,68.42)"><g class="cursor-pointer" transform="translate(452,60)"><rect class="bg" x="0.5" y="0.5" width="66" height="16" style="stroke-width: 1px; stroke: rgb(0, 0, 0); stroke-opacity: 0; fill: rgb(0, 0, 0); fill-opacity: 0;"/><text class="annotation-text" text-anchor="middle" x="33.453125" y="13" style="font-family: 'Open Sans', verdana, arial, sans-serif; font-size: 11px; fill: rgb(68, 68, 68); fill-opacity: 1; white-space: pre;">4τ: 154.2 s</text></g></g></g><g class="annotation" data-index="3" style="opacity: 1;"><g class="annotation-text-g" transform="rotate(0,627.35,262.53999999999996)"><g class="cursor-pointer" transform="translate(604,254)"><rect class="bg" x="0.5" y="0.5" width="46" height="17" style="stroke-width: 1px; stroke: rgb(0, 0, 0); stroke-opacity: 0; fill: rgb(0, 0, 0); fill-opacity: 0;"/><text class="annotation-text" text-anchor="middle" x="23.34375" y="13" style="font-family: Arial, sans-serif; font-size: 12px; fill: rgb(0, 0, 0); fill-opacity: 1; white-space: pre;">R²: 0.92</text></g></g></g><g class="annotation" data-index="4" style="opacity: 1;"><g class="annotation-text-g" transform="rotate(0,714.35,245.38)"><g class="cursor-pointer" transform="translate(604,235)"><rect class="bg" x="0.5" y="0.5" width="220" height="19" style="stroke-width: 1px; stroke: rgb(0, 0, 0); stroke-opacity: 0; fill: rgb(0, 0, 0); fill-opacity: 0;"/><text class="annotation-text" text-anchor="middle" x="110.421875" y="15.046875" style="font-family: Arial, sans-serif; font-size: 12px; fill: rgb(0, 0, 0); fill-opacity: 1; white-space: pre;">V̇O₂(t) = 1.98 * (1 - e​<tspan style="font-size:70%" dy="-0.6em">-(t - 17.10) / 38.54</tspan><tspan dy="0.42em">​</tspan>) + 1.96</text></g></g></g><g class="annotation" data-index="5" style="opacity: 1;"><g class="annotation-text-g" transform="rotate(0,647.85,293.85)"><g class="cursor-pointer" transform="translate(604,284)"><rect class="bg" x="0.5" y="0.5" width="87" height="19" style="stroke-width: 1px; stroke: rgb(0, 0, 0); stroke-opacity: 0; fill: rgb(0, 0, 0); fill-opacity: 0;"/><text class="annotation-text" text-anchor="middle" x="43.953125" y="13.125" style="font-family: Arial, sans-serif; font-size: 12px; fill: rgb(0, 0, 0); fill-opacity: 1; white-space: pre;">V̇O​<tspan style="font-size:70%" dy="0.3em">2net,SS</tspan><tspan dy="-0.21em">​</tspan>: 3.509</text></g></g></g><g class="annotation" data-index="6" style="opacity: 1;"><g class="annotation-text-g" transform="rotate(0,244.53,358.92)"><g class="cursor-pointer" transform="translate(205,350)"><rect class="bg" x="0.5" y="0.5" width="78" height="17" style="stroke-width: 1px; stroke: rgb(0, 0, 0); stroke-opacity: 0; fill: rgb(0, 0, 0); fill-opacity: 0;"/><text class="annotation-text" text-anchor="middle" x="40.1875" y="12" style="font-family: Arial, sans-serif; font-size: 11px; fill: rgb(0, 0, 0); fill-opacity: 1; white-space: pre;">V̇O​<tspan style="font-size:70%" dy="0.3em">2,Ruhe</tspan><tspan dy="-0.21em">​</tspan>: 0.390</text></g></g></g><g class="annotation" data-index="7" style="opacity: 1;"><g class="annotation-text-g" transform="rotate(0,250.03,169.99)"><g class="cursor-pointer" transform="translate(205,161)"><rect class="bg" x="0.5" y="0.5" width="89" height="17" style="stroke-width: 1px; stroke: rgb(0, 0, 0); stroke-opacity: 0; fill: rgb(0, 0, 0); fill-opacity: 0;"/><text class="annotation-text" text-anchor="middle" x="45.53125" y="12" style="font-family: Arial, sans-serif; font-size: 11px; fill: rgb(0, 0, 0); fill-opacity: 1; white-space: pre;">V̇O​<tspan style="font-size:70%" dy="0.3em">2gross,SS</tspan><tspan dy="-0.21em">​</tspan>: 3.899</text></g></g></g><g class="annotation" data-index="8" style="opacity: 1;"><g class="annotation-text-g" transform="rotate(0,630.35,277.69)"><g class="cursor-pointer" transform="translate(604,268)"><rect class="bg" x="0.5" y="0.5" width="52" height="19" style="stroke-width: 1px; stroke: rgb(0, 0, 0); stroke-opacity: 0; fill: rgb(0, 0, 0); fill-opacity: 0;"/><text class="annotation-text" text-anchor="middle" x="26.515625" y="13" style="font-family: Arial, sans-serif; font-size: 12px; fill: rgb(0, 0, 0); fill-opacity: 1; white-space: pre;">T​<tspan style="font-size:70%" dy="0.3em">1/2</tspan><tspan dy="-0.21em">​</tspan>: 26.7</text></g></g></g></g></svg>